<?xml version="1.0" encoding="UTF-8"?>
<svg id="a" data-name="Layer 1" xmlns="http://www.w3.org/2000/svg" viewBox="0 0 66.29 20">
  <defs>
    <style>
      .d {
        fill: none;
        stroke: #000;
        stroke-linecap: round;
        stroke-linejoin: round;
        stroke-width: 2px;
      }
    </style>
  </defs>
  <g>
    <path class="d" d="m1.71,16.55c1.07-3.83,1.1-7.88,2.13-11.72.03-.1.04-.24-.05-.29s-.17.16-.07.14c1.22-.41,2.44-.82,3.67-1.23-.45.4-.42,1.09-.36,1.69.4,3.75.8,7.5,1.2,11.24"/>
    <path class="d" d="m3.48,11.47c.83-.52,1.78-.86,2.75-.99"/>
  </g>
  <path class="d" d="m16.33,16.48c-.39-4.51-.51-9.05.26-13.19,1.3-.24,2.65-.18,3.92.17.45.13.91.3,1.28.59.9.7,1.16,2.03.77,3.1s-1.33,1.87-2.38,2.31-2.21.54-3.35.53c1.26-.43,2.75-.84,3.84-.08,1.01.7,1.22,2.07,1.58,3.25.14.46.32.93.27,1.4-.07.6-.53,1.11-1.07,1.39s-1.15.39-1.75.48c-1.09.17-2.18.31-3.27.42"/>
  <path class="d" d="m37.65,9.71c-.22-1.06,0-2.16,0-3.25s-.33-2.3-1.27-2.84c-.59-.34-1.3-.34-1.98-.3-.86.06-1.72.18-2.56.37-.35.08-.72.18-.95.46-.21.25-.27.59-.31.92-.43,3.16-.49,6.36-.17,9.53.04.35.08.71.26,1,.2.33.55.54.91.7,1.97.88,4.68.25,5.57-1.72.39-.85.4-1.82.4-2.76,0-.72.24-1.45.1-2.12Z"/>
  <path class="d" d="m44.65,3.47c-.32,3.69-.21,7.41.32,11.07.04.3.09.62.25.88.17.28.46.48.75.64,1.44.78,3.46.66,4.46-.63.55-.71.71-1.65.82-2.55.38-3.08.38-6.21,0-9.29"/>
  <g>
    <path class="d" d="m61.14,16.95c.3-4.55.4-9.11.29-13.66"/>
    <path class="d" d="m57.75,3.1l7.19-.04"/>
  </g>
</svg>