<?xml version="1.0" encoding="UTF-8"?>
<svg id="a" data-name="Layer 1" xmlns="http://www.w3.org/2000/svg" viewBox="0 0 95.84 20">
  <defs>
    <style>
      .d {
        fill: none;
        stroke: #000;
        stroke-linecap: round;
        stroke-linejoin: round;
        stroke-width: 2px;
      }
    </style>
  </defs>
  <path class="d" d="m9.76,8.22c.2-1.16,0-2.42-.66-3.39s-1.83-1.63-3.01-1.54c-1.33.1-2.47,1.09-3.05,2.29s-.7,2.57-.69,3.9c.01,1.49.16,2.98.46,4.44.1.48.21.97.45,1.4.69,1.24,2.38,1.73,3.7,1.21s2.19-1.91,2.27-3.32"/>
  <path class="d" d="m23.99,7.83c0-1.38-.43-2.82-1.46-3.74s-2.71-1.17-3.81-.33c-1.15.87-1.34,2.49-1.43,3.93-.07,1.13-.15,2.26-.22,3.39-.08,1.26-.16,2.58.33,3.75s1.71,2.14,2.96,1.88c.79-.16,1.42-.77,1.91-1.41,1.58-2.06,1.7-4.75,1.72-7.47Z"/>
  <g>
    <path class="d" d="m31.72,17.21c.27-4.54.27-9.1,0-13.64"/>
    <path class="d" d="m38.85,17.11V2.81"/>
    <path class="d" d="m38.75,17.18c-2.38-4.64-3.64-9.81-6.15-14.39"/>
  </g>
  <g>
    <path class="d" d="m49.25,17.29c.09-4.86.03-9.73-.18-14.58"/>
    <path class="d" d="m44.8,3.18c2.61-.55,5.32-.61,7.95-.18"/>
  </g>
  <g>
    <path class="d" d="m59.06,17.11c.79-4.41,1.39-8.84,1.8-13.3.82-.49,1.75-.81,2.7-.93.38,4.7,1.23,9.37,2.54,13.9-.01-.16-.03-.32-.04-.48"/>
    <path class="d" d="m60.83,10.61l2.45-.82c.08-.03.18-.05.23.02s-.1.16-.1.08"/>
  </g>
  <path class="d" d="m79.27,6.54c.22-1.23-.47-2.56-1.61-3.08s-2.6-.17-3.38.8c-.61.76-.79,1.78-.92,2.75-.29,2.25-.39,4.53-.32,6.8.03.92.14,1.94.85,2.53.66.55,1.64.53,2.44.22,1.42-.55,2.47-1.93,2.62-3.45"/>
  <g>
    <path class="d" d="m89.43,17.29c.4-4.85.38-9.74-.06-14.58"/>
    <path class="d" d="m84.83,3.24c2.84-.36,5.71-.51,8.58-.46"/>
  </g>
</svg>