<?xml version="1.0" encoding="utf-8"?>
<!-- Generator: Adobe Illustrator 27.8.1, SVG Export Plug-In . SVG Version: 6.00 Build 0)  -->
<svg version="1.1" id="Layer_1" xmlns="http://www.w3.org/2000/svg" xmlns:xlink="http://www.w3.org/1999/xlink" x="0px" y="0px"
	 viewBox="0 0 171.3 66.9" style="enable-background:new 0 0 171.3 66.9;" xml:space="preserve">
<style type="text/css">
	.st0{fill:none;stroke:#000000;stroke-width:2.5;stroke-linecap:round;stroke-linejoin:round;}
</style>
<g id="Layer_2_00000118372700423042279180000008556644567814923182_">
	<path class="st0" d="M46.5,5.8c-1.7,0.6-3.5,1.3-4.4,2.8s-0.2,4,1.5,4.1c1.8,0.1,2.8-2.5,1.8-4s-2.9-2.1-4.7-2.3
		c-5.9-0.5-11.9,2-16.3,6s-7.5,9.3-9.7,14.8c-2.1,5-3.6,10.5-3.1,15.9S15,54,19.7,56.6c4.6,2.5,10.5,2,15.2-0.4s8.2-6.7,10.8-11.3"
		/>
	<path class="st0" d="M134.1,54.5c0.1,2-2.5,3.3-4.2,2.4c-1.8-0.9-2.5-6.1-2.2-8s1.3-3.7,2.4-5.3c5.2-8.2,10.6-16.2,16.2-24
		c-6.8,11.3-13.9,22.5-21.7,32.1c-1.5,1.8-3,3.7-5.1,4.6c-2.1,0.9-5,0.5-6.2-1.5c-1.3-2.2-0.1-6,1.3-8.2c1.5-2.4,3.2-4.7,5-6.9
		c1.1-1.4,2.5-2.8,4.2-2.8s3.2,2.5,1.8,3.5c1.3-1.5-0.8-3.9-2.8-3.6s-3.2,2.2-4.3,3.8c-1.8,2.8-3.6,5.6-5.3,8.4
		c-0.9,1.5-1.9,4-3.4,4.9s-3.6,1.1-4.8-0.1s-0.9-4.5-0.3-5.3l4.2-7.9l0.1-0.3c-1.6,4.6-3.8,8.8-6.9,12.5c-1.5,1.8-4.1,4.6-6,3.2
		c-1.5-1.1-1.4-5.5-0.8-7.3c1.2-4,3.6-7.6,6.7-10.5c1.4-1.3,3.2-2.4,5-2.2s3.3,2.8,2,4.2c0.6-1.5-0.5-3.2-2-3.8s-3.2-0.1-4.5,0.9
		c-1.3,0.9-2.3,2.2-3.2,3.5c-2.9,3.9-5.7,8.8-8.6,12.7c-1.2,1.6-2.9,3.4-4.8,2.8c-1.4-0.5-2.1-3.2-1.9-4.7s1.1-2.8,2-4
		c6.6-9.3,13.2-18.6,19.8-27.9C97,32.1,89.2,43,80.5,55c-0.7,0.9-1.6,2-2.8,1.8c-1.1-0.2-1.7-1.5-1.5-2.6s0.9-2,1.6-2.9
		c2.3-2.9,3.4-4.8,5.3-7.9c0.9-1.4,1.8-3,1.3-4.6c-0.7-2.3-3.9-2.8-5.9-1.6s-12,17.4-13.7,19.3c3.5-5.1,5.9-9.2,9.4-14.2
		c0.6-0.8,1.1-1.6,1.3-2.6c0.2-1-0.1-2.1-0.9-2.6c-1.1-0.7-2.6,0-3.7,0.8c-1.7,1.3-3.1,2.9-4.9,4s-4.2,1.6-6,0.4
		c-1.7-1.2-2-4.3-0.1-5.3c1.5-0.7,3.5,0.4,4.1,2s0.3,3.4-0.3,5c-1.2,3.6-3.2,6.9-5.8,9.6c-1.5,1.5-3.7,2.9-5.6,2.1
		c-1.2-0.5-1.9-1.8-2.1-3.1c-0.2-1.3,0.1-2.6,0.5-3.8c0.9-3.1,2.4-6.1,4.2-8.7c0.8-1.2,1.8-2.4,3.2-3c1.3-0.6,3.1-0.7,4.3,0.1"/>
	<path class="st0" d="M80.6,31c11.6-1,23.2-2,34.8-3"/>
	<path class="st0" d="M129.3,29.3c10.2-1.3,20.5-2.6,30.7-3.9"/>
</g>
</svg>
