<?xml version="1.0" encoding="UTF-8"?>
<svg id="t" data-name="Layer 23" xmlns="http://www.w3.org/2000/svg" viewBox="0 0 265.23 88.41">
  <defs>
    <style>
      .u {
        fill: none;
        stroke: #000;
        stroke-linecap: round;
        stroke-linejoin: round;
        stroke-width: 5px;
      }
    </style>
  </defs>
  <g>
    <path class="u" d="m42.57,17.47c-.04-3.76-.8-8.52-4.44-9.47-2.09-.55-4.35.6-5.67,2.32-1.32,1.72-1.86,3.9-2.19,6.05-.45,2.94-.55,5.92-.61,8.89-.07,3.28.27,7.21,3.15,8.78,1.63.89,3.79.65,5.19-.57,1.4-1.22,1.92-3.34,1.27-5.07"/>
    <g>
      <path class="u" d="m58.99,35.46c-.11.5-.22,1.01-.33,1.51-.59-9.12-.6-18.27,1.44-26.46,2.54-2.17,6.8-1.74,8.99.77,2.2,2.51,2.13,6.64-.02,9.2-2.14,2.56-6.04,3.38-9.11,2.08"/>
      <path class="u" d="m67.43,23.92c1.3,4.17,2.6,8.33,3.89,12.5"/>
    </g>
    <path class="u" d="m88,9.59c.12,8.69.24,17.39.37,26.08,3.17-.99,6.54-1.37,9.85-1.12"/>
    <path class="u" d="m90.31,21.76l8.21.91"/>
    <path class="u" d="m89.71,9.28c3.65,0,7.3,0,10.95,0"/>
    <path class="u" d="m117.65,37.89c.75-9.51,1.5-19.02,2.25-28.53,2.79-.35,5.65-.18,8.38.51,1.26,8.48,3.03,16.91,3.41,25.48.02.35.11.79.46.84.34.05.21-.71,0-.44"/>
    <path class="u" d="m121.03,24.81c2.43-.2,4.87-.41,7.3-.61"/>
    <g>
      <path class="u" d="m148.7,9.89c4.06.13,8.13-.13,12.14-.78"/>
      <path class="u" d="m154.19,12.02c-1.29,8.86-1.63,17.86-.99,26.79"/>
    </g>
    <path class="u" d="m176.98,13.54c.06-2.08.12-4.16.17-6.24-.32,9.99-.28,19.99.12,29.98,0-.81,0-1.62,0-2.44"/>
    <path class="u" d="m191.28,9.68c1.48,9.22,4.43,18.19,8.7,26.49,1.38-9.16,3.19-18.26,5.41-27.25"/>
    <path class="u" d="m221.7,9.6c.39,8.69.78,17.37,1.18,26.06,3.23-2.27,7.37-3.21,11.27-2.56"/>
    <path class="u" d="m224.13,23.61c3.76-1.09,7.64-1.73,11.55-1.91"/>
    <path class="u" d="m223.21,9.29c3.17-1.27,6.63-1.8,10.03-1.55"/>
  </g>
  <g>
    <path class="u" d="m20.39,60.75c-.04-3.76-.8-8.52-4.44-9.47-2.09-.55-4.35.6-5.67,2.32-1.32,1.72-1.86,3.9-2.19,6.05-.45,2.94-.55,5.92-.61,8.89-.07,3.28.27,7.21,3.15,8.78,1.63.89,3.79.65,5.19-.57,1.4-1.22,1.92-3.34,1.27-5.07"/>
    <g>
      <path class="u" d="m175.29,54.04c4.06.13,8.13-.13,12.14-.78"/>
      <path class="u" d="m180.77,56.18c-1.29,8.86-1.63,17.86-.99,26.79"/>
    </g>
    <path class="u" d="m201.98,55.43c.3,8.2.2,16.41-.3,24.6-.02.29.01.66.28.76.27.1.36-.52.1-.4"/>
    <path class="u" d="m43.24,52.42c-1.38-.56-3.02-.01-4.11,1s-1.72,2.43-2.22,3.83c-1.3,3.64-1.91,7.53-1.78,11.4.07,2.08.39,4.25,1.6,5.94s3.53,2.74,5.45,1.92c1.86-.8,2.69-2.94,3.23-4.89.8-2.88,1.4-5.82,1.8-8.78.28-2.14.45-4.37-.3-6.39-.75-2.02-2.69-3.63-3.65-4.02Z"/>
    <path class="u" d="m154.78,55.02c-.09,7.81.13,15.62.65,23.41,3.46-1.12,7.17-1.41,10.75-.85"/>
    <path class="u" d="m107.82,55.4c-1.53-1.06-3.19-2.16-5.05-2.13-1.58.03-3.08.92-4.04,2.17-.96,1.26-1.43,2.84-1.54,4.42-.08,1.11.04,2.29.69,3.19,1.1,1.5,3.25,1.65,4.88,2.54,2.05,1.12,3.2,3.39,3.81,5.65.17.64.31,1.32.19,1.97-.17.91-.82,1.67-1.56,2.23-1.17.87-2.67,1.34-4.12,1.13s-2.79-1.17-3.33-2.53"/>
    <path class="u" d="m256.96,57.74c-.21-1.72-1.83-3.04-3.54-3.35-1.71-.31-3.47.22-5.03.99-.68.34-1.36.74-1.79,1.37-.38.55-.53,1.23-.65,1.88-.96,5.01-1.11,10.17-.45,15.23.15,1.11.35,2.25,1,3.16,1.3,1.81,3.86,2.05,6.1,2.12,1.29.04,2.73.02,3.64-.88.51-.5.76-1.19.96-1.87.62-2.15.81-4.42.54-6.64-1.53.44-3.16.53-4.73.25"/>
    <g>
      <path class="u" d="m219.19,82.24c1.15-8.94,1.4-17.99.75-26.98"/>
      <path class="u" d="m220.55,54c.79,2.26,1.59,4.52,2.38,6.78,2.57,7.32,5.15,14.65,8.29,21.16-.08-9.22-.16-18.45-.23-27.67"/>
      <path class="u" d="m220.55,54c.79,2.26,1.59,4.52,2.38,6.78,2.57,7.32,5.15,14.65,8.29,21.16-.08-9.22-.16-18.45-.23-27.67"/>
    </g>
    <g>
      <path class="u" d="m64.91,78.62c1.15-8.94,1.4-17.99.75-26.98"/>
      <path class="u" d="m66.28,50.38c.79,2.26,1.59,4.52,2.38,6.78,2.57,7.32,5.15,14.65,8.29,21.16l-.23-27.67"/>
      <path class="u" d="m66.28,50.38c.79,2.26,1.59,4.52,2.38,6.78,2.57,7.32,5.15,14.65,8.29,21.16l-.23-27.67"/>
    </g>
    <path class="u" d="m126.09,54.86c.4,5.27.8,10.54,1.21,15.82.12,1.62.25,3.23.37,4.85.05.68.11,1.39.47,1.97.81,1.33,2.68,1.41,4.24,1.33,1.13-.06,2.37-.16,3.2-.93.82-.77,1.02-1.98,1.15-3.1.79-6.69,1.01-13.45.67-20.19"/>
  </g>
</svg>