<?xml version="1.0" encoding="UTF-8"?>
<svg id="o" data-name="Layer 4" xmlns="http://www.w3.org/2000/svg" viewBox="0 0 300 300">
  <defs>
    <style>
      .q, .r {
        stroke: #000;
        stroke-linecap: round;
        stroke-linejoin: round;
        stroke-width: 9px;
      }

      .r {
        fill: none;
      }
    </style>
  </defs>
  <path class="r" d="m52.72,162.24c3.9-18.19,12.99-36.35,26.44-52.82,10.89-13.34,25.31-25.99,43.63-32.96,23.22-8.84,44.53-5.83,65.23,1.63,20.71,7.46,36.67,20.09,51.46,33.05"/>
  <path class="r" d="m55.25,161.99c3.25-2.55,8.15-4.61,14.26-6,4.94-1.13,10.93-1.82,17.54-1.24,8.37.73,14.82,3.18,20.59,6.28,5.77,3.1,9.46,6.59,12.74,10.03"/>
  <path class="r" d="m186.26,151.88c.27-4.12,2-9.15,5.03-14.63,2.46-4.44,5.93-9.36,10.76-13.9,6.12-5.76,12.25-8.94,18.4-11.17,6.16-2.23,11.22-2.66,15.96-2.81"/>
  <path class="q" d="m126.26,61.86c1.11,3.45,1.5,7.25,2.61,10.7,5.09,1.81,10.99,6.38,15.97,11.52,18.55,19.15,34.25,41.51,41.27,67.24-4.36-1.88-9.12-3.65-15.64-4.26-6.52-.6-13.42-.34-21.41,2.26-6.31,2.05-11.55,5.02-15.66,7.99-5.08,3.66-8.78,7.47-10.78,11.09-2.62-32.78-.54-63.66,6.26-95.83"/>
  <path class="r" d="m145.27,137.84c1.89,7.11,3.77,14.22,5.66,21.34,4.46,16.8,8.92,33.59,13.37,50.39,2.17,8.16,4.36,16.39,8.13,23.95,1.93,3.88,4.8,7.92,9.09,8.57,4.9.74,9.42-3.59,10.68-8.39,1.26-4.8.13-9.86-1.01-14.69"/>
</svg>