<?xml version="1.0" encoding="UTF-8"?>
<svg xmlns="http://www.w3.org/2000/svg" xmlns:xlink="http://www.w3.org/1999/xlink" viewBox="0 0 868.97 733.31">
  <defs>
    <style>
      #blink-right {
        opacity: 0;
        animation: fade 20s ease-in-out infinite;
        animation-delay: 2s;
      }
      #blink-left {
        opacity: 0;
        <!-- animation: fade 15s ease-in-out infinite;
        animation-delay: 2s; -->
      }
      @keyframes fade {
        0% {
          opacity: 0;
        }
        1% {
          opacity: 1;
        }
        2% {
          opacity: 0;
        }
        100% {
          opacity: 0;
        }
      }

.element {
  animation: fade 2s ease-in-out infinite;
}

    </style>
    <clipPath id="clippath">
      <ellipse cx="383.89" cy="391.73" rx="225.31" ry="267.27" style="fill: none;"/>
    </clipPath>
    <clipPath id="clippath-1">
      <ellipse id="eye-bgr-right-2" data-name="eye-bgr-right" cx="392.9" cy="357.1" rx="31.08" ry="13.47" style="fill: #fff;"/>
    </clipPath>
    <clipPath id="clippath-2">
      <path id="eye-bgr-left" d="m492.21,368.91c.6-4.04.26-25.6.01-29.74-35.4-1.82-35.89,31.43-.15,30.04,0-.02.13-.28.14-.3Z" style="fill: none;"/>
    </clipPath>
    <clipPath id="clippath-3">
      <path d="m433.79,650.68c51.2-15.2,63.32-26.28,84.59-42.41,9.7-7.35,20.04-13.67,32.51-19.77,43.38-21.21,100.65-6.89,146.03-23.44,61.21-22.31,107.75-79.91,116.18-143.78,4.3-32.57-1.74-68.23-24.46-92.15-15.53-16.35-37.24-25.66-59.14-31.55-36.09-9.71-75.12-11.1-110.68.48-55.11,17.94-97,66.23-114.92,120.73-5.09,15.49-8.48,31.56-15.02,46.51-16.36,37.38-51.12,64.91-66.04,102.88-8.11,20.64-9.82,43.67-4.84,65.23,1.22,5.29,2.98,10.73,6.92,14.5,3.94,3.77.07,2.94,2.63,4.04l6.24-1.27Z" style="fill: none;"/>
    </clipPath>
  </defs>
  <g id="face-and-frame">
    <g id="face">
      <g style="clip-path: url(#clippath);">
        <path id="hair" d="m569.44,545.63c-7.14-19.69-20.88-36.15-34.36-52.18-14.47-10.83-15.86-36.23-9.88-57.51,5.98-21.28,18.01-40.32,26.08-60.89,8.07-20.58,11.86-44.74,1.36-64.19-7.76-14.38-22.37-24.33-29.14-39.2-5.64-12.38-5.12-26.56-7.57-39.95-6.95-38.06-34.3-61.51-72.79-65.44-38.49-3.93-84.86,13.44-99.36,49.3-1.39-.34-2.78-.6-4.18-.82-5.4-2.26-11.43-3.27-17.25-2.97-12.8.66-24.74,6.45-35.91,12.76-25.85,14.6-52.14,36.68-53.4,66.35-.69,16.14,6.36,31.62,7.72,47.72,1.48,17.43-3.73,34.66-8.62,51.46-4.89,16.8-9.57,34.28-7.01,51.59,1.98,13.38,9.42,26.67,20.62,33.59-3.76,12.84-7.88,25.59-10.44,38.71-4.32,22.18-3.52,46.93,9.99,65.04l.92-10.79c14.66,15.2,11.54,39.96,4.64,59.92-6.9,19.96-16.73,40.61-12.24,61.25,3.52,16.17,15.69,29.51,30.13,37.6,14.44,8.09,31.02,11.51,47.46,13.48,71.2,8.52,146.57-10,201.57-56.01,20.18-16.89,37.68-37.55,47.92-61.79,10.24-24.24,12.73-52.28,3.76-77.02Z"/>
        <path id="neck" d="m450.26,655.83c-12.43-44.38-10.18-52.24-19.21-97.44-4.37-21.88-8.34-44.44-4.21-66.37-15.2-.9-30.3-4.14-44.39-9.92-27.98-11.48-51.63-33.21-65.43-60.13,6.51,25.37,5.52,51.84,4.47,77.77-.49,11.99-1.11,24.49-7.77,37.23-11.87,36.74-23.74,73.48-35.61,110.22,28.95,1.8,54.21,20.27,82.54,26.5,13.55,2.98,27.55,3.1,41.43,3.2,17.53.13,35.05.26,52.58.39-2.88-6.33-2.23-13.69-4.4-21.45Z" style="fill: #fff; stroke: #000; stroke-linecap: round; stroke-linejoin: round; stroke-width: 5px;"/>
        <path id="face-background" d="m305.68,369.41c-.12-9.5-11.85-16.24-20.3-11.89s-11.99,15.05-10.81,24.48c1.18,9.43,6.1,17.92,10.92,26.11,2.59,4.41,5.33,8.98,9.62,11.77,4.28,2.79,10.59,3.2,14.13-.5,17.35,21.55,35.19,43.54,58.83,57.9,23.64,14.37,54.64,19.83,78.98,6.7,28.39-15.31,39.57-50.14,44.09-82.08,4.69-33.12,5.02-66.85.98-100.05-37.19,19.45-85.81,14.39-118.21-12.29-.95,18.88-20.7,30.14-37.45,38.91s-34.42,22.39-30.78,40.94Z" style="fill: #fff; stroke: #000; stroke-linecap: round; stroke-miterlimit: 10; stroke-width: 5px;"/>
        <g id="right-eye">
          <ellipse id="iris-right" cx="392.9" cy="357.1" rx="12.43" ry="12.02" style="fill: none; stroke: #000; stroke-linecap: round; stroke-miterlimit: 10; stroke-width: 5px;"/>
          <ellipse id="iris-right-2" data-name="iris-right" cx="392.9" cy="357.1" rx="7.46" ry="7.21"/>
          <g id="blink-right">
            <ellipse id="eye-bgr-right" cx="392.9" cy="357.1" rx="31.08" ry="13.47" style="fill: #fff;"/>
            <g style="clip-path: url(#clippath-1);">
              <rect id="blink-right_eyelid-top" x="360.58" y="356.86" width="65.73" height="13.69" style="fill: #fff; stroke: #000; stroke-linecap: round; stroke-miterlimit: 10; stroke-width: 5px;"/>
              <rect id="blink-right_eyelid-bottom" x="360.58" y="341.8" width="65.73" height="15.06" style="fill: #fff; stroke: #000; stroke-linecap: round; stroke-miterlimit: 10; stroke-width: 5px;"/>
            </g>
          </g>
          <ellipse id="eye-bgr-right-3" data-name="eye-bgr-right" cx="392.9" cy="357.1" rx="31.08" ry="13.47" style="fill: none; stroke: #000; stroke-linecap: round; stroke-miterlimit: 10; stroke-width: 5px;"/>
          <path id="eyebrow-right" d="m354.33,342.24c18.92-14.84,45.81-18.82,68.21-10.09" style="fill: none; stroke: #000; stroke-linecap: round; stroke-miterlimit: 10; stroke-width: 5px;"/>
          <g id="eyelashes-right">
            <path d="m360.58,356.48c-1.41-2.08-2.81-4.16-4.22-6.25" style="fill: none; stroke: #000; stroke-linecap: round; stroke-miterlimit: 10; stroke-width: 5px;"/>
            <path d="m364.8,349.61c-1.3-1.84-2.26-3.91-2.81-6.09" style="fill: none; stroke: #000; stroke-linecap: round; stroke-miterlimit: 10; stroke-width: 5px;"/>
            <path d="m371.05,346.17l-2.19-6.09" style="fill: none; stroke: #000; stroke-linecap: round; stroke-miterlimit: 10; stroke-width: 5px;"/>
            <path d="m377.92,343.83c-.26-1.87-.52-3.75-.78-5.62" style="fill: none; stroke: #000; stroke-linecap: round; stroke-miterlimit: 10; stroke-width: 5px;"/>
            <path d="m384.63,343.05c.37-2.55.21-5.17-.47-7.65" style="fill: none; stroke: #000; stroke-linecap: round; stroke-miterlimit: 10; stroke-width: 5px;"/>
            <path d="m391.82,341.49c.21-2.13.42-4.27.62-6.4" style="fill: none; stroke: #000; stroke-linecap: round; stroke-miterlimit: 10; stroke-width: 5px;"/>
            <path d="m399.32,341.8l1.25-7.18" style="fill: none; stroke: #000; stroke-linecap: round; stroke-miterlimit: 10; stroke-width: 5px;"/>
            <path d="m405.44,342.75l1.88-7.5" style="fill: none; stroke: #000; stroke-linecap: round; stroke-miterlimit: 10; stroke-width: 5px;"/>
            <path d="m412.1,344.45l3.21-7.06" style="fill: none; stroke: #000; stroke-linecap: round; stroke-miterlimit: 10; stroke-width: 5px;"/>
            <path d="m416.81,346.17l3.59-5.15" style="fill: none; stroke: #000; stroke-linecap: round; stroke-miterlimit: 10; stroke-width: 5px;"/>
            <path d="m421.76,348.61l3.43-2.82" style="fill: none; stroke: #000; stroke-linecap: round; stroke-miterlimit: 10; stroke-width: 5px;"/>
          </g>
        </g>
        <g>
          <path id="iris-left" d="m491.96,344.34c-3.68-.6-7.65,1.17-9.66,4.32s-1.95,7.49.14,10.58,6.1,4.76,9.77,4.06c.84-6.35.8-12.81-.26-18.95Z" style="fill: none; stroke: #000; stroke-linecap: round; stroke-miterlimit: 10; stroke-width: 5px;"/>
          <path id="iris-left-2" data-name="iris-left" d="m491.8,348.94c-1.9-.31-3.94.6-4.98,2.23s-1.01,3.86.07,5.45,3.15,2.45,5.04,2.09c.43-3.27.41-6.6-.13-9.77Z"/>
          <g id="blink-left">
            <g style="clip-path: url(#clippath-2);">
              <rect x="465.6" y="355.73" width="29.7" height="13.69" style="fill: #fff; stroke: #000; stroke-linecap: round; stroke-miterlimit: 10; stroke-width: 5px;"/>
              <rect x="465.6" y="338.24" width="29.7" height="17.49" style="fill: #fff; stroke: #000; stroke-linecap: round; stroke-miterlimit: 10; stroke-width: 5px;"/>
            </g>
          </g>
          <path id="eye-bgr-left-2" data-name="eye-bgr-left" d="m492.21,368.91c.6-4.04.26-25.6.01-29.74-35.4-1.82-35.89,31.43-.15,30.04,0-.02.13-.28.14-.3Z" style="fill: none; stroke: #000; stroke-linecap: round; stroke-miterlimit: 10; stroke-width: 5px;"/>
          <path id="eyebrow-left" d="m459.57,331.76c11.54-3.42,23.4-5.74,35.37-6.94" style="fill: none; stroke: #000; stroke-linecap: round; stroke-miterlimit: 10; stroke-width: 5px;"/>
          <g id="eyelashes-left">
            <path d="m494.23,338.71c2.56-1.4,5.13-2.8,7.69-4.2" style="fill: none; stroke: #000; stroke-linecap: round; stroke-miterlimit: 10; stroke-width: 5px;"/>
            <path d="m488.6,337.28c2.03-2.4,4.05-4.8,6.08-7.21" style="fill: none; stroke: #000; stroke-linecap: round; stroke-miterlimit: 10; stroke-width: 5px;"/>
            <path d="m484.44,337.67c-.14-2.1.29-4.23,1.22-6.12" style="fill: none; stroke: #000; stroke-linecap: round; stroke-miterlimit: 10; stroke-width: 5px;"/>
            <path d="m478.73,339.94c-.11-2.16-.23-4.31-.34-6.47" style="fill: none; stroke: #000; stroke-linecap: round; stroke-miterlimit: 10; stroke-width: 5px;"/>
            <path d="m474.36,340.93c-1.46-1.52-2.91-3.03-4.37-4.55" style="fill: none; stroke: #000; stroke-linecap: round; stroke-miterlimit: 10; stroke-width: 5px;"/>
            <path d="m469.2,344.5c-.91-1.88-2.29-3.53-3.97-4.78" style="fill: none; stroke: #000; stroke-linecap: round; stroke-miterlimit: 10; stroke-width: 5px;"/>
            <path d="m465.76,349c-1.33-1.35-2.66-2.7-3.99-4.05" style="fill: none; stroke: #000; stroke-linecap: round; stroke-miterlimit: 10; stroke-width: 5px;"/>
          </g>
        </g>
        <path id="nose" d="m418.35,409.76c4.15,3.95,10.09,5.22,15.71,6.32,5.98,1.17,12.29,2.33,18.06.35,3.25-1.11,6.12-3.17,9.34-4.35,2.52-.93,5.29-1.34,7.51-2.86s3.64-4.76,2.05-6.93" style="fill: none; stroke: #000; stroke-linecap: round; stroke-miterlimit: 10; stroke-width: 5px;"/>
        <g id="lips">
          <path id="lips-bgr" d="m396.58,445.89c11.26-1.3,22.29-4.52,32.48-9.48,1.49-.72,3.03-1.5,4.69-1.5,1.55,0,2.99.69,4.45,1.19,4.57,1.58,9.71,1.44,14.19-.39,1.65-.68,3.31-1.59,5.08-1.47,1.33.09,2.55.75,3.77,1.3,4.53,2.05,9.7,2.64,14.58,1.68-3.63,4.87-7.34,9.83-12.27,13.37-9.11,6.53-21.03,7.36-32.24,7.31-6.37-.03-12.82-.28-18.94-2.06s-11.95-5.24-15.79-9.94Z" style="fill: none; stroke: #000; stroke-linecap: round; stroke-linejoin: round; stroke-width: 5px;"/>
          <path id="lip-line" d="m416.17,448.86c5.59.2,11.21-.59,16.52-2.31.54-.18,1.09-.36,1.66-.35.74.01,1.42.35,2.12.61,5.58,2.11,11.67-.84,16.89-3.7,1.49,1.61,4.07,2.09,6.03,1.12" style="fill: none; stroke: #000; stroke-linecap: round; stroke-linejoin: round; stroke-width: 5px;"/>
        </g>
        <path id="shoulder" d="m231.46,632.42c2.55-18.43,7.4-36.54,14.4-53.78,6.24-15.39,14.6-30.56,27.87-40.53,13.28-9.97,32.42-13.56,46.68-5.05,14.38,8.58,20.09,26.31,23.57,42.7,7.8,36.8,10.08,74.76,6.74,112.23-.24,2.72-.59,5.62-2.37,7.68-1.65,1.91-4.21,2.73-6.66,3.3-22.58,5.26-46.6-3.56-64.82-17.9-18.22-14.34-31.7-33.71-45.4-48.66Z" style="fill: #fff; stroke: #000; stroke-linecap: round; stroke-linejoin: round; stroke-width: 5px;"/>
        <path id="ear-line" d="m287.19,388.34c-2.24-4.44-2.85-9.68-1.69-14.52.73-3.04,2.87-6.38,5.98-6.19,2.09.13,3.72,1.86,4.78,3.66,2.2,3.75,2.85,8.38,1.77,12.59-.84,3.27-2.68,6.65-1.53,9.83.66,1.83,2.21,3.17,3.51,4.63s2.45,3.34,2.03,5.25" style="fill: none; stroke: #000; stroke-linecap: round; stroke-miterlimit: 10; stroke-width: 5px;"/>
      </g>
    </g>
    <ellipse cx="385.58" cy="390.49" rx="227" ry="268.5" style="fill: none; stroke: #000; stroke-linecap: round; stroke-linejoin: round; stroke-width: 5px;"/>
    <path id="chest-hair" d="m422.77,557.83c-1.29,4.17-1.38,8.6-1.31,12.97.32,19.99,4.59,41.49,19.3,55.02,4.9-2.32,9.03-6.23,11.6-11,2.44-4.53,3.46-9.67,4.34-14.74,2.46-14.24,4.01-28.64,4.65-43.07.39-8.78.38-17.88-3.08-25.96-.97-2.26-2.28-4.5-4.34-5.85-1.86-1.21-4.14-1.58-6.36-1.6-7.86-.05-12.92,2.56-14.76,9.8-2.25,8.86-7.36,15.81-10.03,24.43Z"/>
  </g>
  <g id="hand">
    <g style="clip-path: url(#clippath-3);">
      <g id="hand-2" data-name="hand">
        <path id="hand-bgr" d="m638.12,456.29c-4.63-2.36-7.4-7.41-8.3-12.52-.9-5.11-.22-10.36.47-15.5,4.62-2.22,9.73,1.71,13.21,5.47,11.23,12.14,20.86,25.77,28.56,40.4,1.62,3.08,3.19,6.31,3.37,9.78.29,5.43-2.81,10.43-6.07,14.79-11.48,15.33-26.95,28.78-31.72,47.33-1.48,3.89-6.67,7.93-12.27,10.25s-11.68,3.16-17.65,4.21c-27.19,4.76-53.56,14.17-77.61,27.71-.95.53-1.92,1.1-2.57,1.97-.68.91-.94,2.06-1.2,3.16-7.18,30.16-30.16,54.22-40.16,83.56l.46-1.46c-6.08,16.77-12.15,33.53-18.23,50.3-4.14,11.43-9.35,24.03-20.5,28.87-10.04,4.36-22.44.51-29.85-7.55s-10.32-19.5-9.91-30.44c.41-10.94,3.82-21.54,7.7-31.78,12.35-32.62,29.75-63.32,51.4-90.66,5.52-10.74,13.72-22.54,22.21-34.12,3.25-4.42,6.82-9.03,11.22-11.06,5.62-13.84,14.17-26.66,25.75-36.11,11.57-9.44,26.29-15.33,39.5-14.91,2.08-.54,3.89-2.02,4.83-3.96-3.65.07-7.54.08-10.6-1.91s-4.54-6.78-1.94-9.34c1.86-1.82,4.78-1.75,7.38-1.93s5.67-1.23,6.2-3.78c.44-2.1-1.13-4.19-.84-6.31.37-2.68,3.48-4.1,6.19-4.1s5.39.89,8.07.6,5.54-2.48,5.07-5.15c-.29-1.64-1.73-2.83-2.37-4.36-1.1-2.65.5-5.82,2.91-7.37s5.42-1.82,8.29-1.85c12.7-.15,25.09,3.55,39.01,7.78Z" style="fill: #fff;"/>
        <g id="hand-lines">
          <path d="m642.46,507.22c1.16-5.22,2.31-10.44,3.47-15.65.56-2.54,1.11-5.27.12-7.67-1.07-2.6-3.68-4.19-6.13-5.57-5.69-3.2-11.44-6.28-17.26-9.25-5.35-2.73-10.93-5.42-16.92-5.82-4.58-.31-9.3.72-13.71-.57s-8.23-6.45-5.85-10.37c2.14-3.53,7.24-3.31,11.32-2.64,7.6,1.23,15.2,2.47,22.8,3.7,6.25,1.01,12.96,2.26,15.66,5.34,1.51,2.24,4.3,3.13,6.65,4.45,1.63.91,3.1,2.08,4.57,3.23,2.75,2.17,5.5,4.34,8.25,6.51,0,0,.41.24.68.42,3.1,2.03,2.73,6.98,2.44,10.68" style="fill: none; stroke: #000; stroke-linecap: round; stroke-linejoin: round; stroke-width: 5px;"/>
          <path d="m593.83,463.8c-2.48,1.67-5.41,2.67-8.39,2.86-2.5.16-5.02-.23-7.52-.13s-5.16.79-6.81,2.68-1.8,5.2.21,6.7c2.16,1.62,5.17.45,7.75-.34,6.39-1.96,13.38-1.12,19.68,1.1,6.31,2.21,12.06,5.73,17.76,9.22,1.34.82,2.74,1.7,3.51,3.07.82,1.45.8,3.22.75,4.89-.24,8.99-.49,17.97-.73,26.96" style="fill: none; stroke: #000; stroke-linecap: round; stroke-linejoin: round; stroke-width: 5px;"/>
          <path d="m573.68,479.03c-4.27.52-8.47,1.63-12.44,3.28-1.49.62-3.07,1.45-3.67,2.94-.95,2.38,1.12,4.88,3.29,6.24,5.21,3.27,12.08,3.72,17.68,1.16,1.18-.54,2.36-1.22,3.66-1.25,1.33-.03,2.56.62,3.73,1.25,3.01,1.63,6.07,3.3,8.46,5.74,2.39,2.45,4.06,5.84,3.61,9.24-.4,3.08-2.43,5.69-3.37,8.64-1.57,4.95.31,10.8,4.47,13.92" style="fill: none; stroke: #000; stroke-linecap: round; stroke-linejoin: round; stroke-width: 5px;"/>
          <path d="m528.23,526.23c4.24-3.97,9.63-6.71,15.35-7.78,2.59-.49,5.28-.64,7.84,0,2.22.56,4.25,1.69,6.38,2.54,10.73,4.31,24.09.76,31.26-8.32" style="fill: none; stroke: #000; stroke-linecap: round; stroke-linejoin: round; stroke-width: 5px;"/>
        </g>
        <path id="hand-outline" d="m567.65,497.77c-14.94-.23-29.65,5.66-41.22,15.1-11.57,9.44-20.13,22.27-25.75,36.11-4.4,2.02-7.98,6.63-11.22,11.06-8.5,11.58-16.69,23.39-22.21,34.12-21.65,27.35-39.05,58.04-51.4,90.66-3.88,10.24-7.29,20.84-7.7,31.78-.41,10.94,2.5,22.38,9.91,30.44s19.81,11.91,29.85,7.55c11.15-4.84,16.35-17.44,20.5-28.87,6.08-16.77,12.15-33.53,18.23-50.3l-.46,1.46c10-29.34,32.98-53.41,40.16-83.56.26-1.11.52-2.25,1.2-3.16.65-.87,1.62-1.43,2.57-1.97,24.06-13.53,50.43-22.94,77.61-27.71,5.97-1.05,12.05-1.89,17.65-4.21s10.79-6.36,12.27-10.25c4.77-18.55,20.24-32,31.72-47.33,3.26-4.35,6.36-9.35,6.07-14.79-.19-3.47-1.75-6.71-3.37-9.78-7.7-14.64-17.33-28.26-28.56-40.4-3.48-3.76-8.59-7.69-13.21-5.47-.69,5.15-1.38,10.39-.47,15.5.9,5.11,3.67,10.17,8.3,12.52" style="fill: none; stroke: #000; stroke-linecap: round; stroke-linejoin: round; stroke-width: 5px;"/>
      </g>
      <g id="ciggie">
        <path id="ciggie-bgr" d="m648.74,465.25c21.91-10.03,43.17-21.47,63.44-33.28,3.16-.01,6.3-1.93,7.51-4.85s.22-6.66-2.41-8.4-6.65-1.05-8.36,1.6l-.42-.28c-23.11,12.25-46.22,24.51-69.39,37.38,2.51,4.8,7.65,8.74,9.63,7.83Z" style="fill: #fff; stroke: #000; stroke-linecap: round; stroke-linejoin: round; stroke-width: 5px;"/>
        <path id="ciggie-tip" d="m709.97,416.45c-1.94,3.04-2.2,7.35.12,10.11,2.32,2.76,7.4,2.88,9.26-.21.86-1.44.93-3.22.78-4.89-.17-1.87-.67-3.88-2.14-5.04s-4.13-.85-4.71.94" style="stroke: #000; stroke-linecap: round; stroke-linejoin: round; stroke-width: 5px;"/>
      </g>
      <g id="nails">
        <path d="m635.65,427.52c-1.52-.52-3.26-.61-4.68.15s-2.33,2.54-1.75,4.04c.22.58.63,1.06,1.02,1.53,3.33,3.95,6.86,8.05,11.66,9.97,1.11.45,2.33.77,3.5.52s2.26-1.19,2.33-2.39c.03-.51-.12-1.02-.3-1.51-2.03-5.78-6.88-10.49-12.71-12.35" style="stroke: #000; stroke-linecap: round; stroke-linejoin: round; stroke-width: 5px;"/>
        <path d="m592.66,449.7c-1.87,0-3.72-.6-5.58-.38s-3.81,1.78-3.42,3.61c.19.91.92,1.62,1.75,2.03s1.76.56,2.67.71c1.54.25,3.08.49,4.64.51,1.62.02,3.23-.2,4.83-.48,1.45-.25,2.94-.57,4.16-1.38.55-.36,1.08-.92,1.04-1.57-.03-.5-.38-.93-.76-1.26-1.87-1.64-4.58-1.77-7.07-1.82-1.5-.03-3.01-.06-4.51-.09" style="stroke: #000; stroke-linecap: round; stroke-linejoin: round; stroke-width: 5px;"/>
        <path d="m578.59,464.31c-3.3-.6-6.49,1.77-8.29,4.6-.29.45-.56.95-.52,1.48.08,1.22,1.6,1.74,2.82,1.79,3.61.16,7.27-1.08,10.03-3.42.96-.81,1.88-2.09,1.36-3.23-.4-.88-1.48-1.22-2.45-1.29s-1.98.04-2.87-.36" style="stroke: #000; stroke-linecap: round; stroke-linejoin: round; stroke-width: 5px;"/>
        <path d="m567.14,479.2c-2.38.62-4.7,1.52-6.87,2.67-1.44.76-2.94,1.79-3.31,3.37-.14.58-.1,1.23.24,1.73.56.81,1.7.95,2.69.9,2.82-.16,5.58-1.28,7.71-3.14.75-.65,1.44-1.43,1.71-2.39s.01-2.12-.82-2.66c-1.28-.84-2.96.14-4.08,1.19" style="stroke: #000; stroke-linecap: round; stroke-linejoin: round; stroke-width: 5px;"/>
      </g>
    </g>
    <path id="frame-patch" d="m546.09,580.35c-41.08,48.59-97.83,78.64-160.51,78.64" style="fill: none; stroke: #000; stroke-linecap: round; stroke-linejoin: round; stroke-width: 5px;"/>
  </g>
  <g id="banners">
    <path d="m451.52,683.52c11.49-.15,22.97-1.1,34.33-2.85,3.79-.58,8.45-2.15,8.79-5.97.28-3.1-2.73-5.55-5.72-6.41s-6.22-.75-9.11-1.89-5.44-4.3-4.3-7.19c1.14-2.9,4.92-3.47,8.03-3.58,52.84-1.96,79.27-2.64,132.1-.41h-1.7c6.3.1,13.58-.25,17.38-5.27,2.69-3.56,2.72-8.4,2.64-12.86-.21-10.9-.42-21.8-.63-32.7v-.07c-1.94,2.58-5.16,5.47-8.27,5.58-52.84,1.96-77.57,2.65-130.4.42-6.3-.11-13.58.24-17.38,5.26-2.69,3.56-2.72,8.4-2.64,12.86.21,10.9.42,21.8.63,32.7" style="fill: #fff; stroke: #000; stroke-linecap: round; stroke-linejoin: round; stroke-width: 5px;"/>
    <path d="m494.45,676.34c-.11-6.82-.22-13.64.02-20.47l.16.38" style="fill: none; stroke: #000; stroke-linecap: round; stroke-linejoin: round; stroke-width: 5px;"/>
    <path d="m614.82,591.69c-.54,5.88-1.07,11.76-1.61,17.64" style="fill: none; stroke: #000; stroke-linecap: round; stroke-linejoin: round; stroke-width: 5px;"/>
    <path d="m633.68,622.63c34.61-8.31,45.68-2.2,68.51-3.3-14.35-7.76-26.78-13.7-42.99-15.5,15.23-7.31,31.58-14.81,48.27-12.7-17.75-7-37-10.15-56.06-9.17h.29c-11.82.86-13.61,1.31-25.43,2.19-2.79.21-5.69.45-8.08,1.88s-4.09,4.46-3.09,7.06c1.15,3,4.93,3.86,8.13,4.08s6.9.49,8.77,3.1c2.37,3.32.13,7.01-3.64,8.57s-7.93,1.48-12.55,1.39c-.05.05-.59-.02-.64.02" style="fill: none; stroke: #000; stroke-linecap: round; stroke-linejoin: round; stroke-width: 5px;"/>
    <path d="m118.33,582.02c11.49.15,22.97,1.1,34.33,2.85,3.79.58,8.45,2.15,8.79,5.97.28,3.1-2.73,5.55-5.72,6.41s-6.22.75-9.11,1.89-5.44,4.3-4.3,7.19c1.14,2.9,4.92,3.47,8.03,3.58,52.84,1.96,77.57,2.65,130.4.42,6.3-.11,13.58.24,17.38,5.26,2.69,3.56,2.55,24.22,2.86,30.22s1.65,13.89-3.14,18.68c.75-1.24,1.92-4.06,2.15-5.49s-1.37-1.41-2.59-2.19c-2.53-1.63-2.56-1.78-8.7-1.78,0,0-76.1-2.03-128.93.2h1.7c-6.3.1-13.58-.25-17.38-5.27-2.69-3.56-2.72-8.4-2.64-12.86.21-10.9.42-21.8.63-32.7" style="fill: #fff; stroke: #000; stroke-linecap: round; stroke-linejoin: round; stroke-width: 5px;"/>
    <path d="m280.96,676.34c.11-6.82.22-13.64-.02-20.47l-.16.38" style="fill: none; stroke: #000; stroke-linecap: round; stroke-linejoin: round; stroke-width: 5px;"/>
    <path d="m161.44,591.69c.54,5.88,1.07,11.76,1.61,17.64" style="fill: none; stroke: #000; stroke-linecap: round; stroke-linejoin: round; stroke-width: 5px;"/>
    <path d="m473.9,643.7c-28.45,5.84-45.68,4.03-68.51,5.14h-35.37c-22.84-1.1-39.06-.55-69.35-4.87.42,4.61.84,9.33-.32,13.81s-4.22,8.76-8.66,10.06c-2.12.62-4.39.53-6.55,1s-4.4,1.71-5,3.84c-.57,2.03.6,4.22,2.29,5.48s3.8,1.77,5.86,2.2c11.17,2.36,19.37,3.4,30.77,2.96,61.2,2.63,85.82,2.42,140.14.42l28.32-3.85c2.67-.36,5.89-1.17,6.63-3.76.64-2.24-1.04-4.49-2.87-5.93-2.05-1.62-4.43-2.81-6.95-3.48-2.61-.69-5.58-.94-7.44-2.9-1.42-1.5-1.85-3.67-2.14-5.71-.69-4.89-.99-9.83-.86-14.4Z" style="fill: #fff; stroke: #000; stroke-linecap: round; stroke-linejoin: round; stroke-width: 5px;"/>
    <path d="m138.29,621.64c-34.61-8.31-45.68-2.2-68.51-3.3,14.35-7.76,30.21-12.71,46.42-14.51-15.23-7.31-31.58-14.81-48.27-12.7,17.75-7,37-10.15,56.06-9.17" style="fill: #fff; stroke: #000; stroke-linecap: round; stroke-linejoin: round; stroke-width: 5px;"/>
  </g>
  <g id="letters">
    <g>
      <path d="m159.63,628.7c-.02-2.48-.52-5.62-2.92-6.24-1.38-.36-2.87.39-3.74,1.53s-1.23,2.57-1.44,3.99c-.29,1.94-.36,3.9-.4,5.86-.04,2.16.18,4.75,2.07,5.79,1.07.59,2.5.43,3.42-.37.92-.8,1.27-2.2.83-3.34" style="fill: none; stroke: #000; stroke-linecap: round; stroke-linejoin: round; stroke-width: 4px;"/>
      <path d="m170.46,640.56c-.07.33-.15.67-.22,1-.39-6.01-.39-12.05.95-17.45,1.67-1.43,4.48-1.15,5.93.51,1.45,1.66,1.4,4.38-.01,6.07-1.41,1.69-3.98,2.23-6.01,1.37" style="fill: none; stroke: #000; stroke-linecap: round; stroke-linejoin: round; stroke-width: 4px;"/>
      <path d="m176.02,632.96c.86,2.75,1.71,5.49,2.57,8.24" style="fill: none; stroke: #000; stroke-linecap: round; stroke-linejoin: round; stroke-width: 4px;"/>
      <path d="m189.58,623.51c.08,5.73.16,11.46.24,17.2,2.09-.65,4.31-.91,6.5-.74" style="fill: none; stroke: #000; stroke-linecap: round; stroke-linejoin: round; stroke-width: 4px;"/>
      <path d="m191.11,631.53c1.8.2,3.61.4,5.41.6" style="fill: none; stroke: #000; stroke-linecap: round; stroke-linejoin: round; stroke-width: 4px;"/>
      <path d="m190.71,623.31c2.41,0,4.81,0,7.22,0" style="fill: none; stroke: #000; stroke-linecap: round; stroke-linejoin: round; stroke-width: 4px;"/>
      <path d="m209.13,642.17c.49-6.27.99-12.54,1.48-18.81,1.84-.23,3.73-.12,5.53.34.83,5.59,2,11.15,2.25,16.8.01.23.07.52.3.56s.14-.47,0-.29" style="fill: none; stroke: #000; stroke-linecap: round; stroke-linejoin: round; stroke-width: 4px;"/>
      <path d="m211.36,633.54c1.6-.13,3.21-.27,4.81-.4" style="fill: none; stroke: #000; stroke-linecap: round; stroke-linejoin: round; stroke-width: 4px;"/>
      <path d="m229.6,623.71c2.68.09,5.36-.09,8-.52" style="fill: none; stroke: #000; stroke-linecap: round; stroke-linejoin: round; stroke-width: 4px;"/>
      <path d="m233.22,625.11c-.85,5.84-1.07,11.77-.65,17.66" style="fill: none; stroke: #000; stroke-linecap: round; stroke-linejoin: round; stroke-width: 4px;"/>
      <path d="m248.25,626.12c.04-1.37.08-2.74.11-4.11-.21,6.59-.18,13.18.08,19.77,0-.54,0-1.07,0-1.61" style="fill: none; stroke: #000; stroke-linecap: round; stroke-linejoin: round; stroke-width: 4px;"/>
      <path d="m257.67,623.57c.98,6.08,2.92,12,5.74,17.47.91-6.04,2.1-12.04,3.57-17.97" style="fill: none; stroke: #000; stroke-linecap: round; stroke-linejoin: round; stroke-width: 4px;"/>
      <path d="m277.73,623.51c.26,5.73.52,11.45.78,17.18,2.13-1.49,4.86-2.12,7.43-1.69" style="fill: none; stroke: #000; stroke-linecap: round; stroke-linejoin: round; stroke-width: 4px;"/>
      <path d="m279.33,632.75c2.48-.72,5.04-1.14,7.61-1.26" style="fill: none; stroke: #000; stroke-linecap: round; stroke-linejoin: round; stroke-width: 4px;"/>
      <path d="m278.73,623.31c2.09-.84,4.37-1.19,6.61-1.02" style="fill: none; stroke: #000; stroke-linecap: round; stroke-linejoin: round; stroke-width: 4px;"/>
    </g>
    <g>
      <path d="m310.5,657.18c2.75-.96,5.67-1.42,8.57-1.34" style="fill: none; stroke: #000; stroke-linecap: round; stroke-linejoin: round; stroke-width: 4px;"/>
      <path d="m315.25,657.45c-.81,5.18-1,10.46-.56,15.68" style="fill: none; stroke: #000; stroke-linecap: round; stroke-linejoin: round; stroke-width: 4px;"/>
      <path d="m328.88,656.98c.33,5.51.49,11.03.48,16.55,1.68-.46,3.35-.91,5.03-1.37" style="fill: none; stroke: #000; stroke-linecap: round; stroke-linejoin: round; stroke-width: 4px;"/>
      <path d="m330.72,665.85c1.64-.68,3.44-.96,5.21-.8" style="fill: none; stroke: #000; stroke-linecap: round; stroke-linejoin: round; stroke-width: 4px;"/>
      <path d="m330.27,657.48c1.93-.62,3.99-.77,5.98-.44" style="fill: none; stroke: #000; stroke-linecap: round; stroke-linejoin: round; stroke-width: 4px;"/>
      <path d="m356.78,659.82c-1.25-1.22-1.72-3.61-3.43-3.74-.81-.06-1.58.5-2.01,1.22-.43.71-.61,1.56-.77,2.39-.61,3.12-1.23,6.28-1.08,9.46.07,1.55.48,3.31,1.81,4.02.97.52,2.21.28,3.06-.43.85-.71,1.31-1.82,1.42-2.94" style="fill: none; stroke: #000; stroke-linecap: round; stroke-linejoin: round; stroke-width: 4px;"/>
      <path d="m367.43,657.29c-.35,5.8-.43,11.61-.24,17.42" style="fill: none; stroke: #000; stroke-linecap: round; stroke-linejoin: round; stroke-width: 4px;"/>
      <path d="m376.52,657.62c.2,5.27.4,10.55.59,15.82" style="fill: none; stroke: #000; stroke-linecap: round; stroke-linejoin: round; stroke-width: 4px;"/>
      <path d="m368.57,666.33c2.29-.88,4.76-1.26,7.2-1.13" style="fill: none; stroke: #000; stroke-linecap: round; stroke-linejoin: round; stroke-width: 4px;"/>
      <path d="m386.23,675.34c.02-5.96.04-11.93.38-18.13,1.52,6.35,5.74,11.59,8.36,17.54" style="fill: none; stroke: #000; stroke-linecap: round; stroke-linejoin: round; stroke-width: 4px;"/>
      <path d="m395.01,658.09c.08,5.31.17,10.63.25,15.94,0,.15.03.33.16.38.13.05.23-.24.09-.22" style="fill: none; stroke: #000; stroke-linecap: round; stroke-linejoin: round; stroke-width: 4px;"/>
      <path d="m404.91,657.61c.22,6.07.15,12.15-.22,18.2-.01.22,0,.49.21.56.2.07.27-.39.08-.3" style="fill: none; stroke: #000; stroke-linecap: round; stroke-linejoin: round; stroke-width: 4px;"/>
      <path d="m423.71,662.84c-.25-2.04-.88-4.02-1.86-5.81-.13-.23-.27-.48-.51-.59-.29-.14-.63-.05-.93.07-2.09.86-3.33,3.09-4.07,5.29-1.02,3.04-1.38,6.32-1.04,9.51.13,1.28.43,2.64,1.38,3.47,1.17,1.01,3.02.83,4.23-.13,1.21-.96,1.85-2.52,2.11-4.07" style="fill: none; stroke: #000; stroke-linecap: round; stroke-linejoin: round; stroke-width: 4px;"/>
      <path d="m433.7,675.66c.26-6.23.99-12.43,2.18-18.54,1.54-.3,3.12-.39,4.69-.27.59,6.33,1.18,12.66,1.77,18.99" style="fill: none; stroke: #000; stroke-linecap: round; stroke-linejoin: round; stroke-width: 4px;"/>
      <path d="m435.93,667.13c1.19-.85,2.72-1.17,4.14-.87" style="fill: none; stroke: #000; stroke-linecap: round; stroke-linejoin: round; stroke-width: 4px;"/>
      <path d="m452.6,657.29c-.07,5.78.09,11.56.48,17.32,2.56-.83,5.3-1.05,7.96-.63" style="fill: none; stroke: #000; stroke-linecap: round; stroke-linejoin: round; stroke-width: 4px;"/>
    </g>
    <g>
      <path d="m498.29,624.25c-1.33-.8-2.89-1.62-4.36-1.11-1.14.4-1.86,1.5-2.5,2.53-.34.55-.69,1.13-.76,1.78-.15,1.33.92,2.5,2.07,3.19,1.15.69,2.47,1.13,3.43,2.06,1.71,1.65,1.71,4.73,0,6.38-1.71,1.65-4.79,1.54-6.37-.23" style="fill: none; stroke: #000; stroke-linecap: round; stroke-linejoin: round; stroke-width: 4px;"/>
      <path d="m508.66,625.1c-1.15,5.23.37,10.7-.22,16.03,1.9-.05,3.81-.1,5.71-.15.12,0,.26-.02.32-.12s-.08-.27-.16-.17" style="fill: none; stroke: #000; stroke-linecap: round; stroke-linejoin: round; stroke-width: 4px;"/>
      <path d="m509.44,632.4c2.38.32,4.8.34,7.19.04" style="fill: none; stroke: #000; stroke-linecap: round; stroke-linejoin: round; stroke-width: 4px;"/>
      <path d="m509,624.83c2.2-.51,4.49-.62,6.73-.32" style="fill: none; stroke: #000; stroke-linecap: round; stroke-linejoin: round; stroke-width: 4px;"/>
      <path d="m528.56,640.34c.13.17-.3.24-.36.03-.05-.21.09-.42.07-.64-.47-5.31-.6-10.65.36-16.1,2-.97,4.4-.59,6.49.18.94.34,1.91.82,2.37,1.7.33.63.35,1.38.21,2.07-.31,1.6-1.43,3.01-2.92,3.68-.85.38-1.78.52-2.7.6-1.2.1-2.4.09-3.6-.01" style="fill: none; stroke: #000; stroke-linecap: round; stroke-linejoin: round; stroke-width: 4px;"/>
      <path d="m534.3,632.39c.97,3.01,1.95,6.02,2.92,9.03" style="fill: none; stroke: #000; stroke-linecap: round; stroke-linejoin: round; stroke-width: 4px;"/>
      <path d="m547.24,623.19c2.43,6.04,4.53,12.21,6.3,18.47.33-3.52.97-7.02,1.9-10.43.75-2.76,1.7-5.5,1.95-8.35-.04.22-.07.44-.11.66" style="fill: none; stroke: #000; stroke-linecap: round; stroke-linejoin: round; stroke-width: 4px;"/>
      <path d="m566.97,624.54c.13,5.58.26,11.16.39,16.74" style="fill: none; stroke: #000; stroke-linecap: round; stroke-linejoin: round; stroke-width: 4px;"/>
      <path d="m586.32,628.13c-.06-.98-.12-1.98-.46-2.91-.35-.92-1.03-1.77-1.97-2.06-1.09-.34-2.31.15-3.09.99-.78.84-1.17,1.96-1.39,3.08-.37,1.88-.32,3.82-.27,5.73.04,1.54.08,3.07.12,4.61.02.78.05,1.6.41,2.29.48.91,1.43,1.44,2.34,1.92.25.13.51.27.8.26.45-.01.81-.38,1.08-.74.83-1.09,1.39-2.39,1.64-3.74" style="fill: none; stroke: #000; stroke-linecap: round; stroke-linejoin: round; stroke-width: 4px;"/>
      <path d="m596.55,624.33c.38,5.62.77,11.25,1.15,16.87,2.66-.67,5.32-1.35,7.97-2.02" style="fill: none; stroke: #000; stroke-linecap: round; stroke-linejoin: round; stroke-width: 4px;"/>
      <path d="m598.43,632.74c1.7-.07,3.4-.25,5.08-.53" style="fill: none; stroke: #000; stroke-linecap: round; stroke-linejoin: round; stroke-width: 4px;"/>
      <path d="m596.85,624.63c2.29-.29,4.58-.57,6.87-.86.16-.02.37,0,.41.14.05.15-.3.15-.2.03" style="fill: none; stroke: #000; stroke-linecap: round; stroke-linejoin: round; stroke-width: 4px;"/>
      <path d="m622.75,624.38c-1.19-.82-2.48-1.68-3.92-1.65-1.23.02-2.39.71-3.13,1.69-.75.97-1.11,2.2-1.19,3.43-.06.86.03,1.78.54,2.47.86,1.16,2.52,1.28,3.79,1.97,1.59.87,2.49,2.63,2.96,4.38.13.5.24,1.02.15,1.53-.13.71-.64,1.3-1.21,1.73-.91.67-2.07,1.04-3.19.87s-2.17-.91-2.58-1.96" style="fill: none; stroke: #000; stroke-linecap: round; stroke-linejoin: round; stroke-width: 4px;"/>
    </g>
  </g>
  <g id="ampersand-wrapper">
    <g id="ampersand">
      <path d="m298.71,617.81c-2.76-1.06-4.59-4.12-4.23-7.05s2.9-5.44,5.84-5.79c-1.9-6.2,4.26-13.33,10.67-12.34,2.37-6.02,11.41-7.98,16.06-3.48,1.33-1.71,3.9-2.32,5.86-1.38s3.09,3.33,2.58,5.44c2.4-1.35,5.64-.99,7.68.86s2.72,5.04,1.61,7.56c3.02.03,5.91,2.18,6.8,5.07.89,2.89-.27,6.29-2.75,8.02,2.51,1.62,3.83,4.88,3.17,7.79s-3.27,5.27-6.23,5.65c1.82,2.08,1.74,5.56-.17,7.55-1.92,1.99-5.39,2.21-7.54.47,1.39,2.61.35,6.23-2.21,7.7s-6.21.56-7.77-1.94c0,3.67-3.82,6.83-7.42,6.15s-6.02-5-4.7-8.42c-1.1,3.74-6.1,5.7-9.45,3.7s-3.99-7.34-1.21-10.08c-2.51,2.89-7.8,2.51-9.87-.71-2.07-3.21-.23-8.19,3.43-9.29-1.33,1.55-4.06-.65-3.61-2.65s2.47-3.16,3.5-2.83Z" style="fill: #fff; stroke: #000; stroke-linecap: round; stroke-linejoin: round; stroke-width: 5px;"/>
      <path d="m331.01,619.74c-.85,2.07-1.79,4.16-3.34,5.77s-3.83,2.69-6.02,2.26c-2.7-.54-4.58-3.37-4.55-6.12s1.68-5.32,3.87-7c2.03-1.56,4.49-2.47,6.58-3.95s3.88-3.87,3.51-6.4c-.31-2.09-2.12-3.78-4.18-4.24s-4.27.16-5.99,1.38c-1.9,1.34-3.33,3.9-2.28,5.97.49.97,1.42,1.63,2.32,2.24,5.98,4.12,11.96,8.25,17.94,12.37" style="fill: none; stroke: #000; stroke-linecap: round; stroke-linejoin: round; stroke-width: 5px;"/>
    </g>
  </g>
  <g id="script-bill">
    <path id="script-bill-dot" d="m274.94,79.07c4.14-3.65,7.15-8.55,8.54-13.89.35-1.36.55-2.97-.37-4.03-1.81-2.08-5.32.44-5.83,3.15-.68,3.57,1.22,7.48,4.44,9.16s7.51.99,10.05-1.62" style="fill: none; stroke: #000; stroke-linecap: round; stroke-linejoin: round; stroke-width: 6px;"/>
    <path id="script-bill-ill" d="m272.11,146.94c9.72-17.2,15.29-36.73,16.1-56.47,2.51,4.49,2.62,9.88,2.71,15.03s.29,10.55,2.93,14.97,8.61,7.29,13.11,4.79c3.09-1.72,5.23-6.38,6.43-9.71,10.73-25.25,19.18-52.84,23.81-79.87.58-3.36,1.09-6.9-.06-10.11-1.15-3.21-4.54-5.89-7.84-5.03-3.73.97-5.14,5.43-5.88,9.22-4.07,20.8-6.68,41.88-7.81,63.04-.28,5.25-.45,10.63,1.22,15.61s5.57,9.54,10.73,10.52,9.65-3.75,13.19-9.76c10.73-25.25,19.52-53.79,24.15-80.83.58-3.36,1.09-6.9-.06-10.11s-4.54-5.89-7.84-5.03c-3.73.97-5.14,5.43-5.88,9.22-4.07,20.8-6.68,41.88-7.81,63.04-.28,5.25-.45,10.63,1.22,15.61s5.57,9.54,10.73,10.52c5.16.98,11.15-2.83,11.23-8.08" style="fill: none; stroke: #000; stroke-linecap: round; stroke-linejoin: round; stroke-width: 6px;"/>
    <path id="script-bill-b" d="m184.58,93.32c14.1-4.97,25.92-16.06,31.76-29.82-1.77,24.8-5.82,49.44-12.09,73.5-2.52,9.65-5.49,19.41-11.31,27.5-5.83,8.09-15.04,14.35-25.01,14.23-13.15-.16-23.89-11.11-29.51-23-11.54-24.41-7.27-54.46,7.11-77.31,14.38-22.85,37.69-39.03,62.76-49.06,13.25-5.3,30.43-8.22,40.1,2.27,8.8,9.55,6.03,25.17-.73,36.26-7.98,13.08-20.76,23.16-35.34,27.88,6.58-7.41,13.45-15.04,22.5-19.09s20.95-3.52,27.49,3.93c4.9,5.58,5.77,13.59,5.6,21.02-.48,21.65-7.97,43.1-21.09,60.33-7.01,9.2-15.87,17.4-26.72,21.39s-23.93,3.13-32.91-4.16-12.25-21.56-5.62-31.03" style="fill: none; stroke: #000; stroke-linecap: round; stroke-linejoin: round; stroke-width: 6px;"/>
  </g>
  <g id="smoke-letters">
    <path id="smoke-letter-e2" d="m799.32,428.2c-.33.8-1.18,1.35-2.04,1.32s-1.68-.62-1.97-1.43c-1.22,1.31-2.97,2.12-4.76,2.18s-3.6-.62-4.9-1.84c-1.72,1.69-5.07,1.54-7.12-.29-1.71,2.04-5.35,1.91-6.91-.24-1.92,1.16-4.46,1.23-6.43.17-1.84,1.47-4.57,1.72-7.36.74,1.39,1.86,1.16,4.74-.5,6.36,1.13.69,1.86,2,1.86,3.33s-.74,2.63-1.87,3.32c1.97,2.09,1.9,5.75-.14,7.77,1.13.49,1.34,2.31-.21,3.73,2.76-2.58,7.5-2.64,10.33-.14,2.18-2.62,6.75-2.7,9.02-.15,2.12-2.37,6.3-2.41,8.47-.09,1.88-2.09,5.56-2.15,8.09.07,1.45-1.39,3.71-1.84,5.58-1.12.69.27,1.33.68,2.05.85.82.2,1.68.06,2.52.02s1.75.02,2.42.54.93,1.62.33,2.21c1.21-.46,2.73.28,3.12,1.51s-.43,2.71-1.68,3.03c1.09,1.01,1.26,2.86.38,4.05s-2.7,1.57-3.99.82c-.24,1.28-1.42,2.33-2.72,2.42s-2.61-.79-3.02-2.03c-.59,1.54-2.11,2.67-3.75,2.79s-3.31-.78-4.12-2.21l-.4,1.57c-.21.95-1.08,1.72-2.04,1.81s-1.96-.5-2.34-1.4c-1.62,1.46-4.59.89-5.55-1.07-.83,1.43-2.46,2.36-4.11,2.37s-3.28-.92-4.12-2.35c-.55,1.35-1.94,2.31-3.39,2.35s-2.89-.86-3.5-2.18c-1.46,2.13-5.01,2.34-7.13.66,2.07,1.23,2.52,4.49.86,6.24,1.29.44,2.2,1.79,2.15,3.15s-1.08,2.62-2.4,2.96c1.28.23,2.32,1.44,2.34,2.74s-.96,2.56-2.23,2.84c.91.26,1.62,1.13,1.69,2.08s-.49,1.91-1.36,2.31c1.72.99,1.76,3.92.1,5.48.76-1.68,2.66-2.76,4.49-2.57s3.46,1.65,3.85,3.45c.31-1.17,1.51-2.03,2.72-1.95s2.29,1.08,2.45,2.28c.66-1.25,2.01-2.12,3.43-2.19s2.85.64,3.64,1.82c.27-1.27,1.55-2.24,2.84-2.16s2.45,1.2,2.56,2.49c.44-1.37,1.72-2.44,3.15-2.62s2.93.54,3.7,1.76c.36-1.03,1.43-1.77,2.52-1.75s2.13.81,2.44,1.86c.8-1.3,2.31-2.12,3.84-2.1s3.01.9,3.76,2.23c.35-1.02,1.49-1.7,2.55-1.52s1.92,1.2,1.91,2.28c.77-.25,1.57-.51,2.38-.41s1.62.66,1.72,1.46-.81,1.63-1.53,1.25c1-.44,2.32.15,2.65,1.19s-.39,2.29-1.46,2.52c1.02.66,1.44,2.1.94,3.21s-1.86,1.74-2.78.99c-.13,1.04-.27,2.12-.87,2.98s-1.8,1.4-2.72.9c-.44-.24-.93-.69-1.36-.43-.2.12-.29.37-.39.58-.4.78-1.29,1.29-2.16,1.22s-1.68-.69-1.96-1.53l-1.89-.66c-.19.7-.99,1.16-1.69.97s-1.16-.99-.98-1.69c-.58,1.35-2.02,2.29-3.49,2.26s-2.88-1.01-3.41-2.38c-.74,1.58-2.36,2.72-4.09,2.89s-3.54-.63-4.58-2.04c-1.04,1.51-2.82,2.48-4.65,2.53s-3.66-.82-4.78-2.27c-1.32,1.36-3.26,2.1-5.15,1.94s-3.69-1.19-4.77-2.75c-.86,1.85-2.56,2.85-4.29,2.82s-3.41-1.07-4.19-2.61c-1.57,1.51-3.97,2.2-6.03,1.48s-3.55-2.97-3.14-5.11c-1.16,1.05-3.01,0-3.46-1.52s.27-3.2,1.45-4.25c-2.62-.85-4.35-3.84-3.78-6.54.14-.65.4-1.28.86-1.75s1.14-.76,1.79-.63c-1.76-.55-2.74-2-2.66-3.46s1.2-2.8,2.62-3.13c-1.12.31-2.38-.41-2.83-1.48s-.16-2.37.58-3.26,1.87-1.41,3.02-1.58c-1.57-.5-2.78-1.96-2.97-3.59s.66-3.34,2.07-4.18c-1.44-.55-1.86-1.97-1.52-3.05s1.21-1.91,2.04-2.69c-1.22.04-2.18-1.25-2.16-2.47s.78-2.32,1.66-3.17c-2.2-.07-4.16-2.04-4.22-4.24s1.8-4.27,3.99-4.46c-.52-1.18-1.28-2.27-1.37-3.44s.52-2.35,1.51-2.98c-1.46.19-2.96-.65-3.67-1.93s-.68-2.92-.05-4.24,1.82-2.35,3.17-2.93l.33-1.12c-1.13-.95-1.76-2.46-1.64-3.94s.97-2.87,2.23-3.63c-1.18-1.25-1.64-3.15-1.15-4.8s1.9-2.99,3.57-3.4c.29-1.45,1.3-2.73,2.64-3.35s2.97-.55,4.62.17c.9-1.36,2.47-2.25,4.1-2.31s3.27.69,4.27,1.97c2.33-1.85,5.89-1.93,8.31-.2,2.33-1.98,6.25-1.67,8.24.65,2.23-2.34,6.38-2.45,8.84.27,2.9-2.9,8.07-3.1,11.18-.43,1.63-2.13,5.26-2.28,7.05-.28,1.46-.5,3.01-1,4.52-.69s2.9,1.78,2.55,3.28c1.41.19,2.63,1.34,2.9,2.74s-.45,2.92-1.69,3.61c.31,1.14-.08,2.44-.96,3.23s-2.22,1.02-3.32.59c-.54,1.06-1.6,1.84-2.78,2.04s-2.43-.2-3.28-1.04" style="fill: #fff; stroke: #000; stroke-linecap: round; stroke-linejoin: round; stroke-width: 5px;"/>
    <path id="smoke-letter-r" d="m721.01,283.14c-.06-.78-.46-1.51-1.05-2.01-.44-.37-.6-.95-.39-1.49.35-.91.26-2-.3-2.81-.39-.56-.98-.95-1.63-1.14-.67-.2-1-.95-.78-1.62.26-.81.24-1.7-.1-2.48-.44-.99-1.4-1.71-2.45-1.95-.65-.15-1-.82-.88-1.47.22-1.19,0-2.48-.64-3.51-.64-1.03-1.7-1.78-2.87-2.1-.64-.18-1.09-.79-.91-1.43.28-1.03.13-2.18-.46-3.07-.57-.85-1.53-1.41-2.54-1.56-.66-.1-1.12-.7-1.04-1.36.1-.88-.1-1.79-.6-2.52-.58-.84-1.55-1.4-2.56-1.54-.57-.08-1.03-.49-1.1-1.06-.15-1.25-.86-2.43-1.93-3.11-.48-.31-1.03-.5-1.59-.58.25-.07.49-.14.73-.25.83-.38,1.5-1.06,1.91-1.87.29-.59.94-.89,1.57-.69,1.02.34,2.17.31,3.16-.13,1.11-.5,1.98-1.5,2.36-2.66.16-.5.67-.79,1.2-.81,2.23-.07,4.37-1.79,4.91-3.95.12-.49.48-.89.98-.96.87-.13,1.68-.61,2.18-1.34.49-.73.64-1.67.43-2.53-.12-.48,0-.96.36-1.3,1.44-1.38,1.9-3.72,1.11-5.55-.2-.46-.2-1.01.12-1.4.97-1.16.9-3.14-.1-4.27-.41-.46-.46-1.13-.09-1.63.51-.68.92-1.43.96-2.27.04-.71-.35-1.46-.91-1.88-.44-.34-.59-.97-.33-1.47.38-.74.5-1.62.26-2.42-.33-1.09-1.28-1.95-2.38-2.22-.47-.11-.85-.44-.98-.91-.09-.32-.05-.67.13-.95.52-.82.5-1.97-.1-2.75-.35-.45-.86-.74-1.42-.85-.62-.12-1.04-.61-1.08-1.24-.03-.44-.21-.88-.54-1.18-.41-.38-.99-.51-1.54-.42-.58.09-1.13-.3-1.33-.86-.33-.87-.99-1.63-1.85-2-.81-.36-1.76-.37-2.6-.08-.63.22-1.28-.09-1.53-.71-.51-1.26-1.87-2.25-3.27-2.39-1.57-.15-3.1.48-4.43,1.38-.49.33-1.16.25-1.57-.18-1.05-1.07-2.78-1.24-3.98-.53-.51.3-1.18.17-1.55-.29-.59-.73-1.47-1.24-2.41-1.33-1.03-.1-2.08.29-2.83,1.01-.39.37-.98.5-1.44.23-1.33-.76-3.15-.64-4.39.26-.48.35-1.11.3-1.55-.1-.6-.56-1.4-.9-2.23-.9-.78,0-1.54.3-2.12.81-.5.43-1.22.35-1.69-.11-.83-.8-1.97-1.28-3.12-1.27-1.27.01-2.51.63-3.33,1.59-.4.47-1.07.53-1.61.23-2.4-1.38-5.7-1.11-7.83.66-.42.35-1.01.35-1.48.06-1.11-.69-2.51-.76-3.77-.37-1.41.43-2.63,1.41-3.38,2.67-.17.29-.47.49-.8.54-1.43.24-2.73,1.22-3.3,2.56-.65,1.5-.34,3.36.75,4.58l-.73,2.1c-1.29.36-2.23,1.72-2.11,3.05.12,1.34,1.29,2.5,2.63,2.62-1.23.59-2.04,1.97-1.95,3.33.09,1.36,1.07,2.62,2.37,3.05-1.42.54-2.46,1.98-2.52,3.49-.06,1.52.84,3.04,2.21,3.7-1.46.75-2.42,2.38-2.37,4.02.05,1.64,1.1,3.21,2.82,3.88-1.62.56-2.75,2.28-2.63,3.98s1.5,3.24,3.18,3.56c-1.63.49-2.85,2.1-2.89,3.8-.05,1.7,1.09,3.37,2.69,3.95-1.31.66-2.19,2.1-2.17,3.57.02,1.47.93,2.89,2.25,3.51-1.34.64-2.32,1.99-2.51,3.46-.19,1.47.42,3.02,1.56,3.98-2.35,2.24-2.67,6.3.49,8.72-1.5.43-2.61,1.96-2.54,3.52s1.3,2.99,2.83,3.29c-1.02.32-1.62,1.44-1.63,2.51s.44,2.08.93,3.03c.27.52.61,1.07,1.16,1.24.18.05.38.03.56-.05-.34.82-.4,1.75-.14,2.6.36,1.17,1.31,2.13,3,2.19-.19,1.61,1.37,3.19,2.98,3.01,1.61-.17,2.8-2.05,2.27-3.58.56,1.42,2.63,1.97,3.82,1.01,1.19-.96,1.1-3.09-.17-3.95,1.42.7,3.35.02,4.02-1.42.67-1.44-.06-3.35-1.51-3.99,1.41-.12,2.65-1.37,2.76-2.78.11-1.42-.91-2.84-2.29-3.18,1.47-.55,2.54-2.03,2.6-3.6.06-1.57-.91-3.12-2.33-3.77,1.64-.54,2.86-2.16,2.92-3.89s-1.04-3.43-2.64-4.09c1.87-1.14,1.91-4.32.07-5.51,1.67-.48,2.37-2.92,1.2-4.21l-.2-2.73c.48,1.08,1.64,1.83,2.83,1.81.71,0,1.41-.29,1.95-.75.48-.41,1.18-.42,1.65,0,.88.78,2.18,1.1,3.3.71.54-.19,1.04-.52,1.61-.58,1.34-.14,2.3,1.19,3.42,1.94,1.09.73,2.52.88,3.77.49.79-.24,1.57.35,1.6,1.17.05,1.27.46,2.29,1.19,3.01.65.63,1.53,1,2.43,1.08.74.06,1.24.76,1.1,1.49-.15.8-.05,1.66.32,2.39.48.95,1.4,1.64,2.43,1.9.6.15.97.71.85,1.31-.16.84,0,1.74.46,2.46.45.69,1.17,1.18,1.96,1.39.64.17,1.01.83.87,1.48-.3,1.42.03,2.98.93,4.12.88,1.1,2.25,1.76,3.65,1.83.71.04,1.31.6,1.25,1.31-.2,2.2,1.12,4.56,3.14,5.43.52.22.84.72.82,1.29-.08,2.37,1.68,4.73,3.97,5.33.49.13.88.49.97.99.16.9.78,1.72,1.62,2.08.74.31,1.61.25,2.32-.11.5-.25,1.11-.08,1.49.34.51.56,1.27.9,2.03.83.79-.07,1.5-.57,1.9-1.24.28-.47.83-.75,1.36-.64.87.18,1.83-.06,2.47-.68.72-.7.96-1.83.66-2.78-.13-.41,0-.88.31-1.18.64-.6,1.01-1.5.94-2.38Zm-30.96-50.3c-.85-.83-2.19-1.1-3.3-.67s-1.91,1.54-1.97,2.73c-.38-1.26-1.72-2.16-3.04-2.03s-2.46,1.27-2.59,2.58c-.28-1.39-1.61-2.5-3.03-2.51s-2.78,1.06-3.09,2.44c-.45-1.31-1.77-2.28-3.16-2.32s-2.76.84-3.29,2.13c-.69-1.25-2.06-2.1-3.49-2.16s-2.86.68-3.65,1.88c1.77-1.95,1.85-4.95.13-6.09,1.74-1.67,1.49-4.92-.48-6.31.93-.6,1.51-1.71,1.48-2.82-.04-1.11-.69-2.18-1.65-2.72.66-.77,1.34-1.62,1.42-2.63s-.82-2.13-1.8-1.88c1.78-.59,2.42-3.24.95-4.52,1.46.46,3,.7,4.53.68,1.15,0,2.56-.37,2.83-1.49,2.37,1.32,5.55,1.01,7.61-.76.79,1.46,2.65,2.06,4.3,1.86s3.14-1.04,4.81-.81c.72,1.02,1.95,1.67,3.2,1.68,1.25.02,2.49-.6,3.24-1.6-.09,2.66,2.83,4.69,5.22,3.84-1.23.87-1.72,2.65-1.1,4.03s2.28,2.19,3.75,1.85c-1.22.73-1.93,2.21-1.75,3.61.18,1.41,1.26,2.65,2.62,3.05-1.37.02-2.7.86-3.32,2.08s-.5,2.79.29,3.91c-2.23-1.11-5.32.51-5.67,2.98Z" style="fill: #fff; stroke: #000; stroke-linecap: round; stroke-linejoin: round; stroke-width: 5px;"/>
    <path id="smoke-letter-a" d="m654.83,160.32c.9-2.66-.33-5.87-2.77-7.25.39-4.09-1.15-7.65-3.88-9.78,1.88-3.81.06-9-3.79-10.81,2.16-4.14.72-9.8-3.15-12.42,1.05-4.37-1.47-9.31-5.62-11.03,1.12-2.83.14-6.28-2.26-8.01,1.92-3.12.12-7.84-3.38-8.9.69-3.19-.9-6.74-3.74-8.35.91-1.83.45-4.23-1.07-5.59-1.52-1.36-3.96-1.55-5.68-.45.7-.28.93-1.51.45-2.3-.48-.79-1.42-1.18-2.33-1.32-2.3-.38-4.77.54-6.28,2.32-2.04-.54-4.32-.03-5.93,1.33-1.61,1.36-2.5,3.52-2.32,5.62-1.95.26-3.74,1.56-4.58,3.34s-.73,3.98.3,5.66c-3.47.87-5.28,5.6-3.28,8.57-3.52.93-5.6,5.38-4.06,8.67-3.84,1.55-6,6.35-4.64,10.25l.56,1.01c-2.12.2-4.11,1.55-5.06,3.46-.96,1.91-.86,4.3.24,6.13-1.84.43-3.4,1.91-3.92,3.72-.52,1.82.02,3.9,1.36,5.23-3.5,1.21-5.53,5.56-4.21,9.02-1.8.11-3.49,1.3-4.2,2.96s-.39,3.7.78,5.07c-1.64.31-3.05,1.58-3.54,3.17-.49,1.59-.03,3.44,1.15,4.61-1.71.7-2.65,2.85-2,4.58.65,1.73,2.78,2.73,4.52,2.13l1.41,1.74c1.2,1.27,3.01,1.94,4.75,1.76,1.74-.18,3.37-1.21,4.28-2.7,1.72.18,3.52-.69,4.44-2.16s.92-3.46.01-4.94c2.48-.92,3.54-4.44,1.97-6.58,2.71-1.07,4.7-3.79,4.88-6.7-.34-.11-.68-.21-1.02-.32l.27-1.76c2.63,1.97,6.7,1.65,8.99-.7,2.13,1.89,5.7,1.83,7.78-.12,2.33,1.62,5.67,1.63,8.01.03,2,1.77,5.48,1.44,7.12-.67,1.97,1.86,5.19,2.24,7.53.88l.88,1.03c-.91.37-1.54,1.36-1.47,2.34s.81,1.88,1.77,2.13c-.89,1.22-1.03,2.95-.35,4.3.68,1.35,2.16,2.26,3.67,2.27-1.06,1.31-1.25,3.26-.45,4.74.8,1.48,2.54,2.4,4.21,2.23-.62,1.63-.08,3.63,1.29,4.7s3.43,1.15,4.86.17c-.49.61-.09,1.58.58,1.97s1.5.34,2.28.28c1-.09,2.05-.22,2.88-.8.82-.58,1.32-1.75.82-2.63,1.92-1.06,3.26-3.12,3.44-5.31.18-2.19-.8-4.44-2.52-5.8Zm-30.99-25.05c-.98-1.32-2.62-2.12-4.26-2.09-1.64.03-3.25.88-4.19,2.23.01-.37.03-.74.04-1.11-1.99-1.34-5.02-.74-6.34,1.26-1.09-1.73-3.02-2.91-5.06-3.09-1.51-.13-3.05.29-4.31,1.13-.35.4-.74.76-1.21,1.04.36-.4.77-.74,1.21-1.04,1.54-1.76,1.81-4.45.51-6.31,2.31-1.47,3.05-4.94,1.54-7.23,2.71-.61,4.1-4.36,2.43-6.58,2.74-.75,3.93-4.72,2.05-6.85,2.69-.22,4.37-3.87,2.77-6.05,1.8.18,3.45-1.25,4.06-3.11-.22-.81-.19-1.69.14-2.47.19.84.11,1.69-.14,2.47.15.57.42,1.1.81,1.54.95,1.07,2.53,1.53,3.9,1.14-1.12.89-1.69,2.42-1.42,3.83s1.36,2.62,2.73,3.04c-1.02.98-1.39,2.57-.92,3.91.47,1.33,1.76,2.34,3.17,2.47-1.21.9-1.65,2.7-.98,4.06s2.36,2.11,3.81,1.7c-1.22.85-1.89,2.42-1.66,3.89.23,1.47,1.34,2.76,2.75,3.21-1.29,1.91.41,4.98,2.71,4.89-1.24,1.01-.89,3.33.59,3.93-1.17-.76-3.34-.88-4.72.2Z" style="fill: #fff; stroke: #000; stroke-linecap: round; stroke-linejoin: round; stroke-width: 5px;"/>
    <path id="smoke-letter-c" d="m769.87,380.29c.41-.36,1.1-.13,1.39.33s.26,1.05.16,1.58c-.55,2.93-3.28,5.3-6.26,5.43.32,1.88-.33,3.9-1.69,5.23s-3.39,1.95-5.26,1.59c-1.53,4.61-7.33,7.26-11.82,5.38.31.89-1.32,2.66-3.32,3.15s-4.26-.32-5.5-1.97c-1.15,1.44-3.02,2.28-4.86,2.2s-3.62-1.1-4.64-2.64c-1.87.43-3.43,1.4-4.99,1.21s-2.91-1.8-2.54-3.34c-.34.83-1.26,1.31-2.16,1.39s-1.78-.18-2.65-.43c-.97-.28-1.96-.57-2.77-1.18s-1.41-1.59-1.27-2.59c-1.19,1.19-3.14,1.53-4.66.81s-2.49-2.45-2.32-4.12c-2.06.45-3.46-.42-4.21-1.7s-.81-2.93-.18-4.26c-.37.61-1.27.7-1.91.39s-1.08-.92-1.49-1.51c-.57-.81-1.16-1.65-1.36-2.62s.08-2.11.93-2.63c-1.92.14-3.87-.97-4.73-2.69s-.59-3.95.67-5.4c-2.45-1.24-3.6-2.68-3.76-4.26s.65-3.23,2.01-4.05c-1.36-.61-2.38-1.94-2.62-3.41s.32-3.05,1.42-4.06c-1.57-.71-2.63-2.41-2.6-4.13s1.16-3.37,2.76-4.03c-1.73-.84-2.86-2.79-2.71-4.71s1.56-3.67,3.41-4.23l.29-1.75c-1.34-3.46.57-7.83,4.01-9.21-.63-4.17,2.75-8.52,6.95-8.92.03-3.55,3.36-6.74,7.33-6.17.5-2.21,1.89-4.21,3.79-5.46s4.29-1.72,6.52-1.29c2.42-2.89,7.1-3.56,10.22-.5,1.42-1.28,2.92-2.61,4.78-3.07s4.16.28,4.79,2.09c1.41-1.22,3.38-1.76,5.22-1.44s3.51,1.5,4.42,3.12c1.24-1.3,3.42-1.57,4.94-.63s2.24,3.02,1.57,6.16c1.56-1.69,4.33-2.12,6.33-.97s3.02,3.75,2.34,5.96c1.4-1.03,3.56-.85,4.77.4s1.32,3.41.25,4.78c1.37-.45,3.01.21,3.68,1.49s.27,3.01-.88,3.87c1.55-.28,3.18,1.03,3.25,2.6s-1.46,3.01-3.8,3.37c1.2.82,2.06,2.33,1.69,3.74s-2.29,2.29-3.41,1.36c.23,1.28-1.03,2.59-2.32,2.42s-2.15-1.78-1.59-2.95c-.37.97-1.16,1.8-2.16,2.1s-2.18-.03-2.79-.87-.48-2.17.34-2.79c-.99,1.32-3.2,1.46-4.36.27s-.95-3.39.4-4.35c-.1.07-.2.14-.31.2l-1.1-1.03c-1.84-.28-2.72-2.97-1.41-4.29-1.47.92-3.58.64-4.76-.64s-1.31-3.39-.29-4.8c-3.01,1.81-7.53-.06-8.39-3.46-2.22,1.94-5.85,2.01-8.14.15-2.06,2.3-5.63,3.11-8.48,1.93-1.13,2.95-4.35,4.63-7.04,3.79.26,2.82-2.12,5.62-4.95,5.81.77,2.84-.6,6.12-3.16,7.56,1.5,2.53.85,6.13-1.46,7.97,1.84,2.51.7,6.62-2.72,8.28,1.44.3,2.67,1.45,3.07,2.87s-.07,3.04-1.15,4.04c1.55.4,2.81,1.74,3.13,3.3s-.34,3.29-1.61,4.25c1.65.34,3.06,1.64,3.55,3.25s.03,3.48-1.16,4.67c.88-1.2,2.97-.57,3.64.75s.37,2.91.06,4.36c1.31-.95,3.28-.87,4.5.19s1.59,2.99.84,4.43c1.25-1.48,3.55-1.94,5.28-1.07s2.73,2.99,2.29,4.88c2.45-3.02,7.29-3.75,10.52-1.58.27-1.55,1.53-2.87,3.06-3.23s3.24.27,4.94,1.5c-.64-1.95-.03-4.24,1.48-5.62s3.86-1.75,5.74-.93c-1.1-1.35-1.28-3.37-.45-4.89s2.63-2.46,4.36-2.27c-.66-1.83-.84-3.99.19-5.63s3.59-2.36,5-1.01c.02-1.12.38-2.28,1.16-3.08s2.06-1.17,3.09-.71,1.61,1.82,1.04,3.69c1.95-1.32,4.94-.67,6.16,1.34s.43,4.97-1.64,6.09c.76.84,1.06,2.06.78,3.16s-1.13,2.02-2.19,2.4" style="fill: #fff; stroke: #000; stroke-linecap: round; stroke-linejoin: round; stroke-width: 5px;"/>
    <path id="smoke-letter-e1" d="m556.84,35.28c-.33.8-1.18,1.35-2.04,1.32s-1.68-.62-1.97-1.43c-1.22,1.31-2.97,2.12-4.76,2.18s-3.6-.62-4.9-1.84c-1.72,1.69-5.07,1.54-7.12-.29-1.71,2.04-5.35,1.91-6.91-.24-1.92,1.16-4.46,1.23-6.43.17-1.84,1.47-4.57,1.72-7.36.74,1.39,1.86,1.16,4.74-.5,6.36,1.13.69,1.86,2,1.86,3.33s-.74,2.63-1.87,3.32c1.97,2.09,1.9,5.75-.14,7.77,1.13.49,1.34,2.31-.21,3.73,2.76-2.58,7.5-2.64,10.33-.14,2.18-2.62,6.75-2.7,9.02-.15,2.12-2.37,6.3-2.41,8.47-.09,1.88-2.09,5.56-2.15,8.09.07,1.45-1.39,3.71-1.84,5.58-1.12.69.27,1.33.68,2.05.85.82.2,1.68.06,2.52.02s1.75.02,2.42.54.93,1.62.33,2.21c1.21-.46,2.73.28,3.12,1.51s-.43,2.71-1.68,3.03c1.09,1.01,1.26,2.86.38,4.05s-2.7,1.57-3.99.82c-.24,1.28-1.42,2.33-2.72,2.42s-2.61-.79-3.02-2.03c-.59,1.54-2.11,2.67-3.75,2.79s-3.31-.78-4.12-2.21l-.4,1.57c-.21.95-1.08,1.72-2.04,1.81s-1.96-.5-2.34-1.4c-1.62,1.46-4.59.89-5.55-1.07-.83,1.43-2.46,2.36-4.11,2.37s-3.28-.92-4.12-2.35c-.55,1.35-1.94,2.31-3.39,2.35s-2.89-.86-3.5-2.18c-1.46,2.13-5.01,2.34-7.13.66,2.07,1.23,2.52,4.49.86,6.24,1.29.44,2.2,1.79,2.15,3.15s-1.08,2.62-2.4,2.96c1.28.23,2.32,1.44,2.34,2.74s-.96,2.56-2.23,2.84c.91.26,1.62,1.13,1.69,2.08s-.49,1.91-1.36,2.31c1.72.99,1.76,3.92.1,5.48.76-1.68,2.66-2.76,4.49-2.57s3.46,1.65,3.85,3.45c.31-1.17,1.51-2.03,2.72-1.95s2.29,1.08,2.45,2.28c.66-1.25,2.01-2.12,3.43-2.19s2.85.64,3.64,1.82c.27-1.27,1.55-2.24,2.84-2.16s2.45,1.2,2.56,2.49c.44-1.37,1.72-2.44,3.15-2.62s2.93.54,3.7,1.76c.36-1.03,1.43-1.77,2.52-1.75s2.13.81,2.44,1.86c.8-1.3,2.31-2.12,3.84-2.1s3.01.9,3.76,2.23c.35-1.02,1.49-1.7,2.55-1.52s1.92,1.2,1.91,2.28c.77-.25,1.57-.51,2.38-.41s1.62.66,1.72,1.46-.81,1.63-1.53,1.25c1-.44,2.32.15,2.65,1.19s-.39,2.29-1.46,2.52c1.02.66,1.44,2.1.94,3.21s-1.86,1.74-2.78.99c-.13,1.04-.27,2.12-.87,2.98s-1.8,1.4-2.72.9c-.44-.24-.93-.69-1.36-.43-.2.12-.29.37-.39.58-.4.78-1.29,1.29-2.16,1.22s-1.68-.69-1.96-1.53l-1.89-.66c-.19.7-.99,1.16-1.69.97s-1.16-.99-.98-1.69c-.58,1.35-2.02,2.29-3.49,2.26s-2.88-1.01-3.41-2.38c-.74,1.58-2.36,2.72-4.09,2.89s-3.54-.63-4.58-2.04c-1.04,1.51-2.82,2.48-4.65,2.53s-3.66-.82-4.78-2.27c-1.32,1.36-3.26,2.1-5.15,1.94s-3.69-1.19-4.77-2.75c-.86,1.85-2.56,2.85-4.29,2.82s-3.41-1.07-4.19-2.61c-1.57,1.51-3.97,2.2-6.03,1.48s-3.55-2.97-3.14-5.11c-1.16,1.05-3.01,0-3.46-1.52s.27-3.2,1.45-4.25c-2.62-.85-4.35-3.84-3.78-6.54.14-.65.4-1.28.86-1.75s1.14-.76,1.79-.63c-1.76-.55-2.74-2-2.66-3.46s1.2-2.8,2.62-3.13c-1.12.31-2.38-.41-2.83-1.48s-.16-2.37.58-3.26,1.87-1.41,3.02-1.58c-1.57-.5-2.78-1.96-2.97-3.59s.66-3.34,2.07-4.18c-1.44-.55-1.86-1.97-1.52-3.05s1.21-1.91,2.04-2.69c-1.22.04-2.18-1.25-2.16-2.47s.78-2.32,1.66-3.17c-2.2-.07-4.16-2.04-4.22-4.24s1.8-4.27,3.99-4.46c-.52-1.18-1.28-2.27-1.37-3.44s.52-2.35,1.51-2.98c-1.46.19-2.96-.65-3.67-1.93s-.68-2.92-.05-4.24,1.82-2.35,3.17-2.93l.33-1.12c-1.13-.95-1.76-2.46-1.64-3.94s.97-2.87,2.23-3.63c-1.18-1.25-1.64-3.15-1.15-4.8s1.9-2.99,3.57-3.4c.29-1.45,1.3-2.73,2.64-3.35s2.97-.55,4.62.17c.9-1.36,2.47-2.25,4.1-2.31s3.27.69,4.27,1.97c2.33-1.85,5.89-1.93,8.31-.2,2.33-1.98,6.25-1.67,8.24.65,2.23-2.34,6.38-2.45,8.84.27,2.9-2.9,8.07-3.1,11.18-.43,1.63-2.13,5.26-2.28,7.05-.28,1.46-.5,3.01-1,4.52-.69s2.9,1.78,2.55,3.28c1.41.19,2.63,1.34,2.9,2.74s-.45,2.92-1.69,3.61c.31,1.14-.08,2.44-.96,3.23s-2.22,1.02-3.32.59c-.54,1.06-1.6,1.84-2.78,2.04s-2.43-.2-3.28-1.04" style="fill: #fff; stroke: #000; stroke-linecap: round; stroke-linejoin: round; stroke-width: 5px;"/>
    <path id="smoke-letter-p" d="m475.44,47.73c1.02-.08,1.86-1.11,1.73-2.13-.11-.87-.93-1.57-1.79-1.64.64-.11,1.21-.6,1.36-1.23.18-.77-.75-1.4-1.49-1.67,2.3-1.75,1.72-5.56-.68-7.18,1.26-2-.13-5.08-2.46-5.46.58-.9.6-2.13.06-3.05s-1.63-1.5-2.7-1.43c.65-1.09.41-2.62-.54-3.46-.95-.84-2.5-.89-3.5-.12.44-.81.13-1.94-.66-2.41s-1.94-.19-2.43.59c.13-1.03-.6-2.09-1.6-2.35-1-.26-2.15.31-2.54,1.27-.78-1.77-1.8-2.64-2.95-2.78s-2.35.45-2.94,1.44c-.37-.98-1.37-1.7-2.42-1.73-1.05-.04-2.1.61-2.54,1.56-.55-1.34-1.98-2.27-3.42-2.24-1.45.03-2.83,1.01-3.34,2.37-.44-1.15-1.64-1.96-2.87-1.95-1.23.01-2.41.85-2.83,2-.54-1.67-2.32-2.85-4.07-2.68s-3.28,1.65-3.5,3.4c-.91-1.77-2.1-2.65-3.36-2.67-1.26-.02-2.49.82-2.93,2-.54-1.28-1.98-2.12-3.36-1.96-1.38.16-2.58,1.32-2.8,2.69-.86-.38-1.91-.4-2.9-.13-.99.28-1.93.91-2.36,1.85s-.22,2.19.62,2.78c-1.28.03-2.49.94-2.88,2.16s.06,2.66,1.08,3.43l1.18.36c-1-.28-2.02,1.01-1.52,1.92.08.14.18.24.3.33-.17.19-.32.4-.44.61-.5.91-.8,2.09-.22,2.96.15.22.36.38.61.47-.68.62-1.09,1.55-.94,2.47.26,1.57,2.08,2.67,3.59,2.17-.87.28-1.77.58-2.47,1.17-.7.59-1.15,1.57-.87,2.44.29.87,1.5,1.37,2.19.77-1.52.93-2.41,2.77-2.21,4.53.17,1.46,1.09,2.79,2.36,3.52-.67-.1-1.44.19-1.86.74-.62.81-.63,1.96-.28,2.92.35.96,1.01,1.77,1.66,2.56-1.95-.02-3.67,1.28-3.66,2.83.01,1.25,1.16,2.3,2.37,2.41-1.42.33-2.59,1.75-2.44,3.23.14,1.33,1.32,2.4,2.62,2.63-.97.31-1.8,1.12-1.97,2.14-.25,1.45.89,2.99,2.35,3.18-1.62.38-3.07,1.9-2.86,3.55.11.87.82,1.57,1.63,1.86-.49.35-.87.85-.97,1.45-.22,1.32.93,2.7,2.27,2.72-1.47-.03-2.85,1.21-2.98,2.67-.13,1.46,1.01,2.92,2.46,3.15-1.25.35-2.17,1.62-2.12,2.91s1.07,2.49,2.34,2.74c-1.32.49-2.18,1.77-2,2.98s1.35,2.21,2.58,2.17c-1.04.61-1.4,2.16-.72,3.17s2.24,1.27,3.2.53c-.25.24-.49.48-.74.72.04,1.05.76,2.04,1.74,2.42.98.38,2.18.11,2.91-.64.25.94,1.21,1.63,2.18,1.57.97-.06,1.84-.87,1.96-1.83.71.67,1.88.78,2.7.25.82-.53,1.2-1.65.87-2.57,1.01.14,2.07-.39,2.57-1.27s.38-2.07-.27-2.86c1.79-.45,2.13-3.41.49-4.25,2.02-1.3,1.84-4.85-.3-5.94,1.76-1.04,1.8-4.01.07-5.1,1.64-1.1,1.51-3.97-.22-4.92,1.84-.73,1.89-3.87.08-4.66,1.6-.5,1.82-3.16.32-3.91.24-.25.47-.49.71-.74,1.36,1.74,4.28,1.83,5.53.17,1.24,1.95,4.57,2,5.87.08.44,1.03,1.55,1.74,2.67,1.71,1.12-.03,2.18-.81,2.56-1.87,2.08,1.65,5.44,1.35,7.2-.64,1.44,1.78,4.85,1.06,5.45-1.15,1.72,1.68,5.15.7,5.72-1.64,2.51,1.07,5.77-1.08,5.78-3.81,1.13.5,2.58.18,3.39-.76.81-.94.93-2.41.27-3.46,1.29.11,2.62-.56,3.3-1.67.68-1.1.69-2.59.02-3.7,1.1-.19,2.03-1.11,2.24-2.2.21-1.09-.32-2.29-1.26-2.87Zm-17.67-3.5c-1.16.12-2.19,1.03-2.45,2.17s.3,2.41,1.3,3c-2.3-.41-4.63,1.97-4.18,4.26-1.93-1.01-4.67.33-5.06,2.48-.94-1.94-4.28-1.89-5.17.07-1.31-1.89-4.73-1.56-5.66.55-.32-.97-1.3-1.69-2.33-1.7-1.03-.01-2.02.67-2.37,1.64-.34-.97-1.33-1.68-2.36-1.69-1.03,0-2.03.69-2.38,1.65.96-1.84.76-4.61-.93-5.74,1.1-.56,1.79-1.85,1.62-3.08-.16-1.23-1.16-2.3-2.38-2.54,1.06-.26,1.88-1.28,1.92-2.36.04-1.09-.71-2.16-1.74-2.5,1.1-.25,1.94-1.37,1.87-2.5-.07-1.13-1.04-2.13-2.17-2.24,1.15-.28,2.04-1.38,2.09-2.56.04-1.03-.57-2.05-1.47-2.54,1,.25,2.85-.33,3.34-1.71-.61.92.62,2.17,1.71,1.97,1.09-.2,1.82-1.21,2.35-2.18-.1.38-.2.76-.3,1.13,1.68,1.43,4.7.64,5.47-1.43-.39,1.24,1.01,2.46,2.3,2.36,1.29-.1,2.34-1.07,3.13-2.1-.07,1.31.92,2.61,2.21,2.87,1.05.22,2.19-.28,2.82-1.15.05-.23.16-.45.34-.62-.08.22-.2.43-.34.62-.15.75.35,1.67,1.11,2,.99.43,2.13.17,3.18-.11-.34.71-.24,2.11.58,2.8.71.6,1.85.59,2.58.03-.62.69-.87,1.72-.6,2.62.32,1.04,1.32,1.83,2.4,1.9-1.07.12-1.99,1.07-2.08,2.14-.1,1.07.64,2.16,1.67,2.48Z" style="fill: #fff; stroke: #000; stroke-linecap: round; stroke-linejoin: round; stroke-width: 5px;"/>
  </g>
</svg>