<?xml version="1.0" encoding="UTF-8"?>
<svg xmlns="http://www.w3.org/2000/svg" xmlns:xlink="http://www.w3.org/1999/xlink" viewBox="0 0 630 720">
  <defs>
    <clipPath id="clippath">
      <ellipse cx="268.27" cy="391.73" rx="221.45" ry="267.27" style="fill: none;"/>
    </clipPath>
    <clipPath id="clippath-1">
      <ellipse id="eye-bgr-right-2" data-name="eye-bgr-right" cx="273.41" cy="357.1" rx="31.08" ry="13.47" style="fill: #fff;"/>
    </clipPath>
    <clipPath id="clippath-2">
      <path id="eye-bgr-left" d="m372.73,368.91c.6-4.04.26-25.6.01-29.74-35.4-1.82-35.89,31.43-.15,30.04,0-.02.13-.28.14-.3Z" style="fill: none;"/>
    </clipPath>
    <clipPath id="clippath-3">
      <path d="m314.31,650.68c51.2-15.2,63.32-26.28,84.59-42.41,9.7-7.35,20.04-13.67,32.51-19.77,43.38-21.21,100.65-6.89,146.03-23.44,61.21-22.31,107.75-79.91,116.18-143.78,4.3-32.57-1.74-68.23-24.46-92.15-15.53-16.35-37.24-25.66-59.14-31.55-36.09-9.71-75.12-11.1-110.68.48-55.11,17.94-97,66.23-114.92,120.73-5.09,15.49-8.48,31.56-15.02,46.51-16.36,37.38-51.12,64.91-66.04,102.88-8.11,20.64-9.82,43.67-4.84,65.23,1.22,5.29,2.98,10.73,6.92,14.5,3.94,3.77.07,2.94,2.63,4.04l6.24-1.27Z" style="fill: none;"/>
    </clipPath>
  </defs>
  <g id="face-and-frame">
    <g id="face">
      <g style="clip-path: url(#clippath);">
        <path id="hair" d="m449.96,545.63c-7.14-19.69-20.88-36.15-34.36-52.18-14.47-10.83-15.86-36.23-9.88-57.51,5.98-21.28,18.01-40.32,26.08-60.89,8.07-20.58,11.86-44.74,1.36-64.19-7.76-14.38-22.37-24.33-29.14-39.2-5.64-12.38-5.12-26.56-7.57-39.95-6.95-38.06-34.3-61.51-72.79-65.44-38.49-3.93-84.86,13.44-99.36,49.3-1.39-.34-2.78-.6-4.18-.82-5.4-2.26-11.43-3.27-17.25-2.97-12.8.66-24.74,6.45-35.91,12.76-25.85,14.6-52.14,36.68-53.4,66.35-.69,16.14,6.36,31.62,7.72,47.72,1.48,17.43-3.73,34.66-8.62,51.46-4.89,16.8-9.57,34.28-7.01,51.59,1.98,13.38,9.42,26.67,20.62,33.59-3.76,12.84-7.88,25.59-10.44,38.71-4.32,22.18-3.52,46.93,9.99,65.04l.92-10.79c14.66,15.2,11.54,39.96,4.64,59.92-6.9,19.96-16.73,40.61-12.24,61.25,3.52,16.17,15.69,29.51,30.13,37.6,14.44,8.09,31.02,11.51,47.46,13.48,71.2,8.52,146.57-10,201.57-56.01,20.18-16.89,37.68-37.55,47.92-61.79,10.24-24.24,12.73-52.28,3.76-77.02Z"/>
        <path id="neck" d="m330.78,655.83c-12.43-44.38-10.18-52.24-19.21-97.44-4.37-21.88-8.34-44.44-4.21-66.37-15.2-.9-30.3-4.14-44.39-9.92-27.98-11.48-51.63-33.21-65.43-60.13,6.51,25.37,5.52,51.84,4.47,77.77-.49,11.99-1.11,24.49-7.77,37.23-11.87,36.74-23.74,73.48-35.61,110.22,28.95,1.8,54.21,20.27,82.54,26.5,13.55,2.98,27.55,3.1,41.43,3.2,17.53.13,35.05.26,52.58.39-2.88-6.33-2.23-13.69-4.4-21.45Z" style="fill: #fff; stroke: #000; stroke-linecap: round; stroke-linejoin: round; stroke-width: 5px;"/>
        <path id="face-background" d="m186.2,369.41c-.12-9.5-11.85-16.24-20.3-11.89s-11.99,15.05-10.81,24.48c1.18,9.43,6.1,17.92,10.92,26.11,2.59,4.41,5.33,8.98,9.62,11.77,4.28,2.79,10.59,3.2,14.13-.5,17.35,21.55,35.19,43.54,58.83,57.9,23.64,14.37,54.64,19.83,78.98,6.7,28.39-15.31,39.57-50.14,44.09-82.08,4.69-33.12,5.02-66.85.98-100.05-37.19,19.45-85.81,14.39-118.21-12.29-.95,18.88-20.7,30.14-37.45,38.91s-34.42,22.39-30.78,40.94Z" style="fill: #fff; stroke: #000; stroke-linecap: round; stroke-miterlimit: 10; stroke-width: 5px;"/>
        <g id="right-eye">
          <ellipse id="iris-right" cx="273.41" cy="357.1" rx="12.43" ry="12.02" style="fill: none; stroke: #000; stroke-linecap: round; stroke-miterlimit: 10; stroke-width: 5px;"/>
          <ellipse id="iris-right-2" data-name="iris-right" cx="273.41" cy="357.1" rx="7.46" ry="7.21"/>
          <g id="blink-right">
            <ellipse id="eye-bgr-right" cx="273.41" cy="357.1" rx="31.08" ry="13.47" style="fill: #fff;"/>
            <g style="clip-path: url(#clippath-1);">
              <rect x="241.1" y="356.86" width="65.73" height="13.69" style="fill: #fff; stroke: #000; stroke-linecap: round; stroke-miterlimit: 10; stroke-width: 5px;"/>
              <rect x="241.1" y="341.8" width="65.73" height="15.06" style="fill: #fff; stroke: #000; stroke-linecap: round; stroke-miterlimit: 10; stroke-width: 5px;"/>
            </g>
          </g>
          <ellipse id="eye-bgr-right-3" data-name="eye-bgr-right" cx="273.41" cy="357.1" rx="31.08" ry="13.47" style="fill: none; stroke: #000; stroke-linecap: round; stroke-miterlimit: 10; stroke-width: 5px;"/>
          <path id="eyebrow-right" d="m234.84,342.24c18.92-14.84,45.81-18.82,68.21-10.09" style="fill: none; stroke: #000; stroke-linecap: round; stroke-miterlimit: 10; stroke-width: 5px;"/>
          <g id="eyelashes-right">
            <path d="m241.1,356.48c-1.41-2.08-2.81-4.16-4.22-6.25" style="fill: none; stroke: #000; stroke-linecap: round; stroke-miterlimit: 10; stroke-width: 5px;"/>
            <path d="m245.31,349.61c-1.3-1.84-2.26-3.91-2.81-6.09" style="fill: none; stroke: #000; stroke-linecap: round; stroke-miterlimit: 10; stroke-width: 5px;"/>
            <path d="m251.56,346.17l-2.19-6.09" style="fill: none; stroke: #000; stroke-linecap: round; stroke-miterlimit: 10; stroke-width: 5px;"/>
            <path d="m258.43,343.83c-.26-1.87-.52-3.75-.78-5.62" style="fill: none; stroke: #000; stroke-linecap: round; stroke-miterlimit: 10; stroke-width: 5px;"/>
            <path d="m265.15,343.05c.37-2.55.21-5.17-.47-7.65" style="fill: none; stroke: #000; stroke-linecap: round; stroke-miterlimit: 10; stroke-width: 5px;"/>
            <path d="m272.33,341.49c.21-2.13.42-4.27.62-6.4" style="fill: none; stroke: #000; stroke-linecap: round; stroke-miterlimit: 10; stroke-width: 5px;"/>
            <path d="m279.83,341.8l1.25-7.18" style="fill: none; stroke: #000; stroke-linecap: round; stroke-miterlimit: 10; stroke-width: 5px;"/>
            <path d="m285.96,342.75l1.88-7.5" style="fill: none; stroke: #000; stroke-linecap: round; stroke-miterlimit: 10; stroke-width: 5px;"/>
            <path d="m292.62,344.45l3.21-7.06" style="fill: none; stroke: #000; stroke-linecap: round; stroke-miterlimit: 10; stroke-width: 5px;"/>
            <path d="m297.32,346.17l3.59-5.15" style="fill: none; stroke: #000; stroke-linecap: round; stroke-miterlimit: 10; stroke-width: 5px;"/>
            <path d="m302.27,348.61l3.43-2.82" style="fill: none; stroke: #000; stroke-linecap: round; stroke-miterlimit: 10; stroke-width: 5px;"/>
          </g>
        </g>
        <g>
          <path id="iris-left" d="m372.47,344.34c-3.68-.6-7.65,1.17-9.66,4.32s-1.95,7.49.14,10.58,6.1,4.76,9.77,4.06c.84-6.35.8-12.81-.26-18.95Z" style="fill: none; stroke: #000; stroke-linecap: round; stroke-miterlimit: 10; stroke-width: 5px;"/>
          <path id="iris-left-2" data-name="iris-left" d="m372.32,348.94c-1.9-.31-3.94.6-4.98,2.23s-1.01,3.86.07,5.45,3.15,2.45,5.04,2.09c.43-3.27.41-6.6-.13-9.77Z"/>
          <g id="blink-left">
            <g style="clip-path: url(#clippath-2);">
              <rect x="346.11" y="355.73" width="29.7" height="13.69" style="fill: #fff; stroke: #000; stroke-linecap: round; stroke-miterlimit: 10; stroke-width: 5px;"/>
              <rect x="346.11" y="338.24" width="29.7" height="17.49" style="fill: #fff; stroke: #000; stroke-linecap: round; stroke-miterlimit: 10; stroke-width: 5px;"/>
            </g>
          </g>
          <path id="eye-bgr-left-2" data-name="eye-bgr-left" d="m372.73,368.91c.6-4.04.26-25.6.01-29.74-35.4-1.82-35.89,31.43-.15,30.04,0-.02.13-.28.14-.3Z" style="fill: none; stroke: #000; stroke-linecap: round; stroke-miterlimit: 10; stroke-width: 5px;"/>
          <path id="eyebrow-left" d="m340.08,331.76c11.54-3.42,23.4-5.74,35.37-6.94" style="fill: none; stroke: #000; stroke-linecap: round; stroke-miterlimit: 10; stroke-width: 5px;"/>
          <g id="eyelashes-left">
            <path d="m374.75,338.71c2.56-1.4,5.13-2.8,7.69-4.2" style="fill: none; stroke: #000; stroke-linecap: round; stroke-miterlimit: 10; stroke-width: 5px;"/>
            <path d="m369.12,337.28c2.03-2.4,4.05-4.8,6.08-7.21" style="fill: none; stroke: #000; stroke-linecap: round; stroke-miterlimit: 10; stroke-width: 5px;"/>
            <path d="m364.96,337.67c-.14-2.1.29-4.23,1.22-6.12" style="fill: none; stroke: #000; stroke-linecap: round; stroke-miterlimit: 10; stroke-width: 5px;"/>
            <path d="m359.24,339.94c-.11-2.16-.23-4.31-.34-6.47" style="fill: none; stroke: #000; stroke-linecap: round; stroke-miterlimit: 10; stroke-width: 5px;"/>
            <path d="m354.87,340.93c-1.46-1.52-2.91-3.03-4.37-4.55" style="fill: none; stroke: #000; stroke-linecap: round; stroke-miterlimit: 10; stroke-width: 5px;"/>
            <path d="m349.72,344.5c-.91-1.88-2.29-3.53-3.97-4.78" style="fill: none; stroke: #000; stroke-linecap: round; stroke-miterlimit: 10; stroke-width: 5px;"/>
            <path d="m346.28,349c-1.33-1.35-2.66-2.7-3.99-4.05" style="fill: none; stroke: #000; stroke-linecap: round; stroke-miterlimit: 10; stroke-width: 5px;"/>
          </g>
        </g>
        <path id="nose" d="m298.86,409.76c4.15,3.95,10.09,5.22,15.71,6.32,5.98,1.17,12.29,2.33,18.06.35,3.25-1.11,6.12-3.17,9.34-4.35,2.52-.93,5.29-1.34,7.51-2.86s3.64-4.76,2.05-6.93" style="fill: none; stroke: #000; stroke-linecap: round; stroke-miterlimit: 10; stroke-width: 5px;"/>
        <g id="lips">
          <path id="lips-bgr" d="m277.1,445.89c11.26-1.3,22.29-4.52,32.48-9.48,1.49-.72,3.03-1.5,4.69-1.5,1.55,0,2.99.69,4.45,1.19,4.57,1.58,9.71,1.44,14.19-.39,1.65-.68,3.31-1.59,5.08-1.47,1.33.09,2.55.75,3.77,1.3,4.53,2.05,9.7,2.64,14.58,1.68-3.63,4.87-7.34,9.83-12.27,13.37-9.11,6.53-21.03,7.36-32.24,7.31-6.37-.03-12.82-.28-18.94-2.06s-11.95-5.24-15.79-9.94Z" style="fill: none; stroke: #000; stroke-linecap: round; stroke-linejoin: round; stroke-width: 5px;"/>
          <path id="lip-line" d="m296.69,448.86c5.59.2,11.21-.59,16.52-2.31.54-.18,1.09-.36,1.66-.35.74.01,1.42.35,2.12.61,5.58,2.11,11.67-.84,16.89-3.7,1.49,1.61,4.07,2.09,6.03,1.12" style="fill: none; stroke: #000; stroke-linecap: round; stroke-linejoin: round; stroke-width: 5px;"/>
        </g>
        <path id="shoulder" d="m111.97,632.42c2.55-18.43,7.4-36.54,14.4-53.78,6.24-15.39,14.6-30.56,27.87-40.53,13.28-9.97,32.42-13.56,46.68-5.05,14.38,8.58,20.09,26.31,23.57,42.7,7.8,36.8,10.08,74.76,6.74,112.23-.24,2.72-.59,5.62-2.37,7.68-1.65,1.91-4.21,2.73-6.66,3.3-22.58,5.26-46.6-3.56-64.82-17.9-18.22-14.34-31.7-33.71-45.4-48.66Z" style="fill: #fff; stroke: #000; stroke-linecap: round; stroke-linejoin: round; stroke-width: 5px;"/>
        <path id="ear-line" d="m167.7,388.34c-2.24-4.44-2.85-9.68-1.69-14.52.73-3.04,2.87-6.38,5.98-6.19,2.09.13,3.72,1.86,4.78,3.66,2.2,3.75,2.85,8.38,1.77,12.59-.84,3.27-2.68,6.65-1.53,9.83.66,1.83,2.21,3.17,3.51,4.63s2.45,3.34,2.03,5.25" style="fill: none; stroke: #000; stroke-linecap: round; stroke-miterlimit: 10; stroke-width: 5px;"/>
      </g>
    </g>
    <ellipse cx="266.09" cy="390.49" rx="227" ry="268.5" style="fill: none; stroke: #000; stroke-linecap: round; stroke-linejoin: round; stroke-width: 5px;"/>
    <path id="chest-hair" d="m303.28,557.83c-1.29,4.17-1.38,8.6-1.31,12.97.32,19.99,4.59,41.49,19.3,55.02,4.9-2.32,9.03-6.23,11.6-11,2.44-4.53,3.46-9.67,4.34-14.74,2.46-14.24,4.01-28.64,4.65-43.07.39-8.78.38-17.88-3.08-25.96-.97-2.26-2.28-4.5-4.34-5.85-1.86-1.21-4.14-1.58-6.36-1.6-7.86-.05-12.92,2.56-14.76,9.8-2.25,8.86-7.36,15.81-10.03,24.43Z"/>
  </g>
  <g id="hand">
    <g style="clip-path: url(#clippath-3);">
      <g id="hand-2" data-name="hand">
        <path id="hand-bgr" d="m518.64,456.29c-4.63-2.36-7.4-7.41-8.3-12.52-.9-5.11-.22-10.36.47-15.5,4.62-2.22,9.73,1.71,13.21,5.47,11.23,12.14,20.86,25.77,28.56,40.4,1.62,3.08,3.19,6.31,3.37,9.78.29,5.43-2.81,10.43-6.07,14.79-11.48,15.33-26.95,28.78-31.72,47.33-1.48,3.89-6.67,7.93-12.27,10.25s-11.68,3.16-17.65,4.21c-27.19,4.76-53.56,14.17-77.61,27.71-.95.53-1.92,1.1-2.57,1.97-.68.91-.94,2.06-1.2,3.16-7.18,30.16-30.16,54.22-40.16,83.56l.46-1.46c-6.08,16.77-12.15,33.53-18.23,50.3-4.14,11.43-9.35,24.03-20.5,28.87-10.04,4.36-22.44.51-29.85-7.55s-10.32-19.5-9.91-30.44c.41-10.94,3.82-21.54,7.7-31.78,12.35-32.62,29.75-63.32,51.4-90.66,5.52-10.74,13.72-22.54,22.21-34.12,3.25-4.42,6.82-9.03,11.22-11.06,5.62-13.84,14.17-26.66,25.75-36.11,11.57-9.44,26.29-15.33,39.5-14.91,2.08-.54,3.89-2.02,4.83-3.96-3.65.07-7.54.08-10.6-1.91s-4.54-6.78-1.94-9.34c1.86-1.82,4.78-1.75,7.38-1.93s5.67-1.23,6.2-3.78c.44-2.1-1.13-4.19-.84-6.31.37-2.68,3.48-4.1,6.19-4.1s5.39.89,8.07.6,5.54-2.48,5.07-5.15c-.29-1.64-1.73-2.83-2.37-4.36-1.1-2.65.5-5.82,2.91-7.37s5.42-1.82,8.29-1.85c12.7-.15,25.09,3.55,39.01,7.78Z" style="fill: #fff;"/>
        <g id="hand-lines">
          <path d="m522.98,507.22c1.16-5.22,2.31-10.44,3.47-15.65.56-2.54,1.11-5.27.12-7.67-1.07-2.6-3.68-4.19-6.13-5.57-5.69-3.2-11.44-6.28-17.26-9.25-5.35-2.73-10.93-5.42-16.92-5.82-4.58-.31-9.3.72-13.71-.57s-8.23-6.45-5.85-10.37c2.14-3.53,7.24-3.31,11.32-2.64,7.6,1.23,15.2,2.47,22.8,3.7,6.25,1.01,12.96,2.26,15.66,5.34,1.51,2.24,4.3,3.13,6.65,4.45,1.63.91,3.1,2.08,4.57,3.23,2.75,2.17,5.5,4.34,8.25,6.51,0,0,.41.24.68.42,3.1,2.03,2.73,6.98,2.44,10.68" style="fill: none; stroke: #000; stroke-linecap: round; stroke-linejoin: round; stroke-width: 5px;"/>
          <path d="m474.35,463.8c-2.48,1.67-5.41,2.67-8.39,2.86-2.5.16-5.02-.23-7.52-.13s-5.16.79-6.81,2.68-1.8,5.2.21,6.7c2.16,1.62,5.17.45,7.75-.34,6.39-1.96,13.38-1.12,19.68,1.1,6.31,2.21,12.06,5.73,17.76,9.22,1.34.82,2.74,1.7,3.51,3.07.82,1.45.8,3.22.75,4.89-.24,8.99-.49,17.97-.73,26.96" style="fill: none; stroke: #000; stroke-linecap: round; stroke-linejoin: round; stroke-width: 5px;"/>
          <path d="m454.19,479.03c-4.27.52-8.47,1.63-12.44,3.28-1.49.62-3.07,1.45-3.67,2.94-.95,2.38,1.12,4.88,3.29,6.24,5.21,3.27,12.08,3.72,17.68,1.16,1.18-.54,2.36-1.22,3.66-1.25,1.33-.03,2.56.62,3.73,1.25,3.01,1.63,6.07,3.3,8.46,5.74,2.39,2.45,4.06,5.84,3.61,9.24-.4,3.08-2.43,5.69-3.37,8.64-1.57,4.95.31,10.8,4.47,13.92" style="fill: none; stroke: #000; stroke-linecap: round; stroke-linejoin: round; stroke-width: 5px;"/>
          <path d="m408.74,526.23c4.24-3.97,9.63-6.71,15.35-7.78,2.59-.49,5.28-.64,7.84,0,2.22.56,4.25,1.69,6.38,2.54,10.73,4.31,24.09.76,31.26-8.32" style="fill: none; stroke: #000; stroke-linecap: round; stroke-linejoin: round; stroke-width: 5px;"/>
        </g>
        <path id="hand-outline" d="m448.17,497.77c-14.94-.23-29.65,5.66-41.22,15.1-11.57,9.44-20.13,22.27-25.75,36.11-4.4,2.02-7.98,6.63-11.22,11.06-8.5,11.58-16.69,23.39-22.21,34.12-21.65,27.35-39.05,58.04-51.4,90.66-3.88,10.24-7.29,20.84-7.7,31.78-.41,10.94,2.5,22.38,9.91,30.44s19.81,11.91,29.85,7.55c11.15-4.84,16.35-17.44,20.5-28.87,6.08-16.77,12.15-33.53,18.23-50.3l-.46,1.46c10-29.34,32.98-53.41,40.16-83.56.26-1.11.52-2.25,1.2-3.16.65-.87,1.62-1.43,2.57-1.97,24.06-13.53,50.43-22.94,77.61-27.71,5.97-1.05,12.05-1.89,17.65-4.21s10.79-6.36,12.27-10.25c4.77-18.55,20.24-32,31.72-47.33,3.26-4.35,6.36-9.35,6.07-14.79-.19-3.47-1.75-6.71-3.37-9.78-7.7-14.64-17.33-28.26-28.56-40.4-3.48-3.76-8.59-7.69-13.21-5.47-.69,5.15-1.38,10.39-.47,15.5.9,5.11,3.67,10.17,8.3,12.52" style="fill: none; stroke: #000; stroke-linecap: round; stroke-linejoin: round; stroke-width: 5px;"/>
      </g>
      <g id="ciggie">
        <path id="ciggie-bgr" d="m529.25,465.25c21.91-10.03,43.17-21.47,63.44-33.28,3.16-.01,6.3-1.93,7.51-4.85s.22-6.66-2.41-8.4-6.65-1.05-8.36,1.6l-.42-.28c-23.11,12.25-46.22,24.51-69.39,37.38,2.51,4.8,7.65,8.74,9.63,7.83Z" style="fill: #fff; stroke: #000; stroke-linecap: round; stroke-linejoin: round; stroke-width: 5px;"/>
        <path id="ciggie-tip" d="m590.49,416.45c-1.94,3.04-2.2,7.35.12,10.11,2.32,2.76,7.4,2.88,9.26-.21.86-1.44.93-3.22.78-4.89-.17-1.87-.67-3.88-2.14-5.04s-4.13-.85-4.71.94" style="stroke: #000; stroke-linecap: round; stroke-linejoin: round; stroke-width: 5px;"/>
      </g>
      <g id="nails">
        <path d="m516.17,427.52c-1.52-.52-3.26-.61-4.68.15s-2.33,2.54-1.75,4.04c.22.58.63,1.06,1.02,1.53,3.33,3.95,6.86,8.05,11.66,9.97,1.11.45,2.33.77,3.5.52s2.26-1.19,2.33-2.39c.03-.51-.12-1.02-.3-1.51-2.03-5.78-6.88-10.49-12.71-12.35" style="stroke: #000; stroke-linecap: round; stroke-linejoin: round; stroke-width: 5px;"/>
        <path d="m473.18,449.7c-1.87,0-3.72-.6-5.58-.38s-3.81,1.78-3.42,3.61c.19.91.92,1.62,1.75,2.03s1.76.56,2.67.71c1.54.25,3.08.49,4.64.51,1.62.02,3.23-.2,4.83-.48,1.45-.25,2.94-.57,4.16-1.38.55-.36,1.08-.92,1.04-1.57-.03-.5-.38-.93-.76-1.26-1.87-1.64-4.58-1.77-7.07-1.82-1.5-.03-3.01-.06-4.51-.09" style="stroke: #000; stroke-linecap: round; stroke-linejoin: round; stroke-width: 5px;"/>
        <path d="m459.11,464.31c-3.3-.6-6.49,1.77-8.29,4.6-.29.45-.56.95-.52,1.48.08,1.22,1.6,1.74,2.82,1.79,3.61.16,7.27-1.08,10.03-3.42.96-.81,1.88-2.09,1.36-3.23-.4-.88-1.48-1.22-2.45-1.29s-1.98.04-2.87-.36" style="stroke: #000; stroke-linecap: round; stroke-linejoin: round; stroke-width: 5px;"/>
        <path d="m447.65,479.2c-2.38.62-4.7,1.52-6.87,2.67-1.44.76-2.94,1.79-3.31,3.37-.14.58-.1,1.23.24,1.73.56.81,1.7.95,2.69.9,2.82-.16,5.58-1.28,7.71-3.14.75-.65,1.44-1.43,1.71-2.39s.01-2.12-.82-2.66c-1.28-.84-2.96.14-4.08,1.19" style="stroke: #000; stroke-linecap: round; stroke-linejoin: round; stroke-width: 5px;"/>
      </g>
    </g>
    <path id="frame-patch" d="m426.61,580.35c-41.08,48.59-97.83,78.64-160.51,78.64" style="fill: none; stroke: #000; stroke-linecap: round; stroke-linejoin: round; stroke-width: 5px;"/>
  </g>
  <g id="letters">
    <path d="m599.08,80.89c0-1.96-1.29-3.85-3.11-4.58,1.2-1.13,1.59-3.02.94-4.53-.65-1.51-2.3-2.52-3.94-2.42.85-1.12.82-2.84-.08-3.93-.9-1.09-2.57-1.45-3.84-.83.4-1.2-.15-2.64-1.24-3.27-1.1-.63-2.62-.38-3.45.57.18-1.53-1.2-2.92-2.68-3.13,1.49-.31,2.74-.99,2.99-2.1.82.67,2.16.55,2.85-.25s.61-2.15-.17-2.86c1.53.61,3.46,0,4.34-1.4.89-1.39.63-3.4-.57-4.53,1.79.61,3.71-1.17,3.83-3.05.12-1.88-1.05-3.62-2.45-4.9,2.05.15,3.98-1.85,3.76-3.9s-2.54-3.58-4.51-2.99c1.65-.52,2.55-2.67,1.77-4.21-.57-1.13-1.93-1.72-3.17-1.57,1.37-.99,1.9-3.25.7-4.54-1.19-1.28-3.45-.93-4.54.33.18-1.08-.27-2.3-1.26-2.82-1.41-.75-3.42.2-3.75,1.76-.62-.84-1.09-1.55-1.09-1.55,1.91-.97,1.27-4.32-.76-5-2.04-.68-4.31.84-5.11,2.84,0-1.45-1.54-2.56-2.98-2.48-1.45.09-2.7,1.1-3.49,2.31.53-1.77-.83-3.86-2.67-4.09-1.58-.2-3.15,1.01-3.52,2.52-.07-1.32-1.35-2.55-2.73-2.55-1.47,0-2.76,1.11-3.31,2.49.23-1.37-1.33-2.81-2.82-2.65-1.68.17-2.95,1.63-3.72,3.13.64-1.33-.84-2.95-2.31-2.83-1.47.13-2.59,1.47-3.01,2.88-.23-1.96-2.16-3.56-4.13-3.42-1.97.14-3.66,1.98-3.62,3.95.23-1.66-1.21-3.35-2.89-3.39-1.68-.04-3.2,1.58-3.05,3.25-.41-1.78-2.6-2.89-4.27-2.17-1.67.72-2.38,3.07-1.37,4.59-1.94-.64-4.15.95-4.52,2.95s.86,4.08,3.9,4.71c-1.4.83-2.83,1.7-3.87,2.96-1.04,1.26-1.66,2.99-1.18,4.55s2.28,2.73,3.81,2.15c-2.34.46-4.23,2.62-4.38,4.99-.16,2.38,1.44,4.76,3.69,5.53-2.24,1.84-2.1,5.85.27,7.53-3.78,3.47-3.89,10.16-.23,13.75-3.02,2-3.14,7.12-.22,9.26-1.54.85-2.53,2.6-2.47,4.36.06,1.76,1.18,3.44,2.77,4.17-2.48,2.48-2.57,6.94-.19,9.51-1.46,1.01-2.12,3.02-1.56,4.7.56,1.68,2.31,2.88,4.08,2.81-.45,2.18.9,4.59,2.99,5.36,2.09.76,4.68-.22,5.44-2.15.81,1.52,2.55,2.49,4.27,2.38,1.72-.11,3.32-1.3,3.93-2.91.7,1.77,2.46,3.07,4.35,3.23,1.9.16,3.84-.83,4.83-2.46,1.37,1.92,3.74,3.1,6.1,3.02,2.36-.08,4.21-1.77,6.31-3.82.19-.19.39-.38.58-.57,1.6.92,1.28,3.62,2.86,4.59,1.27.78,2.98-.14,3.81-1.38.84-1.24,1.19-2.76,2.04-3.98.66,1.11,1.58,2.14,2.81,2.55,1.22.41,2.78.02,3.38-1.12.37-.7.66-1.78,1.43-1.64.58.11.72.84,1.01,1.36.78,1.38,3.02,1.14,4.06-.06,1.03-1.21,1.19-2.91,1.29-4.49,2.92-1.11,4.82-1.88,5.91-3.31,1.09-1.44,1.3-3.48.54-5.11,1.68-.11,3.25-1.18,3.97-2.7s.53-3.42-.46-4.78c1.81-.74,3.09-2.64,3.09-4.6Zm-51.57-50.12c1.33,1.77,4.42,1.73,5.7-.07,1.38,1.89,4.69,1.81,5.97-.15.68,2,3.89,2.42,5.06.66.39,1.24,1.5,2.23,2.78,2.47s2.67-.28,3.48-1.3c-.71,1.02-.63,2.53.2,3.46.83.93,2.32,1.19,3.42.6-.37.9-1.03,2.2-.91,3.46s1,2.43,2.18,2.88c-1.39-.12-2.79.88-3.13,2.23-.33,1.35.44,2.9,1.73,3.43-1.25-.43-2.73-.12-3.7.78s-1.38,2.36-1.04,3.63c-2.13-2.24-6.46-1.57-7.8,1.22-.14-1.65-1.53-3.11-3.18-3.33-1.64-.22-3.37.84-3.93,2.4-.55-1.24-1.86-2.1-3.21-2.12s-2.68.8-3.27,2.02c-1.69-2.08-5.37-2.02-6.99.11,1.66-2.07,1.63-5.31-.06-7.34.39-.98,1.32-2.03,1.62-3.33s-.3-2.91-1.59-3.24c1.09-.89,1.75-2.29,1.75-3.7,0-1.08-.39-2.15-1.18-2.85-.3-.14-.58-.32-.84-.54.32.14.59.32.84.54,2.11,1,5.03.18,6.11-1.95Zm29.22,53.4c-.16,1.01.47,2.09,1.42,2.46-2.98-.66-6.25,1.77-6.47,4.82-.51-1.3-1.99-2.14-3.37-1.92-1.38.23-2.51,1.5-2.58,2.89-.56-1.4-2.1-2.35-3.61-2.23-1.51.13-2.87,1.32-3.19,2.79-1.27-2.17-4.9-2.33-6.36-.28-1.28-2.12-3.79-3.44-6.26-3.28-2.47.16-4.79,1.79-5.78,4.06.06-1.16.87-1.92,1.02-2.92.15-1-.81-2.17-1.75-1.81,1.14-.7,1.91-1.99,1.97-3.33.06-1.34-.57-2.69-1.64-3.5,1.27-.63,2.13-1.99,2.16-3.4.03-1.41-.78-2.81-2.01-3.49,1.78-1.05,1.88-4.03.17-5.2.84-.81.81-2.34-.19-3.11,2.22,1.73,5.61,1.76,7.86.07,1.64,1.65,4.7,1.56,6.24-.19,1.78,1.97,5.48,1.59,6.82-.71,1.65,2.04,4.92,2.52,7.09,1.05.77,2.07,3.76,2.88,5.46,1.48-.45,1.02-.23,2.3.55,3.1.78.8,2.05,1.06,3.08.64-1.1.68-1.76,2.01-1.64,3.3.13,1.29,1.04,2.47,2.26,2.91-.02.48-.74,1.28-.73,2.14,0,.86.73,1.66,1.59,1.74-1.02.05-1.95.89-2.11,1.9Z" style="fill: none; stroke: #000; stroke-linecap: round; stroke-linejoin: round; stroke-width: 5px;"/>
    <path d="m614.24,174.67c1.01.36,2.24-.56,2.18-1.63s-1.37-1.85-2.34-1.39c1.05-.08,1.84-1.31,1.48-2.3s-1.76-1.41-2.61-.79c.83-.05,1.37-1.07,1.08-1.84s-1.18-1.22-2.01-1.14-1.56.57-2.11,1.19c.56-.89.12-2.24-.86-2.63s-2.22.29-2.43,1.32c.06-1.01-1.29-1.6-2.22-1.23s-1.5,1.31-2.01,2.19c-1.05-.56-2.48.03-3.08,1.14s-.29,2.63.69,3.42c-1.18-.09-2.35.8-2.58,1.96s.51,2.43,1.63,2.8c-1.41-.08-2.82.89-3.25,2.24s.16,2.95,1.36,3.71c-1.14-.24-2.4.59-2.63,1.74s.61,2.39,1.76,2.61c-1.39.13-2.65,1.23-2.96,2.59s.34,2.89,1.55,3.61c-1.48-.38-2.94,1.05-3.17,2.56s.38,3.02.98,4.43c-1.38.15-2.61,1.24-2.91,2.6s.33,2.87,1.5,3.6c-.73-.69-2.04.16-2.12,1.16s.57,1.9,1.2,2.68c-2.21.81-2.75,4.28-.9,5.73-1.02.16-1.9,1-2.1,2.02s.29,2.13,1.17,2.67c-.87.02-1.68.69-1.87,1.54s.28,1.8,1.06,2.17c-1.49.46-2.38,2.29-1.83,3.75.23-1.71-.57-3.65-1.98-3.86.74-.79.97-2.01.57-3.02s-1.4-1.74-2.47-1.82c.84-.77,1.18-2.03.84-3.11s-1.33-1.93-2.45-2.09c1.44-2.09.42-5.4-1.94-6.32,1.04-.42,1.76-1.53,1.71-2.65s-.86-2.17-1.93-2.5c.43-2.16-.29-4.52-1.85-6.07,1.66-3.25.58-7.78-2.48-9.85.96-2.65-.17-5.89-2.56-7.38,1.17-1.61.45-4.23-1.37-5.02.77-.96.93-2.37.39-3.48s-1.75-1.85-2.98-1.84c.66-1.18.27-2.83-.85-3.59s-2.79-.53-3.66.51c-1.34-2.3-5.24-2.35-6.65-.1-1.51-.56-3.12-.51-4.15.34s-1.37,2.43-.79,3.63c-1.07-.19-2.22.38-2.72,1.34s-.28,2.24.5,2.99c-2.48.31-3.79,3.86-2.1,5.7-1.18.18-2.2,1.11-2.51,2.26s.12,2.46,1.05,3.21c-2.4.28-3.68,3.73-2.04,5.51-2.31,1.09-2.87,4.69-.99,6.43-1.41.25-2.62,1.39-2.96,2.78s.21,2.96,1.34,3.83c-1.4.08-2.68,1.17-2.99,2.53s.37,2.9,1.59,3.58c-1.41.15-2.7,1.14-3.2,2.47s-.19,2.93.77,3.97c-2.16.72-2.88,3.98-1.23,5.54-2.17,1.63-3.16,4.67-2.37,7.27-.36-2.79-1.27-5.04-2.86-6.63,1.2-.96,1.85-2.57,1.64-4.09s-1.27-2.9-2.68-3.5c.89-1.12,1.12-2.73.59-4.05s-1.82-2.32-3.24-2.5c2.82-3.31,1.81-8.11-1.39-9.67,2.34-2.6,1.7-7.26-1.26-9.14,1.65-2.52.79-6.34-1.78-7.91,1.31-1.1,1.94-2.96,1.55-4.63s-1.76-3.07-3.42-3.48c1.03-1.14,1.26-2.95.54-4.31s-2.33-2.2-3.86-2c-.23-1.34-1.27-2.51-2.58-2.88s-2.82.07-3.71,1.1c-1.43-.71-3.24-.59-4.56.3s-2.11,2.52-1.99,4.12c-.23.02-.45.03-.68.05-1.64.78-2.75,2.57-2.71,4.39s1.23,3.56,2.79,4.73c-1.39.76-2.11,2.57-1.63,4.08s2.11,2.57,3.68,2.4c-1.45,1.09-1,3.79.72,4.36-1.1,1.97-.43,4.74,1.45,5.99-1.06.57-1.74,1.77-1.68,2.97s.86,2.33,1.97,2.79c-.2,1.25.93,2.53,2.19,2.5-1.98,1.61-1.67,5.24.56,6.48-1,1.15.26,3.31,1.76,3-.88.55-1.34,1.69-1.08,2.7s1.22,1.79,2.25,1.84c-1.44,1.59-.21,4.66,1.94,4.8-1.24.5-2.06,1.88-1.9,3.21s1.3,2.47,2.62,2.65c-.97.4-1.52,1.61-1.18,2.61s1.53,1.61,2.54,1.32c-.99.39-1.64,1.5-1.49,2.55s1.09,1.94,2.15,2.03c-1.07.31-1.85,1.43-1.77,2.54s1.01,2.11,2.11,2.26c-.72,1.7-.26,3.83,1.1,5.08.49-.04.97-.08,1.46-.12-1.43,1.23-.58,4.05,1.29,4.29-.59,1.98,1.46,4.22,3.4,3.59-.87.84-.39,2.42.61,3.09s2.29.68,3.5.67c.75,0,1.56-.03,2.14-.51s.67-1.56,0-1.88c.47,1.17,1.91,1.85,3.12,1.47s1.99-1.77,1.69-3c.76.8,2.17.87,3,.14s.94-2.14.23-2.99c.92-.03,1.78-.67,2.07-1.54s-.03-1.9-.75-2.47c1.14-.45,2-1.54,2.19-2.75s-.32-2.51-1.27-3.28c1,.16,2.07-.41,2.5-1.33s.18-2.11-.61-2.78c1.42-.27,2.66-1.35,3.11-2.72s.11-2.98-.87-4.04c1.98-.64,2.79-3.5,1.44-5.09,2.01-.7,2.68-3.72,1.17-5.2,2.04-1.32,1.98-4.87-.12-6.11,2.13-.27,3.19-3.4,1.67-4.91,1.04.12,2.12-.57,2.45-1.56s-.1-2.19-1-2.73c.9.22,1.92-.31,2.26-1.17s-.04-1.95-.85-2.4c2.02-.49,3.09-3.22,1.94-4.96.76-.2,1.28-1.05,1.11-1.81s-.98-1.33-1.75-1.21c1.69.11,3.25-1.61,3.99-3.99-1.22,1.9.24,4.87,2.49,5.07-1.4,1.5-.19,4.46,1.87,4.54-1.18.37-1.99,1.65-1.83,2.87s1.29,2.24,2.52,2.28c-1,.5-1.5,1.82-1.08,2.86s1.7,1.64,2.77,1.3c-.75.96-1.53,2.04-1.45,3.26s1.57,2.31,2.53,1.56c-1.07.59-1.68,1.93-1.42,3.13s1.37,2.16,2.59,2.25c-1.08.16-1.85,1.41-1.5,2.44s1.71,1.57,2.67,1.05c-1.09.49-1.77,1.77-1.54,2.95s1.33,2.13,2.52,2.17c-1.18.51-1.87,1.94-1.54,3.18s1.67,2.12,2.94,1.96c-.93.47-1.52,1.54-1.44,2.58s.85,1.99,1.84,2.31c-.86.58-1.18,1.83-.7,2.75s1.67,1.39,2.64,1.03c-1.02.35-1.7,1.49-1.52,2.55s1.2,1.91,3,1.39c-1.26.39-2.12,1.79-1.91,3.09s1.46,2.36,2.78,2.34c-.64,1.04-.43,2.52.48,3.33s2.4.88,3.36.14c-.34.9.06,2.02.89,2.5s2,.28,2.61-.46c.42,1.09,1.5,1.88,2.66,1.95s2.33-.59,2.88-1.61c.63.83,1.91,1.06,2.79.51s1.22-1.82.75-2.74c.91.39,2.07.05,2.62-.77s.42-2.03-.29-2.72c2.39-.31,3.65-3.74,2.03-5.52,1.17-.25,2.17-1.2,2.47-2.36s-.11-2.48-1.02-3.26c1.13-.3,2.05-1.29,2.27-2.44s-.29-2.41-1.24-3.1c1.14-.12,2.17-1,2.45-2.12s-.21-2.38-1.16-3.03c1.14-.08,2.15-1.08,2.22-2.23s-.8-2.27-1.92-2.49c1.23.07,2.46-.79,2.8-1.98s-.25-2.57-1.33-3.16c1.18.06,2.33-.91,2.47-2.09s-.76-2.38-1.93-2.6c1.11.21,2.33-.38,2.84-1.39s.28-2.34-.54-3.12c1.04-.17,1.9-1.12,1.96-2.17s-.7-2.09-1.71-2.37c1.01.09,2.04-.58,2.36-1.54s-.08-2.12-.94-2.66c1.07.08,2.12-.84,2.17-1.92s-.88-2.1-2.41-2.17c1.56-.57,3.2-1.24,4.15-2.61s.78-3.62-.74-4.3c1.45-.06,2.79-1.22,3.05-2.65s-.59-2.99-1.93-3.55c1.15.49,2.66-.3,2.91-1.53s-.82-2.55-2.08-2.55c.88-.11,1.77-.35,2.45-.91s1.1-1.51.83-2.35-1.35-1.38-1.5-1.35Z" style="fill: none; stroke: #000; stroke-linecap: round; stroke-linejoin: round; stroke-width: 5px;"/>
    <path d="m592.7,346.76c1.02-.08,1.86-1.11,1.73-2.13-.11-.87-.93-1.57-1.79-1.64.64-.11,1.21-.6,1.36-1.23.18-.77-.75-1.4-1.49-1.67,2.3-1.75,1.72-5.56-.68-7.18,1.26-2-.13-5.08-2.46-5.46.58-.9.6-2.13.06-3.05-.54-.92-1.63-1.5-2.7-1.43.65-1.09.41-2.62-.54-3.46-.95-.84-2.5-.89-3.5-.12.44-.81.13-1.94-.66-2.41-.79-.47-1.94-.19-2.43.59.13-1.03-.6-2.09-1.6-2.35-1-.26-2.15.31-2.54,1.27-.78-1.77-1.8-2.64-2.95-2.78-1.15-.14-2.35.45-2.94,1.44-.37-.98-1.37-1.7-2.42-1.73-1.05-.04-2.1.61-2.54,1.56-.55-1.34-1.98-2.27-3.42-2.24-1.45.03-2.83,1.01-3.34,2.37-.44-1.15-1.64-1.96-2.87-1.95-1.23.01-2.41.85-2.83,2-.54-1.67-2.33-2.85-4.07-2.68s-3.28,1.65-3.5,3.4c-.91-1.77-2.1-2.65-3.36-2.67-1.26-.02-2.49.82-2.93,2-.54-1.28-1.98-2.12-3.36-1.96-1.38.16-2.58,1.32-2.8,2.69-.86-.38-1.91-.4-2.9-.13-.99.28-1.93.91-2.36,1.85s-.22,2.19.62,2.78c-1.28.03-2.49.94-2.88,2.16s.06,2.66,1.08,3.43l1.18.35c-1-.28-2.02,1.01-1.52,1.92.08.14.18.24.3.33-.17.19-.32.4-.44.61-.5.91-.8,2.09-.22,2.96.15.22.36.38.61.47-.68.62-1.09,1.55-.94,2.47.26,1.57,2.08,2.67,3.59,2.17-.87.28-1.77.58-2.47,1.17-.7.59-1.15,1.57-.87,2.44.29.87,1.5,1.37,2.19.77-1.52.93-2.41,2.77-2.21,4.53.17,1.46,1.09,2.79,2.36,3.52-.67-.1-1.44.19-1.86.75-.62.81-.63,1.96-.28,2.92.35.96,1.01,1.77,1.66,2.56-1.95-.02-3.67,1.28-3.66,2.83.01,1.25,1.16,2.3,2.37,2.41-1.42.33-2.59,1.75-2.44,3.23.14,1.33,1.32,2.4,2.62,2.63-.97.31-1.8,1.12-1.97,2.14-.25,1.45.89,2.99,2.35,3.18-1.62.38-3.07,1.9-2.86,3.55.11.87.82,1.57,1.63,1.86-.49.35-.87.85-.97,1.45-.22,1.32.93,2.7,2.27,2.72-1.47-.03-2.85,1.21-2.98,2.67-.13,1.46,1.01,2.92,2.46,3.15-1.25.35-2.17,1.62-2.12,2.91.05,1.29,1.07,2.49,2.34,2.74-1.32.49-2.18,1.77-2,2.98.17,1.22,1.35,2.21,2.58,2.17-1.04.61-1.4,2.16-.72,3.17.68,1.01,2.24,1.27,3.2.53-.25.24-.49.48-.74.72.04,1.05.76,2.04,1.74,2.42.98.38,2.18.11,2.91-.64.25.94,1.21,1.63,2.18,1.57.97-.06,1.84-.87,1.96-1.83.71.67,1.88.78,2.7.25.82-.53,1.2-1.65.87-2.57,1.01.14,2.07-.39,2.57-1.27.5-.89.38-2.07-.27-2.86,1.79-.45,2.13-3.41.49-4.25,2.02-1.3,1.84-4.85-.3-5.94,1.76-1.04,1.8-4.01.07-5.1,1.64-1.1,1.51-3.97-.22-4.92,1.84-.73,1.89-3.87.08-4.66,1.6-.5,1.82-3.16.32-3.91.23-.25.47-.49.71-.74,1.36,1.74,4.29,1.83,5.53.17,1.24,1.95,4.57,2,5.87.08.44,1.03,1.55,1.74,2.67,1.71,1.12-.03,2.18-.81,2.56-1.87,2.08,1.65,5.44,1.35,7.2-.64,1.44,1.78,4.85,1.06,5.45-1.15,1.72,1.68,5.15.7,5.72-1.64,2.51,1.07,5.77-1.08,5.78-3.81,1.13.5,2.58.18,3.39-.76s.93-2.41.27-3.46c1.29.11,2.62-.56,3.3-1.67.68-1.1.69-2.59.02-3.7,1.1-.19,2.03-1.11,2.24-2.2.21-1.09-.32-2.29-1.26-2.87Zm-17.67-3.5c-1.16.12-2.19,1.03-2.45,2.17-.25,1.14.3,2.41,1.3,3-2.3-.41-4.63,1.97-4.18,4.26-1.93-1.01-4.67.33-5.06,2.48-.94-1.94-4.28-1.89-5.17.07-1.31-1.89-4.73-1.56-5.66.55-.32-.97-1.3-1.69-2.33-1.7s-2.02.67-2.38,1.64c-.34-.97-1.33-1.68-2.36-1.69-1.03,0-2.03.69-2.38,1.65.96-1.84.76-4.61-.93-5.74,1.1-.56,1.79-1.85,1.62-3.08-.16-1.23-1.16-2.3-2.38-2.54,1.06-.26,1.88-1.28,1.92-2.36.04-1.09-.71-2.16-1.74-2.5,1.1-.25,1.94-1.37,1.87-2.5-.07-1.13-1.04-2.13-2.17-2.24,1.15-.28,2.04-1.38,2.09-2.56.04-1.03-.57-2.05-1.47-2.54-.16-.04-.3-.1-.41-.18.14.05.28.11.41.18,1,.25,2.85-.33,3.34-1.71-.61.92.62,2.17,1.71,1.97,1.09-.2,1.82-1.21,2.35-2.18-.1.38-.2.76-.3,1.13,1.68,1.43,4.7.64,5.47-1.43-.39,1.24,1.01,2.46,2.3,2.36,1.29-.1,2.34-1.07,3.13-2.1-.07,1.31.92,2.61,2.21,2.87,1.05.22,2.19-.28,2.82-1.15.05-.23.15-.45.34-.62-.08.22-.2.43-.34.62-.15.75.35,1.67,1.11,2,.99.43,2.13.17,3.18-.11-.34.71-.24,2.11.58,2.8.71.6,1.85.59,2.58.03.1-.11.2-.21.32-.3-.09.11-.2.21-.32.3-.62.69-.87,1.72-.6,2.62.32,1.04,1.32,1.83,2.4,1.9-1.07.13-1.99,1.07-2.08,2.14-.1,1.07.64,2.16,1.67,2.48Z" style="fill: none; stroke: #000; stroke-linecap: round; stroke-linejoin: round; stroke-width: 5px;"/>
  </g>
</svg>