<svg width="369" height="122" viewBox="0 0 369 122" fill="none" xmlns="http://www.w3.org/2000/svg">
<rect width="369" height="122" fill="#F5F5F5"/>
<rect width="393" height="852" transform="translate(-12 -499)" fill="white"/>
<path d="M9.87192 110.282C9.85334 108.588 9.50961 106.447 7.87458 106.019C6.93629 105.777 5.9144 106.289 5.31984 107.061C4.72528 107.834 4.48374 108.82 4.3351 109.779C4.13072 111.101 4.08427 112.441 4.06569 113.782C4.03782 115.253 4.18646 117.021 5.47777 117.729C6.21168 118.129 7.18712 118.027 7.80955 117.477C8.43198 116.928 8.67352 115.979 8.37624 115.197" stroke="black" stroke-width="2" stroke-linecap="round" stroke-linejoin="round"/>
<path d="M17.2482 118.38C17.2017 118.604 17.146 118.836 17.0995 119.06C16.8394 114.955 16.8301 110.84 17.7498 107.154C18.8925 106.177 20.8062 106.372 21.7909 107.499C22.7757 108.625 22.7478 110.487 21.7909 111.641C20.8341 112.795 19.0783 113.158 17.6941 112.572" stroke="black" stroke-width="2" stroke-linecap="round" stroke-linejoin="round"/>
<path d="M21.0385 113.186L22.785 118.808" stroke="black" stroke-width="2" stroke-linecap="round" stroke-linejoin="round"/>
<path d="M30.2913 106.735L30.4585 118.473C31.8891 118.027 33.3941 117.859 34.8898 117.971" stroke="black" stroke-width="2" stroke-linecap="round" stroke-linejoin="round"/>
<path d="M31.3317 112.218L35.0199 112.628" stroke="black" stroke-width="2" stroke-linecap="round" stroke-linejoin="round"/>
<path d="M31.0623 106.596H35.986" stroke="black" stroke-width="2" stroke-linecap="round" stroke-linejoin="round"/>
<path d="M43.6224 119.479L44.635 106.642C45.8891 106.484 47.1804 106.559 48.4067 106.875C48.9734 110.691 49.763 114.489 49.9395 118.343C49.9395 118.501 49.986 118.697 50.1439 118.725C50.3018 118.753 50.2368 118.408 50.1439 118.529" stroke="black" stroke-width="2" stroke-linecap="round" stroke-linejoin="round"/>
<path d="M45.1366 113.586L48.416 113.316" stroke="black" stroke-width="2" stroke-linecap="round" stroke-linejoin="round"/>
<path d="M57.5852 106.875C59.406 106.931 61.2361 106.819 63.0384 106.521" stroke="black" stroke-width="2" stroke-linecap="round" stroke-linejoin="round"/>
<path d="M60.047 107.834C59.4617 111.818 59.3131 115.867 59.6011 119.888" stroke="black" stroke-width="2" stroke-linecap="round" stroke-linejoin="round"/>
<path d="M70.2938 108.513L70.3682 105.702C70.2288 110.198 70.2474 114.703 70.4239 119.199C70.4239 118.836 70.4239 118.464 70.4239 118.101" stroke="black" stroke-width="2" stroke-linecap="round" stroke-linejoin="round"/>
<path d="M76.7225 106.782C77.3914 110.933 78.7105 114.973 80.6336 118.706C81.256 114.582 82.0642 110.487 83.0675 106.437" stroke="black" stroke-width="2" stroke-linecap="round" stroke-linejoin="round"/>
<path d="M90.4066 106.745L90.9361 118.473C92.3947 117.449 94.2527 117.031 95.9992 117.319" stroke="black" stroke-width="2" stroke-linecap="round" stroke-linejoin="round"/>
<path d="M91.4935 113.047C93.1843 112.553 94.9308 112.265 96.6866 112.19" stroke="black" stroke-width="2" stroke-linecap="round" stroke-linejoin="round"/>
<path d="M91.0848 106.605C92.5061 106.037 94.0669 105.795 95.5997 105.907" stroke="black" stroke-width="2" stroke-linecap="round" stroke-linejoin="round"/>
<path d="M9.87192 110.282C9.85334 108.588 9.50961 106.447 7.87458 106.019C6.93629 105.777 5.9144 106.289 5.31984 107.061C4.72528 107.834 4.48374 108.82 4.3351 109.779C4.13072 111.101 4.08427 112.441 4.06569 113.782C4.03782 115.253 4.18646 117.021 5.47777 117.729C6.21168 118.129 7.18712 118.027 7.80955 117.477C8.43198 116.928 8.67352 115.979 8.37624 115.197" stroke="black" stroke-width="2" stroke-linecap="round" stroke-linejoin="round"/>
<path d="M17.2482 118.38C17.2017 118.604 17.146 118.836 17.0995 119.06C16.8394 114.955 16.8301 110.84 17.7498 107.154C18.8925 106.177 20.8062 106.372 21.7909 107.499C22.7757 108.625 22.7478 110.487 21.7909 111.641C20.8341 112.795 19.0783 113.158 17.6941 112.572" stroke="black" stroke-width="2" stroke-linecap="round" stroke-linejoin="round"/>
<path d="M21.0385 113.186L22.785 118.808" stroke="black" stroke-width="2" stroke-linecap="round" stroke-linejoin="round"/>
<path d="M30.2913 106.735L30.4585 118.473C31.8891 118.027 33.3941 117.859 34.8898 117.971" stroke="black" stroke-width="2" stroke-linecap="round" stroke-linejoin="round"/>
<path d="M31.3317 112.218L35.0199 112.628" stroke="black" stroke-width="2" stroke-linecap="round" stroke-linejoin="round"/>
<path d="M31.0623 106.596H35.986" stroke="black" stroke-width="2" stroke-linecap="round" stroke-linejoin="round"/>
<path d="M43.6224 119.479L44.635 106.642C45.8891 106.484 47.1804 106.559 48.4067 106.875C48.9734 110.691 49.763 114.489 49.9395 118.343C49.9395 118.501 49.986 118.697 50.1439 118.725C50.3018 118.753 50.2368 118.408 50.1439 118.529" stroke="black" stroke-width="2" stroke-linecap="round" stroke-linejoin="round"/>
<path d="M45.1366 113.586L48.416 113.316" stroke="black" stroke-width="2" stroke-linecap="round" stroke-linejoin="round"/>
<path d="M57.5852 106.875C59.406 106.931 61.2361 106.819 63.0384 106.521" stroke="black" stroke-width="2" stroke-linecap="round" stroke-linejoin="round"/>
<path d="M60.047 107.834C59.4617 111.818 59.3131 115.867 59.6011 119.888" stroke="black" stroke-width="2" stroke-linecap="round" stroke-linejoin="round"/>
<path d="M70.2938 108.513L70.3682 105.702C70.2288 110.198 70.2474 114.703 70.4239 119.199C70.4239 118.836 70.4239 118.464 70.4239 118.101" stroke="black" stroke-width="2" stroke-linecap="round" stroke-linejoin="round"/>
<path d="M76.7225 106.782C77.3914 110.933 78.7105 114.973 80.6336 118.706C81.256 114.582 82.0642 110.487 83.0675 106.437" stroke="black" stroke-width="2" stroke-linecap="round" stroke-linejoin="round"/>
<path d="M90.4066 106.745L90.9361 118.473C92.3947 117.449 94.2527 117.031 95.9992 117.319" stroke="black" stroke-width="2" stroke-linecap="round" stroke-linejoin="round"/>
<path d="M91.4935 113.047C93.1843 112.553 94.9308 112.265 96.6866 112.19" stroke="black" stroke-width="2" stroke-linecap="round" stroke-linejoin="round"/>
<path d="M91.0848 106.605C92.5061 106.037 94.0669 105.795 95.5997 105.907" stroke="black" stroke-width="2" stroke-linecap="round" stroke-linejoin="round"/>
<path d="M148.32 106.707C150.197 106.056 152.185 105.739 154.164 105.795" stroke="black" stroke-width="2" stroke-linecap="round" stroke-linejoin="round"/>
<path d="M151.562 106.894C151.005 110.431 150.875 114.033 151.182 117.598" stroke="black" stroke-width="2" stroke-linecap="round" stroke-linejoin="round"/>
<path d="M160.852 106.568C161.075 110.328 161.187 114.098 161.187 117.868C162.33 117.561 163.472 117.245 164.615 116.937" stroke="black" stroke-width="2" stroke-linecap="round" stroke-linejoin="round"/>
<path d="M162.107 112.618C163.231 112.153 164.457 111.967 165.655 112.078" stroke="black" stroke-width="2" stroke-linecap="round" stroke-linejoin="round"/>
<path d="M161.8 106.912C163.11 106.493 164.522 106.391 165.878 106.614" stroke="black" stroke-width="2" stroke-linecap="round" stroke-linejoin="round"/>
<path d="M179.878 108.504C179.024 107.666 178.708 106.037 177.537 105.953C176.98 105.907 176.46 106.298 176.162 106.782C175.865 107.266 175.754 107.852 175.642 108.411C175.224 110.543 174.806 112.702 174.908 114.871C174.955 115.932 175.233 117.133 176.144 117.617C176.803 117.971 177.658 117.813 178.234 117.328C178.81 116.844 179.126 116.081 179.2 115.318" stroke="black" stroke-width="2" stroke-linecap="round" stroke-linejoin="round"/>
<path d="M187.143 106.782C186.901 110.738 186.846 114.713 186.976 118.669" stroke="black" stroke-width="2" stroke-linecap="round" stroke-linejoin="round"/>
<path d="M193.339 107.005C193.479 110.608 193.609 114.21 193.748 117.803" stroke="black" stroke-width="2" stroke-linecap="round" stroke-linejoin="round"/>
<path d="M187.923 112.953C189.484 112.358 191.166 112.088 192.828 112.181" stroke="black" stroke-width="2" stroke-linecap="round" stroke-linejoin="round"/>
<path d="M199.963 119.106C199.972 115.039 199.991 110.961 200.223 106.726C201.264 111.055 204.134 114.638 205.927 118.697" stroke="black" stroke-width="2" stroke-linecap="round" stroke-linejoin="round"/>
<path d="M205.946 107.322C206.002 110.952 206.057 114.573 206.113 118.203C206.113 118.306 206.132 118.427 206.225 118.464C206.317 118.501 206.383 118.297 206.28 118.315" stroke="black" stroke-width="2" stroke-linecap="round" stroke-linejoin="round"/>
<path d="M212.7 106.996C212.848 111.138 212.802 115.29 212.551 119.423C212.551 119.572 212.551 119.758 212.69 119.805C212.83 119.851 212.876 119.544 212.746 119.6" stroke="black" stroke-width="2" stroke-linecap="round" stroke-linejoin="round"/>
<path d="M225.52 110.57C225.353 109.184 224.916 107.824 224.247 106.605C224.164 106.447 224.061 106.279 223.903 106.205C223.708 106.112 223.476 106.168 223.272 106.251C221.85 106.838 221.005 108.364 220.503 109.863C219.807 111.939 219.565 114.173 219.797 116.36C219.89 117.235 220.095 118.166 220.736 118.725C221.534 119.414 222.798 119.293 223.615 118.632C224.433 117.971 224.879 116.91 225.055 115.858" stroke="black" stroke-width="2" stroke-linecap="round" stroke-linejoin="round"/>
<path d="M232.329 119.32C232.506 115.066 233.008 110.831 233.816 106.661C234.866 106.456 235.943 106.4 237.012 106.475C237.411 110.794 237.82 115.113 238.219 119.441" stroke="black" stroke-width="2" stroke-linecap="round" stroke-linejoin="round"/>
<path d="M233.853 113.493C234.661 112.916 235.711 112.693 236.677 112.898" stroke="black" stroke-width="2" stroke-linecap="round" stroke-linejoin="round"/>
<path d="M245.224 106.782C245.177 110.729 245.289 114.676 245.549 118.604C247.295 118.036 249.163 117.887 250.974 118.176" stroke="black" stroke-width="2" stroke-linecap="round" stroke-linejoin="round"/>
<path d="M278.203 107.238C277.293 106.698 276.234 106.13 275.23 106.484C274.45 106.754 273.958 107.508 273.521 108.206C273.289 108.588 273.047 108.979 273.001 109.416C272.899 110.328 273.623 111.12 274.413 111.594C275.203 112.069 276.094 112.367 276.754 113C277.925 114.126 277.925 116.23 276.754 117.356C275.583 118.483 273.484 118.408 272.406 117.198" stroke="black" stroke-width="2" stroke-linecap="round" stroke-linejoin="round"/>
<path d="M285.273 107.824C284.483 111.399 285.524 115.132 285.124 118.762C286.425 118.725 287.725 118.697 289.017 118.66C289.1 118.66 289.193 118.65 289.23 118.576C289.268 118.501 289.175 118.399 289.119 118.455" stroke="black" stroke-width="2" stroke-linecap="round" stroke-linejoin="round"/>
<path d="M285.812 112.805C287.437 113.028 289.091 113.037 290.717 112.832" stroke="black" stroke-width="2" stroke-linecap="round" stroke-linejoin="round"/>
<path d="M285.514 107.638C287.01 107.285 288.58 107.21 290.104 107.424" stroke="black" stroke-width="2" stroke-linecap="round" stroke-linejoin="round"/>
<path d="M298.846 118.222C298.938 118.343 298.641 118.39 298.604 118.241C298.567 118.092 298.669 117.952 298.65 117.803C298.335 114.182 298.242 110.533 298.901 106.819C300.267 106.158 301.902 106.419 303.323 106.94C303.964 107.173 304.624 107.499 304.94 108.104C305.163 108.532 305.172 109.044 305.079 109.519C304.865 110.608 304.104 111.576 303.091 112.032C302.515 112.293 301.874 112.386 301.252 112.441C300.434 112.507 299.617 112.507 298.799 112.432" stroke="black" stroke-width="2" stroke-linecap="round" stroke-linejoin="round"/>
<path d="M302.766 112.805C303.425 114.862 304.094 116.91 304.754 118.967" stroke="black" stroke-width="2" stroke-linecap="round" stroke-linejoin="round"/>
<path d="M311.582 106.521C313.236 110.645 314.676 114.852 315.883 119.125C316.106 116.723 316.543 114.331 317.175 112.004C317.686 110.114 318.336 108.253 318.503 106.298C318.475 106.447 318.457 106.596 318.429 106.745" stroke="black" stroke-width="2" stroke-linecap="round" stroke-linejoin="round"/>
<path d="M325.043 107.443L325.303 118.874" stroke="black" stroke-width="2" stroke-linecap="round" stroke-linejoin="round"/>
<path d="M338.235 109.891C338.198 109.221 338.151 108.541 337.919 107.908C337.687 107.275 337.213 106.698 336.572 106.503C335.829 106.27 334.993 106.605 334.463 107.182C333.934 107.759 333.664 108.523 333.516 109.286C333.265 110.57 333.293 111.892 333.33 113.195C333.358 114.247 333.386 115.29 333.413 116.342C333.432 116.872 333.451 117.431 333.692 117.906C334.017 118.529 334.668 118.892 335.29 119.218C335.457 119.311 335.643 119.404 335.829 119.395C336.135 119.395 336.377 119.134 336.572 118.892C337.139 118.148 337.52 117.263 337.687 116.342" stroke="black" stroke-width="2" stroke-linecap="round" stroke-linejoin="round"/>
<path d="M345.212 107.294L345.992 118.809C347.804 118.352 349.615 117.887 351.427 117.431" stroke="black" stroke-width="2" stroke-linecap="round" stroke-linejoin="round"/>
<path d="M346.494 113.037C347.655 112.991 348.807 112.87 349.959 112.674" stroke="black" stroke-width="2" stroke-linecap="round" stroke-linejoin="round"/>
<path d="M345.416 107.508C346.977 107.312 348.538 107.117 350.098 106.922C350.21 106.912 350.349 106.922 350.377 107.015C350.405 107.108 350.173 107.117 350.238 107.033" stroke="black" stroke-width="2" stroke-linecap="round" stroke-linejoin="round"/>
<path d="M363.076 107.331C362.268 106.773 361.386 106.186 360.401 106.205C359.565 106.214 358.775 106.689 358.264 107.359C357.753 108.029 357.512 108.867 357.447 109.695C357.409 110.282 357.465 110.915 357.818 111.38C358.403 112.172 359.537 112.255 360.401 112.73C361.488 113.326 362.092 114.527 362.417 115.718C362.51 116.062 362.584 116.416 362.519 116.761C362.435 117.245 362.082 117.645 361.692 117.943C361.07 118.399 360.28 118.65 359.518 118.539C358.757 118.427 358.041 117.915 357.753 117.198" stroke="black" stroke-width="2" stroke-linecap="round" stroke-linejoin="round"/>
<path d="M120.497 99.5306L120.014 104.334" stroke="black" stroke-width="2" stroke-linecap="round" stroke-linejoin="round"/>
<path d="M117.961 107.461C119.048 107.303 119.921 106.503 120.933 106.074C121.946 105.646 123.442 105.832 123.711 106.903C123.823 107.34 123.683 107.815 123.497 108.225C122.652 110.114 120.794 111.511 118.741 111.79C119.577 111.408 120.45 111.129 121.351 110.952C121.667 110.887 122.002 110.84 122.308 110.952C122.568 111.045 122.773 111.241 122.949 111.455C124.138 112.888 124.12 115.178 122.921 116.602C121.723 118.027 119.466 118.408 117.858 117.477" stroke="black" stroke-width="2" stroke-linecap="round" stroke-linejoin="round"/>
<path d="M120.357 120.13L119.679 126.069C119.698 125.818 119.716 125.566 119.744 125.315" stroke="black" stroke-width="2" stroke-linecap="round" stroke-linejoin="round"/>
<path d="M5.03185 91.3949C42.5076 91.1529 79.974 90.9016 117.45 90.6596C199.006 90.1197 280.563 89.5891 362.11 90.2872" stroke="black" stroke-width="2" stroke-linecap="round" stroke-linejoin="round"/>
<path d="M30.7093 34.0638C36.9057 32.2952 42.5447 28.637 46.6973 23.7128C43.3901 33.9707 40.0736 44.2287 36.7664 54.4867C34.128 62.6503 30.0683 72.1263 21.6423 73.6529C16.57 74.5652 11.2933 71.9867 8.05108 67.9747C4.80889 63.9628 3.36894 58.75 2.96947 53.6024C2.1148 42.4973 5.87723 31.2154 12.7518 22.4654C19.6264 13.7061 29.4552 7.4508 40.1293 4.32314C48.3509 1.91224 58.6164 1.92155 63.9302 8.6516C68.4266 14.3484 67.3675 23.117 62.8897 28.8325C58.412 34.5479 51.2773 37.6011 44.1612 38.9601C49.1034 35.5253 54.5659 32.8351 60.3071 31.02C62.5088 30.3218 65.1286 29.8192 66.9587 31.2434C68.1386 32.1556 68.6774 33.6636 69.0583 35.1064C71.6409 44.9362 69.0583 55.9854 62.4067 63.6556C55.7458 71.3258 45.1831 75.4029 35.1035 74.2021C33.0504 73.9601 30.9787 73.4854 29.2694 72.3218C24.3643 68.9987 24.4572 61.859 25.0889 55.9575" stroke="black" stroke-width="4" stroke-linecap="round" stroke-linejoin="round"/>
<path d="M66.6522 75.4215C74.8924 68.6636 81.6648 60.1277 86.3748 50.5678C83.467 57.2327 80.4942 64.4189 81.8877 71.5585C82.1571 72.9362 82.9561 74.5652 84.3589 74.5093C84.9906 74.4814 85.548 74.0904 86.031 73.6809C87.2294 72.6569 88.2513 71.4282 89.0317 70.0598" stroke="black" stroke-width="4" stroke-linecap="round" stroke-linejoin="round"/>
<path d="M87.6196 72.2473C101.517 54.6449 114.142 36.0372 125.365 16.6104C126.08 15.3723 126.814 14.0691 126.87 12.6356C126.925 11.2021 126.08 9.62899 124.677 9.36835C123.776 9.2008 122.875 9.59176 122.085 10.0479C116.957 12.9987 114.198 18.7234 111.736 24.1223C105.094 38.6902 98.3774 53.4907 95.9434 69.3245C95.739 70.6742 95.5904 72.1729 96.3801 73.2992C98.108 75.766 101.963 74.0253 104.221 72.0425C119.568 58.5545 130.177 40.6077 140.535 22.9867C142.412 19.7846 144.344 16.4242 144.539 12.7101C144.651 10.6622 143.564 8.04654 141.52 8.20479C140.721 8.26064 140.024 8.7633 139.411 9.27527C134.562 13.3152 131.905 19.3564 129.415 25.1649C123.962 37.8617 118.481 50.6702 115.778 64.2234C115.378 66.234 115.044 68.3471 115.657 70.3019C116.27 72.2566 118.109 73.9787 120.134 73.7553C121.389 73.625 122.457 72.8059 123.386 71.9588C126.331 69.2779 128.635 65.8989 130.065 62.1848" stroke="black" stroke-width="4" stroke-linecap="round" stroke-linejoin="round"/>
<path d="M90.9919 41.4269C94.5778 41.4269 94.5871 35.8418 90.9919 35.8418C87.3967 35.8418 87.3967 41.4269 90.9919 41.4269Z" fill="black"/>
<path d="M163.426 72.9827C162.822 60.6024 162.952 49.637 164.15 37.8989C165.191 36.8471 166.872 36.8378 168.349 36.9402C172.177 37.2008 176.329 37.8989 178.903 40.7287C182.154 44.3032 181.207 50.7633 177.063 53.258C174.964 54.5239 172.428 54.7939 169.984 55.0359C168.405 55.1942 166.668 55.3059 165.377 54.3936" stroke="black" stroke-width="8" stroke-linecap="round" stroke-linejoin="round"/>
<path d="M218.069 71.6795C212.235 71.8098 206.392 71.9402 200.558 72.0612C199.239 60.0067 198.951 48.5013 198.514 38.3271C205.119 38.4761 211.743 38.3178 218.339 37.8338" stroke="black" stroke-width="8" stroke-linecap="round" stroke-linejoin="round"/>
<path d="M201.152 54.4216C206.327 53.3418 211.724 53.3231 216.908 54.3657" stroke="black" stroke-width="8" stroke-linecap="round" stroke-linejoin="round"/>
<path d="M236.287 71.5771C237.541 60.258 238.795 48.9295 240.04 37.6104C243.97 37.5638 247.909 37.5173 251.838 37.4707C252.043 49.0598 252.953 60.6303 254.56 72.1077" stroke="black" stroke-width="8" stroke-linecap="round" stroke-linejoin="round"/>
<path d="M238.201 55.2872C242.465 54.8311 246.794 54.9149 251.039 55.5386" stroke="black" stroke-width="8" stroke-linecap="round" stroke-linejoin="round"/>
<path d="M272.025 72.9827C271.849 61.3657 271.672 49.758 270.892 37.3311C274.905 36.7726 278.919 35.5718 282.95 36.0279C286.982 36.4841 291.172 39.258 291.46 43.2886C291.794 48.0638 286.685 51.4614 281.956 52.4016C278.575 53.0718 275.054 53.0532 271.682 52.3458" stroke="black" stroke-width="8" stroke-linecap="round" stroke-linejoin="round"/>
<path d="M285.152 53.5372C287.66 59.6995 289.444 66.1596 290.466 72.7314" stroke="black" stroke-width="8" stroke-linecap="round" stroke-linejoin="round"/>
<path d="M327.199 47.4216C326.028 45.5505 325.452 43.363 324.356 41.4455C323.26 39.5279 321.383 37.7872 319.172 37.8431C316.469 37.9083 314.573 40.5333 313.617 43.0466C311.276 49.1902 311.833 56.9442 312.418 63.488C312.623 65.7221 312.883 68.1051 314.295 69.8551C316.143 72.1263 319.729 72.629 322.293 71.1955C324.857 69.7713 326.297 66.7088 326.093 63.7952" stroke="black" stroke-width="8" stroke-linecap="round" stroke-linejoin="round"/>
<path d="M347.07 36.6981C346.475 41.2686 346.187 67.6396 346.187 72.117C350.637 72.629 359.175 71.8471 364.275 72.238" stroke="black" stroke-width="8" stroke-linecap="round" stroke-linejoin="round"/>
<path d="M347.897 54.6263C353.145 54.2168 358.701 54.8311 363.95 54.4215" stroke="black" stroke-width="8" stroke-linecap="round" stroke-linejoin="round"/>
<path d="M349.94 36.6888C354.604 36.6888 359.277 36.6888 363.94 36.6888" stroke="black" stroke-width="8" stroke-linecap="round" stroke-linejoin="round"/>
</svg>
