<?xml version="1.0" encoding="UTF-8"?>
<svg id="a" data-name="Layer 1" xmlns="http://www.w3.org/2000/svg" viewBox="0 0 105.3 20">
  <defs>
    <style>
      .d {
        fill: none;
        stroke: #000;
        stroke-linecap: round;
        stroke-linejoin: round;
        stroke-width: 2px;
      }
    </style>
  </defs>
  <path class="d" d="m9.49,6.76c.23-1.04-.22-2.19-1.09-2.8-.91-.64-2.18-.65-3.18-.15s-1.72,1.45-2.09,2.5c-.43,1.23-.28,2.83.82,3.53.74.47,1.68.41,2.56.42s1.87.18,2.36.91c.42.62.33,1.43.37,2.18.03.47.11.95.01,1.4-.18.83-.95,1.42-1.77,1.65s-1.68.15-2.52.08c-.37-.03-.77-.08-1.04-.34-.18-.18-.27-.43-.34-.68-.22-.8-.3-1.64-.22-2.47"/>
  <g>
    <path class="d" d="m23.58,3.38c-.13-.36-.64-.34-1.02-.26-2.03.43-4.15.43-6.18.01.5,4.63.6,9.11.44,13.55,2.36.28,4.74.32,7.11.12"/>
    <path class="d" d="m17.47,10.42l5.75-.67"/>
  </g>
  <g>
    <path class="d" d="m31.4,17.12c.14-4.65,0-9.3-.63-14.16,1.84-.13,3.7-.11,5.54.04.38.03.77.07,1.09.27.3.19.51.5.66.82.65,1.39.32,3.19-.78,4.26-1.38,1.33-3.5,1.41-5.42,1.4"/>
    <path class="d" d="m35.9,9.93c.49,2.4,1.11,4.78,1.85,7.12"/>
  </g>
  <path class="d" d="m45.57,3.35c1.49,4.39,2.86,8.82,4.08,13.29.75-4.31,1.66-8.58,2.75-12.81"/>
  <path class="d" d="m59.81,3.79c-.22,4.13-.17,8.28.15,12.41"/>
  <path class="d" d="m74.19,6.16c-.3-1.88-2.39-3.27-4.25-2.82-.31.07-.61.19-.86.39-.49.39-.71,1.03-.88,1.64-.76,2.82-.87,5.8-.33,8.67.1.52.22,1.04.5,1.49.72,1.17,2.39,1.52,3.64.96s2.07-1.85,2.33-3.19"/>
  <g>
    <path class="d" d="m88.39,2.62c-2.13.4-4.3.55-6.46.46.03,1.21.02,2.31.01,3.38-.04,3.64-.09,7.28.08,10.92,2.02-.33,4.07-.45,6.11-.36"/>
    <path class="d" d="m82.92,9.87c1.65.15,3.3.3,4.95.46"/>
  </g>
  <path class="d" d="m102.24,6.68c-.03-.97-.09-2.03-.72-2.78-.66-.79-1.8-1.03-2.81-.85s-1.93.68-2.82,1.19c-.19.11-.39.22-.51.4-.12.18-.14.4-.17.61-.11,1.02-.16,2.05-.15,3.08,0,.45.03.94.32,1.3.21.26.53.4.84.5,1.5.5,3.16.33,4.68.78.44.13.89.34,1.15.71.19.27.25.6.31.93.2,1.16.24,2.48-.54,3.36-.54.61-1.37.87-2.17,1-1.03.17-2.16.14-3.04-.43s-1.37-1.81-.84-2.71"/>
</svg>