<?xml version="1.0" encoding="UTF-8"?>
<svg id="uuid-6b61d15d-8f4b-4c17-a4d0-0818b5a73c17" data-name="Layer 21" xmlns="http://www.w3.org/2000/svg" viewBox="0 0 274.8 322.1">
  <path d="m28.15,155.24c-6.76-6.98-8.07-17.5-8.28-27.22-.37-16.97,1.49-33.99,5.52-50.47,2.47-10.11,6.35-20.82,15.11-26.44,1.19-.76,2.55-1.44,3.95-1.27,1.6.19,2.86,1.4,3.92,2.61,10.18,11.62,12.79,28.56,9.52,43.66-3.28,15.1-11.79,28.59-21.66,40.48-4.27,5.14-9.11,10.91-8.43,17.55" style="fill: #fff;"/>
  <path d="m227.16,89.6c.79,9.9,1.98,19.76,3.54,29.57.54,3.35,1.13,6.73,2.48,9.84,1.71,3.94,4.55,7.26,7.35,10.52,3.63,4.22,7.25,8.45,10.88,12.67,1.45-9.93,2.9-19.86,4.09-29.82,2.64-22.2,3.56-46.3-8.43-65.18-5.68-8.95-13.9-16.03-22.65-22.02C187.88,10.16,139.72,2.95,97.45,16.17c-7.55,2.36-14.9,5.33-22.12,8.54-12.36,5.49-25.44,12.83-30.81,22.48,4.56,11.61,12.8,21.74,23.23,28.56,11.29,7.39,24.65,10.79,37.74,14.08,7.8,1.96,15.61,3.92,23.55,5.23,15.22,2.52,30.74,2.63,46.15,1.96,17.49-.76,34.95-2.52,51.97-7.43Z" style="fill: #fff;"/>
  <path d="m110.34,249.44c2.81-.38,5.76.42,8,2.16,1.26.98,2.29,2.23,3.6,3.15,1.2.83,2.58,1.35,3.97,1.78,10.84,3.38,23.08,2.02,32.91-3.67,1.97-1.14,4.04-2.77,4.18-5.04-4.29-.47-8.58-.94-12.87-1.41-5.04-.55-10.15-1.1-15.17-.35-3.87.58-7.63,1.93-11.54,2.13-4.3.23-8.91-.88-13.07,1.24Z" style="fill: none; stroke: #fff; stroke-linecap: round; stroke-linejoin: round; stroke-width: 4px;"/>
  <path d="m30.58,162.28c-.82-2.65-1.65-5.31-2.47-7.96-2.38-.66-5,.55-6.55,2.47s-2.2,4.42-2.47,6.88c-.54,4.86.25,9.75,1.03,14.57.94,5.79,1.87,11.57,2.81,17.36.73,4.53,1.48,9.1,3.19,13.36,1.7,4.21,4.33,8.03,7.66,11.12,2.09-3.24,1.88-7.4,1.59-11.24-1.22-16.26-.57-32.96-4.79-46.55Z" style="fill: none; stroke: #fff; stroke-linecap: round; stroke-linejoin: round; stroke-width: 4px;"/>
  <path d="m250.32,173.15c.58-4.66,1.16-9.33,1.74-13.99.2-1.62.54-3.45,1.93-4.3,1.25-.76,2.95-.37,4.07.57s1.77,2.32,2.3,3.68c2.77,7.21,2.86,15.23,1.53,22.84s-4.01,14.9-6.68,22.15c-2.12,5.76-4.68,12.02-10.13,14.83-.22.11-.44.22-.69.24-1.3.12-1.53-1.82-1.25-3.09,4.52-19.96,6.83-40.05,7.19-42.93Z" style="fill: none; stroke: #fff; stroke-linecap: round; stroke-linejoin: round; stroke-width: 4px;"/>
  <g>
    <path d="m239.84,138.62c.02-.27.03-.53.04-.8-1.07-.91-.79.04-.04.8Z" style="fill: #fff;"/>
    <path d="m244.14,140.26c-1.26-.37-2.63-.46-3.74-1.18-.21-.13-.4-.29-.56-.47-1.22,21.16-.49,42.68-5.85,63.13-5.42,20.7-18.72,40.82-38.6,46.78-3.95,1.18-8.21,1.77-12.14.55-8.25-2.56-13.05-12.25-21.35-14.61-2.48-.71-5.1-.69-7.68-.66-8.28.08-16.57.16-24.82.93-9.82.92-19.88,2.97-28.02,8.74-2.7,1.91-5.16,4.22-8.08,5.73-6.8,3.54-15.29,2.2-21.79-1.9-6.5-4.11-11.27-10.62-15.02-17.48-14.84-27.11-15.6-59.82-15.71-91-.01-3.38.15-7.19,1.02-8.49-3.43,6.35-11.58,8.89-14.6,15.46-2.1,4.58-1.16,9.97-.19,14.94,5.89,29.91,11.78,59.81,17.67,89.72,1.8,9.12,3.72,18.55,8.99,26.08,4.56,6.53,11.24,11.06,17.77,15.45,7.84,5.27,15.74,10.57,24.32,14.4,11.5,5.13,24,7.5,36.49,8.51,9.16.74,18.47.75,27.4-1.45,18.92-4.67,34.27-18.71,47.85-33.14,8.85-9.41,17.42-19.32,23.42-30.9,4.71-9.09,7.74-18.99,10.62-28.87,5.87-20.13,11.29-40.72,11.35-61.76.02-7.4-1.87-16.5-8.74-18.52Zm-79.09,140.67c-2.76,1.79-6.32,2.59-9.3,1.23-3.49-1.59-5.25-5.58-7.98-8.34-4.32-4.37-11.48-5.35-16.75-2.29-4.92,2.86-8.01,8.66-13.3,10.68-6.06,2.31-13.61-2.11-14.82-8.69-.01-.63-.02-1.26,1.31,1.1-2.33-6.42-2.94-14.61,1.92-19.27,4.55-4.38,11.62-3.61,17.81-3,8.84.88,17.76.89,26.6.02,3.05-.3,6.14-.7,9.16-.14,5.97,1.1,11.03,6.28,12.18,12.45,1.15,6.17-1.69,12.92-6.83,16.25Z" style="fill: #fff;"/>
  </g>
  <path d="m127.77,204.1c-2.66,2.2-5.41,4.51-6.85,7.64-1.44,3.13-1.17,7.35,1.56,9.46.88.68,1.93,1.09,2.92,1.61,1.02.54,1.96,1.21,2.95,1.8,7.69,4.6,18.19,3.94,25.25-1.58,1.88-1.47,3.57-3.32,4.29-5.6,1.3-4.11-1.33-9.03-5.47-10.24" style="fill: none; stroke: #fff; stroke-linecap: round; stroke-linejoin: round; stroke-width: 4px;"/>
  <path d="m84.2,127.44c-3.83,2.36-7.89,4.36-12.09,5.95-1.34.51-2.72.99-3.8,1.92s-1.81,2.44-1.38,3.8c.48,1.51,2.21,2.33,3.79,2.3,1.59-.03,3.08-.69,4.56-1.27,3.72-1.45,7.65-2.4,11.62-2.81,4.39-.45,8.83-.24,13.2.32,3.38.43,7.58.72,9.4-2.17,1.35-2.15.48-5.15-1.38-6.87-1.86-1.72-4.45-2.41-6.96-2.77-6.22-.89-13.03-.83-16.96,1.59Z" style="fill: #fff;"/>
  <path d="m184.73,125.06c-4.64.37-9.63.88-13.16,3.93-2.11,1.82-3.32,5.49-1.14,7.22,1.33,1.05,3.22.83,4.9.61,8.21-1.07,16.78-.62,24.44,2.52,2.69,1.1,5.39,2.55,8.29,2.43,2.9-.13,5.94-2.71,5.23-5.52-.41-1.63-1.88-2.74-3.3-3.64-8.25-5.26-18.06-8.12-25.27-7.54Z" style="fill: #fff;"/>
  <path d="m61.81,179.98c-.67-7.55,1.87-15.33,6.87-21.02s12.39-9.22,19.96-9.52c2.2-.09,4.44.09,6.54.75,2.02.63,3.87,1.7,5.61,2.9,9.03,6.26,15.08,16.64,16.08,27.59.08.83.12,1.7-.2,2.47-.45,1.09-1.53,1.78-2.57,2.35-17.06,9.41-39.94,6.86-52.29-5.53Z" style="fill: none; stroke: #fff; stroke-linecap: round; stroke-linejoin: round; stroke-width: 4px;"/>
  <path d="m217.98,180.64c-.91-5.79-1.85-11.66-4.22-17.02-2.37-5.36-6.37-10.26-11.82-12.42-4.04-1.61-8.53-1.6-12.88-1.41-3.72.16-7.5.45-10.97,1.8-6,2.33-10.46,7.63-13.13,13.48-2.66,5.86-3.73,12.29-3.73,18.7,4.9,2.99,9.94,6.04,15.58,7.1,2.27.43,4.6.52,6.91.47,11.79-.24,23.23-4.16,34.26-10.7Z" style="fill: none; stroke: #fff; stroke-linecap: round; stroke-linejoin: round; stroke-width: 4px;"/>
  <path d="m75.86,179.68c-2.74-4.68-3.1-10.67-.94-15.64s6.79-8.79,12.08-9.98c1.52-.34,3.1-.47,4.63-.19,2.68.5,4.94,2.23,7.09,3.91,2.47,1.93,5.04,3.97,6.36,6.81.57,1.23.89,2.57,1.1,3.91.94,6.05-.88,13.21-6.38,15.9-2.32,1.13-4.96,1.32-7.54,1.48-2.23.14-4.48.29-6.69-.05-4.69-.72-8.43-3.98-9.7-6.16Z" style="fill: none; stroke: #fff; stroke-linecap: round; stroke-linejoin: round; stroke-width: 4px;"/>
  <path d="m177.48,183.88c-3.36-4.86-5.45-10.81-4.75-16.67.7-5.86,4.57-11.51,10.19-13.33,2.22-.72,4.59-.84,6.92-.73,5.93.28,12.35,2.47,15.19,7.68,1.93,3.54,1.84,7.85,1.07,11.81-.42,2.12-1.03,4.23-2.15,6.08-2.27,3.76-6.46,6.08-10.78,6.89-4.32.81-8.78.29-13.08-.59-1.83-.37-3.93-1.05-2.61-1.14Z" style="fill: none; stroke: #fff; stroke-linecap: round; stroke-linejoin: round; stroke-width: 4px;"/>
</svg>