<?xml version="1.0" encoding="UTF-8"?>
<svg id="uuid-5fd48f9c-f124-4ef9-a11e-a955df4ad388" data-name="Layer 19" xmlns="http://www.w3.org/2000/svg" viewBox="0 0 323.23 92.81">
  <defs>
    <style>
      
}
    </style>
  </defs>
  <path class="services-letter" d="m6.37,57.42c11.67-13.69,23.33-27.39,35-41.08,1.23-1.45,2.5-2.96,3-4.79s.01-4.08-1.63-5.04c-2.37-1.38-5.52.9-6.05,3.59-.53,2.69.68,5.38,1.91,7.83,2.77,5.53,5.81,11.07,6.87,17.17s-.28,13.03-5.02,17c-4.82,4.04-11.98,4.07-17.91,1.98-4.55-1.6-9.17-5.09-9.31-9.92-.13-4.64,4.32-8.5,8.94-8.95s9.13,1.81,12.67,4.8c3.54,3,6.37,6.74,9.62,10.05,1.67,1.71,3.37,4.38,5.74,4.7,3.48.46,6.59-2.12,8.86-4.78,2.22-2.6,4.14-5.96,5.7-9.01.65-1.27.98-3.28-.37-3.74-1.02-.35-2,.63-2.58,1.54-2.03,3.18-3.21,7.4-3.38,11.18-.07,1.65.1,3.46,1.21,4.68s2.77,1.18,4.09.16c3.8-4.67,7.22-9.64,10.22-14.85.42-.73.85-1.58.58-2.38-.39-1.18-2.25-1.33-3.02-.37-.77.97-.45,2.52.48,3.33s2.3.98,3.51.72c1.21-.25,2.32-.87,3.48-1.51-2.37,4.04-4.49,8.23-6.34,12.53-.32.74-.63,1.5-.64,2.3s.35,1.66,1.07,2.01" style="fill: none; stroke: #000; stroke-linecap: round; stroke-linejoin: round; stroke-width: 2.5px;"/>
  <path class="services-letter" d="m72.5,56.49c.99.64,2.35.4,3.33-.27s1.65-1.68,2.29-2.66c3.47-5.28,6.94-11.07,10.41-16.35-.4,5.28-.3,10.06-.7,15.34-.09,1.25.07,2.88,1.28,3.18,1.24.31,2.16-1.11,2.64-2.3,2.17-5.42,3.72-9.89,5.35-15.05,2.38.34,4.88-.31,6.62-1.88-1.91,6.12-2.83,10.24-4.74,16.36-.24.78-.46,1.73.08,2.35.7.8,2.02.36,2.87-.27,2.55-1.87,3.09-2.81,4.21-5.77,1.12-2.96,1.94-6.05,3.48-8.81.91-1.62,2.16-3.19,3.92-3.79s4.06.13,4.64,1.9c.13-1.28-1.36-2.26-2.64-2.07-1.28.19-2.28,1.17-3.09,2.17-2.3,2.85-3.74,6.34-4.31,9.95-.26,1.63-.33,3.34.24,4.89s1.91,2.4,3.55,2.59c0,0,1.66.14,2.17-.06,6.09-2.39,10.21-10.33,14.58-16.8.27-.4.56-.85.53-1.33-.04-.96-1.25-1.46-2.19-1.28-1.93.39-2.98,2.45-3.67,4.3-1.28,3.4-2.32,5.9-3.11,9.45-.41,1.85-.57,4.18,1.02,5.21,1.57,1.02,3.65-.06,5.06-1.29,2.39-2.07,4.32-4.6,6.24-7.1,2.16-2.83,4.33-4.16,6.49-7,.69-.91,1.42-2.1.9-3.11-.63-1.22-2.66-.93-3.38.23s-.48,2.68-.02,3.97c.73,2.03,1.92,3.85,2.98,5.72,1.06,1.87,2.02,2.37,2.22,4.52s-.52,4.48-2.26,5.75c-1.34.98-3.07,1.21-4.73,1.25-1.94.05-3.95-.14-5.67-1.05-1.72-.91-3.09-2.67-3.08-4.61,0-2.58,2.48-4.66,5.04-4.98,2.56-.32,5.11.73,7.31,2.08,2.2,1.35,4.22,3.01,6.54,4.14,2.32,1.13,5.11,2.17,7.48,1.13" style="fill: none; stroke: #000; stroke-linecap: round; stroke-linejoin: round; stroke-width: 2.5px;"/>
  <path class="services-letter" d="m216.45,5.66c-9.42-1.03-15.23,4.17-18.51,8.89-3.28,4.71-5.09,10.27-6.85,15.74-1.11,3.45-2.22,6.89-3.33,10.34-1.33,4.15-2.63,8.84-.6,12.69,2.7,5.12,10.21,5.87,15.26,3.05s8.18-8.07,10.99-13.13c4.26-7.66,8.4-15.59,9.95-24.22.5-2.8.71-5.78-.36-8.42s-3.73-4.8-6.56-4.49c-3.58.4-5.77,4.86-4.5,8.23,1.27,3.37,5.11,5.32,8.71,5.16,3.6-.16,6.93-2.06,9.62-4.47" style="fill: none; stroke: #000; stroke-linecap: round; stroke-linejoin: round; stroke-width: 2.5px;"/>
  <path class="services-letter" d="m216.35,56.79c13.88-9.28,24.09-23.91,28.02-40.14.47-1.94.84-4.02.14-5.89-.71-1.87-2.9-3.3-4.73-2.5-1.41.62-2.05,2.22-2.56,3.67-8.02,22.89-16.03,45.77-24.05,68.66-.96,2.74-1.4,6.7,1.32,7.7,2.09.77,4.19-1.07,5.48-2.88,5.54-7.76,6.95-18.31,3.65-27.25,18.26-6.63,32.33-23.65,35.4-42.83.51-3.2-.46-7.79-3.7-7.56-2.15.15-3.35,2.5-4.11,4.52-9.21,24.52-16.96,49.59-23.22,75.02-.31,1.26-.45,2.92.69,3.53,1.08.57,2.33-.32,3.17-1.21,7.98-8.41,10.32-21.7,5.42-32.15,11.19-2.95,21.04-10.64,26.6-20.79-1.18-1.62-3.82-1.38-5.32-.06-1.5,1.32-2.13,3.34-2.71,5.26-.81,2.7-1.61,5.4-2.42,8.1-.54,1.79-.94,4.06.52,5.24,1.62,1.3,3.99.06,5.58-1.28,5.82-4.87,10.53-11.07,13.66-17.99-.75-1.37-3.13-1.01-3.71.43s.45,3.19,1.92,3.71,3.14.04,4.41-.86c1.26-.91,2.2-2.19,3.11-3.45-2.94,5.03-5.45,10.31-7.5,15.76-.36.96-.71,2.05-.29,2.99.53,1.21,2.16,1.61,3.42,1.19s2.22-1.41,3.11-2.39c4.22-4.61,8.07-9.55,11.5-14.77.67-1.01,1.29-2.46.43-3.32-1.17-1.17-3.01.45-3.76,1.92-1.55,3.01-2.82,6.16-3.79,9.4-.45,1.5-.84,3.06-.64,4.61.19,1.55,1.08,3.11,2.54,3.68,2.44.96,5.01-1.15,6.35-3.4,1.4-2.34,2.21-4.97,3.38-7.43,1.17-2.46,2.81-4.86,5.26-6.05,2.45-1.19,5.83-.77,7.32,1.52-.34-1.94-2.85-2.86-4.71-2.2-1.86.65-3.14,2.35-4.17,4.03-1.82,2.97-3.22,6.19-4.16,9.54-.28.98-.51,2.05-.16,3.01.65,1.79,3.11,2.33,4.86,1.56,1.74-.77,2.91-2.43,3.95-4.03,7.95-12.28,13.56-26.07,16.44-40.41.34-1.69.4-3.9-1.16-4.63-1.01-.48-2.27,0-3.02.84s-1.1,1.94-1.43,3.01c-2.65,8.82-4.57,17.85-5.73,26.99-.54,4.27-.87,8.85,1.17,12.64s7.31,6.13,10.81,3.62" style="fill: none; stroke: #000; stroke-linecap: round; stroke-linejoin: round; stroke-width: 2.5px;"/>
  <path class="services-letter" d="m103.76,23.86c2.02.16,3.84-2.02,3.34-3.97-1.3.35-2.3,1.6-2.36,2.94-.06,1.34.82,2.68,2.09,3.14" style="fill: none; stroke: #000; stroke-linecap: round; stroke-linejoin: round; stroke-width: 2.5px;"/>
</svg>