<svg viewBox="0 0 269.17 82.22" xmlns="http://www.w3.org/2000/svg"><g fill="none" stroke="#000" stroke-linecap="round" stroke-linejoin="round" stroke-width="5"><path d="m203.25 2.28c-.21 2.15-.43 4.29-.64 6.44"/><path d="m199.85 12.9c1.46-.22 2.62-1.29 3.98-1.86s3.36-.32 3.72 1.11c.15.59-.04 1.22-.28 1.78-1.13 2.53-3.63 4.4-6.37 4.78 1.12-.51 2.3-.88 3.5-1.12.43-.08.88-.15 1.28 0 .35.13.62.39.86.68 1.59 1.92 1.57 4.99-.04 6.89s-4.63 2.42-6.78 1.17"/><path d="m203.07 29.87c-.3 2.65-.6 5.3-.91 7.95.03-.34.05-.67.08-1.01"/><path d="m113.65 10.56c-1.72-1.03-3.73-2.09-5.62-1.43-1.47.51-2.4 1.93-3.22 3.26-.44.71-.89 1.46-.99 2.29-.19 1.72 1.18 3.22 2.66 4.11s3.18 1.46 4.43 2.66c2.2 2.12 2.21 6.1 0 8.23-2.2 2.13-6.17 1.98-8.21-.29"/><path d="m80.43 10.21c-1.48 6.74.48 13.79-.29 20.66 2.45-.07 4.91-.13 7.36-.2.15 0 .33-.02.41-.15s-.11-.34-.21-.23"/><path d="m81.44 19.61c3.07.41 6.19.43 9.27.05"/><path d="m81.44 19.61c3.07.41 6.19.43 9.27.05"/><path d="m81.44 19.61c3.07.41 6.19.43 9.27.05"/><path d="m80.87 9.86c2.83-.66 5.79-.8 8.67-.41"/><path d="m128.1 9.26c.17 7.19.33 14.39.5 21.58"/><path d="m55.04 32.26c-.31-8.14-.62-16.28-.93-24.42 1.48.11 2.95.23 4.43.34 1.47.11 3 .24 4.3.94 2.52 1.36 3.5 4.46 3.89 7.3.41 2.94.45 5.92.11 8.87-.11.93-.26 1.87-.68 2.7-.84 1.63-2.61 2.58-4.39 3.02-1.96.49-4.05.48-6.73 1.25z"/><path d="m153.29 11.06c-.21-1.72-1.83-3.04-3.54-3.35s-3.47.22-5.03.99c-.68.34-1.36.74-1.79 1.37-.38.55-.53 1.23-.65 1.88-.96 5.01-1.11 10.17-.45 15.23.15 1.11.35 2.25 1 3.16 1.3 1.81 3.86 2.05 6.1 2.12 1.29.04 2.73.02 3.64-.88.51-.5.76-1.19.96-1.87.62-2.15.81-4.42.54-6.64-1.53.44-3.16.53-4.73.25"/><path d="m164.28 34.17c1.15-8.94 1.4-17.99.75-26.98"/><path d="m165.64 5.93c.79 2.26 1.59 4.52 2.38 6.78 2.57 7.32 5.15 14.65 8.29 21.16-.08-9.22-.16-18.45-.23-27.67"/><path d="m165.64 5.93c.79 2.26 1.59 4.52 2.38 6.78 2.57 7.32 5.15 14.65 8.29 21.16-.08-9.22-.16-18.45-.23-27.67"/><path d="m138.31 72.86c-.11.5-.22 1.01-.33 1.51-.59-9.12-.6-18.27 1.44-26.46 2.54-2.17 6.8-1.74 8.99.77 2.2 2.51 2.13 6.64-.02 9.2-2.14 2.56-6.04 3.38-9.11 2.08"/><path d="m146.74 61.32c1.3 4.17 2.6 8.33 3.89 12.5"/><path d="m115.94 50.57c3.72-1.3 7.66-1.91 11.58-1.81"/><path d="m122.36 50.95c-1.1 7-1.35 14.13-.76 21.19"/><path d="m189.51 50.57c3.72-1.3 7.66-1.91 11.58-1.81"/><path d="m195.92 50.95c-1.1 7-1.35 14.13-.76 21.19"/><path d="m8.04 47.76c.3 8.2.2 16.41-.3 24.6-.02.29.01.66.28.76s.36-.52.1-.4"/><path d="m212.37 47.76c.3 8.2.2 16.41-.3 24.6-.02.29.01.66.28.76s.36-.52.1-.4"/><path d="m231.7 48.37c-1.38-.56-3.02-.01-4.11 1-1.09 1.02-1.72 2.43-2.22 3.83-1.3 3.64-1.91 7.53-1.78 11.4.07 2.08.39 4.25 1.6 5.94s3.53 2.74 5.45 1.92c1.86-.8 2.69-2.94 3.23-4.89.8-2.88 1.4-5.82 1.8-8.78.28-2.14.45-4.37-.3-6.39s-2.69-3.63-3.65-4.02z"/><path d="m165.23 73.07c.35-8.41 1.34-16.8 2.95-25.06 2.08-.4 4.22-.52 6.33-.36.8 8.55 1.6 17.11 2.4 25.66"/><path d="m168.24 61.54c1.61-1.15 3.68-1.58 5.59-1.18"/><path d="m22.12 48.74c-.09 7.81.13 15.62.65 23.41 3.46-1.12 7.17-1.41 10.75-.85"/><path d="m45.31 48.74c-.09 7.81.13 15.62.65 23.41 3.46-1.12 7.17-1.41 10.75-.85"/><path d="m104 50.95c-1.72-1.03-3.73-2.09-5.62-1.43-1.47.51-2.4 1.93-3.22 3.26-.44.71-.89 1.46-.99 2.29-.19 1.72 1.18 3.22 2.66 4.11s3.18 1.46 4.43 2.66c2.2 2.12 2.21 6.1 0 8.23-2.2 2.13-6.17 1.98-8.21-.29"/><path d="m247.27 74.57c1.15-8.94 1.4-17.99.75-26.98"/><path d="m248.64 46.33c.79 2.26 1.59 4.52 2.38 6.78 2.57 7.32 5.15 14.65 8.29 21.16-.08-9.22-.16-18.45-.23-27.67"/><path d="m248.64 46.33c.79 2.26 1.59 4.52 2.38 6.78 2.57 7.32 5.15 14.65 8.29 21.16-.08-9.22-.16-18.45-.23-27.67"/><path d="m69.06 48.58c.4 5.27.8 10.54 1.21 15.82.12 1.62.25 3.23.37 4.85.05.68.11 1.39.47 1.97.81 1.33 2.68 1.41 4.24 1.33 1.13-.06 2.37-.16 3.2-.93.82-.77 1.02-1.98 1.15-3.1.79-6.69 1.01-13.45.67-20.19"/></g></svg>