<?xml version="1.0" encoding="UTF-8"?>
<svg id="uuid-90b6bc00-f476-4551-8be9-c47c6e28f7b1" data-name="her-2" xmlns="http://www.w3.org/2000/svg" viewBox="0 0 467.23 615.11">
  <g>
    <path d="m14.14,540.91c-.03-3.35-.71-7.59-3.95-8.44-1.87-.49-3.88.53-5.05,2.07-1.17,1.53-1.66,3.48-1.95,5.39-.4,2.62-.49,5.27-.54,7.92-.06,2.92.24,6.42,2.8,7.82,1.45.79,3.38.58,4.63-.5,1.24-1.09,1.72-2.97,1.13-4.52" style="fill: none; stroke: #000; stroke-linecap: round; stroke-linejoin: round; stroke-width: 5px;"/>
    <path d="m28.76,556.94c-.1.45-.2.9-.3,1.35-.52-8.12-.53-16.28,1.28-23.58,2.26-1.93,6.06-1.55,8.01.69,1.96,2.24,1.89,5.92-.02,8.2-1.91,2.28-5.38,3.01-8.12,1.85" style="fill: none; stroke: #000; stroke-linecap: round; stroke-linejoin: round; stroke-width: 5px;"/>
    <path d="m36.28,546.66c1.16,3.71,2.31,7.42,3.47,11.14" style="fill: none; stroke: #000; stroke-linecap: round; stroke-linejoin: round; stroke-width: 5px;"/>
    <path d="m54.61,533.89c.11,7.75.22,15.49.33,23.24,2.83-.88,5.82-1.22,8.78-.99" style="fill: none; stroke: #000; stroke-linecap: round; stroke-linejoin: round; stroke-width: 5px;"/>
    <path d="m56.67,544.74c2.44.27,4.88.54,7.32.81" style="fill: none; stroke: #000; stroke-linecap: round; stroke-linejoin: round; stroke-width: 5px;"/>
    <path d="m56.13,533.62c3.25,0,6.5,0,9.75,0" style="fill: none; stroke: #000; stroke-linecap: round; stroke-linejoin: round; stroke-width: 5px;"/>
    <path d="m81.03,559.11c.67-8.47,1.33-16.95,2-25.42,2.49-.31,5.04-.16,7.47.46,1.13,7.56,2.7,15.07,3.04,22.7.01.31.1.71.41.75.31.04.19-.63,0-.39" style="fill: none; stroke: #000; stroke-linecap: round; stroke-linejoin: round; stroke-width: 5px;"/>
    <path d="m84.04,547.45c2.17-.18,4.34-.36,6.5-.54" style="fill: none; stroke: #000; stroke-linecap: round; stroke-linejoin: round; stroke-width: 5px;"/>
    <path d="m108.7,534.16c3.62.12,7.24-.12,10.81-.7" style="fill: none; stroke: #000; stroke-linecap: round; stroke-linejoin: round; stroke-width: 5px;"/>
    <path d="m113.58,536.06c-1.15,7.89-1.45,15.91-.88,23.87" style="fill: none; stroke: #000; stroke-linecap: round; stroke-linejoin: round; stroke-width: 5px;"/>
    <path d="m133.9,537.41c.05-1.85.1-3.71.15-5.56-.28,8.9-.25,17.82.11,26.72,0-.72,0-1.45,0-2.17" style="fill: none; stroke: #000; stroke-linecap: round; stroke-linejoin: round; stroke-width: 5px;"/>
    <path d="m146.63,533.97c1.32,8.21,3.95,16.21,7.75,23.61,1.23-8.16,2.84-16.27,4.82-24.28" style="fill: none; stroke: #000; stroke-linecap: round; stroke-linejoin: round; stroke-width: 5px;"/>
    <path d="m173.74,533.9c.35,7.74.7,15.48,1.05,23.22,2.88-2.02,6.57-2.86,10.04-2.28" style="fill: none; stroke: #000; stroke-linecap: round; stroke-linejoin: round; stroke-width: 5px;"/>
    <path d="m175.9,546.38c3.35-.97,6.81-1.54,10.29-1.7" style="fill: none; stroke: #000; stroke-linecap: round; stroke-linejoin: round; stroke-width: 5px;"/>
    <path d="m175.09,533.62c2.82-1.13,5.91-1.61,8.94-1.38" style="fill: none; stroke: #000; stroke-linecap: round; stroke-linejoin: round; stroke-width: 5px;"/>
  </g>
  <g>
    <path d="m257.95,533.63c3.72-1.3,7.66-1.91,11.58-1.81" style="fill: none; stroke: #000; stroke-linecap: round; stroke-linejoin: round; stroke-width: 5px;"/>
    <path d="m264.37,534c-1.1,7-1.35,14.13-.76,21.19" style="fill: none; stroke: #000; stroke-linecap: round; stroke-linejoin: round; stroke-width: 5px;"/>
    <path d="m282.78,533.36c.45,7.45.67,14.91.65,22.37,2.27-.62,4.53-1.23,6.8-1.85" style="fill: none; stroke: #000; stroke-linecap: round; stroke-linejoin: round; stroke-width: 5px;"/>
    <path d="m285.27,545.34c2.22-.92,4.66-1.3,7.04-1.08" style="fill: none; stroke: #000; stroke-linecap: round; stroke-linejoin: round; stroke-width: 5px;"/>
    <path d="m284.66,534.04c2.6-.83,5.39-1.04,8.08-.59" style="fill: none; stroke: #000; stroke-linecap: round; stroke-linejoin: round; stroke-width: 5px;"/>
    <path d="m320.49,537.19c-1.69-1.65-2.32-4.88-4.64-5.05-1.1-.08-2.13.68-2.72,1.64-.59.97-.82,2.11-1.04,3.23-.83,4.22-1.66,8.49-1.46,12.79.1,2.09.65,4.48,2.45,5.44,1.31.7,2.99.38,4.14-.58,1.14-.96,1.78-2.46,1.92-3.98" style="fill: none; stroke: #000; stroke-linecap: round; stroke-linejoin: round; stroke-width: 5px;"/>
    <path d="m334.88,533.78c-.48,7.83-.59,15.69-.33,23.54" style="fill: none; stroke: #000; stroke-linecap: round; stroke-linejoin: round; stroke-width: 5px;"/>
    <path d="m347.17,534.22c.27,7.13.54,14.26.8,21.38" style="fill: none; stroke: #000; stroke-linecap: round; stroke-linejoin: round; stroke-width: 5px;"/>
    <path d="m336.43,546c3.1-1.18,6.43-1.71,9.73-1.52" style="fill: none; stroke: #000; stroke-linecap: round; stroke-linejoin: round; stroke-width: 5px;"/>
    <path d="m360.29,558.18c.03-8.06.05-16.12.51-24.51,2.05,8.58,7.76,15.67,11.3,23.71" style="fill: none; stroke: #000; stroke-linecap: round; stroke-linejoin: round; stroke-width: 5px;"/>
    <path d="m372.16,534.86c.11,7.18.22,14.36.34,21.55,0,.2.04.44.22.51.18.07.31-.32.11-.3" style="fill: none; stroke: #000; stroke-linecap: round; stroke-linejoin: round; stroke-width: 5px;"/>
    <path d="m385.53,534.21c.3,8.2.2,16.41-.3,24.6-.02.29.01.66.28.76.27.1.36-.52.1-.4" style="fill: none; stroke: #000; stroke-linecap: round; stroke-linejoin: round; stroke-width: 5px;"/>
    <path d="m410.94,541.28c-.34-2.75-1.19-5.43-2.51-7.85-.17-.32-.37-.64-.69-.8-.39-.19-.86-.07-1.26.09-2.83,1.16-4.5,4.18-5.49,7.15-1.37,4.11-1.86,8.54-1.41,12.86.18,1.72.58,3.57,1.87,4.69,1.58,1.37,4.08,1.12,5.72-.18,1.63-1.3,2.5-3.4,2.85-5.5" style="fill: none; stroke: #000; stroke-linecap: round; stroke-linejoin: round; stroke-width: 5px;"/>
    <path d="m424.44,558.6c.35-8.41,1.34-16.8,2.95-25.06,2.08-.4,4.22-.52,6.33-.36.8,8.55,1.6,17.11,2.4,25.66" style="fill: none; stroke: #000; stroke-linecap: round; stroke-linejoin: round; stroke-width: 5px;"/>
    <path d="m427.46,547.08c1.61-1.15,3.68-1.58,5.59-1.18" style="fill: none; stroke: #000; stroke-linecap: round; stroke-linejoin: round; stroke-width: 5px;"/>
    <path d="m449.99,533.78c-.09,7.81.13,15.62.65,23.41,3.46-1.12,7.17-1.41,10.75-.85" style="fill: none; stroke: #000; stroke-linecap: round; stroke-linejoin: round; stroke-width: 5px;"/>
  </g>
  <g>
    <path d="m150.24,591.04c-1.8-1.08-3.91-2.19-5.89-1.5-1.54.54-2.52,2.03-3.38,3.42-.46.75-.94,1.53-1.03,2.4-.2,1.8,1.24,3.38,2.79,4.31,1.55.93,3.34,1.53,4.64,2.78,2.31,2.23,2.32,6.4,0,8.63-2.31,2.23-6.47,2.08-8.61-.31" style="fill: none; stroke: #000; stroke-linecap: round; stroke-linejoin: round; stroke-width: 5px;"/>
    <path d="m164.26,592.2c-1.56,7.07.5,14.46-.3,21.66,2.57-.07,5.15-.14,7.72-.21.16,0,.35-.02.43-.16s-.11-.36-.22-.24" style="fill: none; stroke: #000; stroke-linecap: round; stroke-linejoin: round; stroke-width: 5px;"/>
    <path d="m165.31,602.05c3.22.44,6.49.45,9.72.06" style="fill: none; stroke: #000; stroke-linecap: round; stroke-linejoin: round; stroke-width: 5px;"/>
    <path d="m164.72,591.82c2.97-.69,6.07-.84,9.09-.43" style="fill: none; stroke: #000; stroke-linecap: round; stroke-linejoin: round; stroke-width: 5px;"/>
    <path d="m191.15,612.78c.17.23-.41.32-.49.04-.07-.28.12-.57.09-.86-.63-7.18-.81-14.39.49-21.75,2.7-1.31,5.94-.79,8.77.24,1.26.46,2.58,1.1,3.21,2.3.44.85.47,1.86.28,2.8-.42,2.16-1.94,4.07-3.94,4.98-1.14.51-2.4.71-3.65.81-1.62.13-3.25.13-4.87-.02" style="fill: none; stroke: #000; stroke-linecap: round; stroke-linejoin: round; stroke-width: 5px;"/>
    <path d="m198.91,602.05c1.32,4.07,2.63,8.13,3.95,12.2" style="fill: none; stroke: #000; stroke-linecap: round; stroke-linejoin: round; stroke-width: 5px;"/>
    <path d="m216.39,589.61c3.28,8.16,6.13,16.5,8.51,24.96.45-4.76,1.31-9.48,2.56-14.1,1.02-3.73,2.3-7.43,2.64-11.29-.05.3-.1.59-.15.89" style="fill: none; stroke: #000; stroke-linecap: round; stroke-linejoin: round; stroke-width: 5px;"/>
    <path d="m243.07,591.44c.17,7.54.35,15.09.52,22.63" style="fill: none; stroke: #000; stroke-linecap: round; stroke-linejoin: round; stroke-width: 5px;"/>
    <path d="m269.21,596.28c-.08-1.33-.16-2.68-.63-3.93-.47-1.25-1.4-2.39-2.67-2.78-1.47-.46-3.13.21-4.17,1.34-1.05,1.13-1.58,2.65-1.88,4.16-.51,2.54-.44,5.16-.37,7.75.06,2.08.11,4.15.17,6.23.03,1.06.07,2.16.56,3.1.64,1.23,1.94,1.95,3.16,2.6.34.18.69.36,1.08.36.61-.01,1.09-.51,1.46-1,1.12-1.48,1.88-3.23,2.21-5.05" style="fill: none; stroke: #000; stroke-linecap: round; stroke-linejoin: round; stroke-width: 5px;"/>
    <path d="m283.04,591.15c.52,7.6,1.04,15.2,1.55,22.8,3.59-.91,7.18-1.82,10.78-2.73" style="fill: none; stroke: #000; stroke-linecap: round; stroke-linejoin: round; stroke-width: 5px;"/>
    <path d="m285.58,602.52c2.3-.09,4.59-.33,6.86-.72" style="fill: none; stroke: #000; stroke-linecap: round; stroke-linejoin: round; stroke-width: 5px;"/>
    <path d="m283.45,591.56c3.09-.39,6.19-.78,9.28-1.16.21-.03.5-.01.56.19.06.21-.41.2-.27.04" style="fill: none; stroke: #000; stroke-linecap: round; stroke-linejoin: round; stroke-width: 5px;"/>
    <path d="m318.44,591.21c-1.6-1.11-3.35-2.27-5.3-2.24-1.66.03-3.22.96-4.23,2.28-1.01,1.32-1.5,2.98-1.61,4.63-.08,1.16.04,2.41.73,3.34,1.16,1.57,3.41,1.73,5.12,2.66,2.15,1.17,3.36,3.56,4,5.92.18.67.33,1.38.2,2.07-.17.96-.86,1.75-1.64,2.33-1.23.91-2.8,1.41-4.31,1.18s-2.93-1.23-3.49-2.65" style="fill: none; stroke: #000; stroke-linecap: round; stroke-linejoin: round; stroke-width: 5px;"/>
  </g>
  <g>
    <path d="m223.82,521.15c-.32,3.17-.63,6.34-.95,9.52" style="fill: none; stroke: #000; stroke-linecap: round; stroke-linejoin: round; stroke-width: 5px;"/>
    <path d="m218.79,536.86c2.15-.32,3.88-1.91,5.89-2.75,2.01-.84,4.96-.47,5.51,1.64.22.87-.05,1.8-.42,2.62-1.67,3.75-5.36,6.51-9.42,7.06,1.65-.75,3.39-1.31,5.18-1.66.63-.12,1.3-.22,1.9,0,.51.19.92.58,1.26,1,2.35,2.84,2.33,7.37-.05,10.19-2.38,2.81-6.84,3.58-10.03,1.73" style="fill: none; stroke: #000; stroke-linecap: round; stroke-linejoin: round; stroke-width: 5px;"/>
    <path d="m223.55,561.94c-.45,3.92-.89,7.83-1.34,11.75.04-.5.08-.99.12-1.49" style="fill: none; stroke: #000; stroke-linecap: round; stroke-linejoin: round; stroke-width: 5px;"/>
  </g>
  <path d="m212.84,253.21c1.49,4.36,6.89,8.53,11.6,10.39,11.86,4.69,27.03,1.67,35.46-7.04,7.77-8.02,9.47-19.68,6.53-29.9-2.47-8.58-8.25-16.69-16.98-21.06-8.73-4.37-20.53-4.35-28.31,1.24,5.71-1.74,12.26-.41,17.16,2.71,4.9,3.11,8.28,7.81,10.42,12.79,2.73,6.37,3.56,13.54,1.12,20-2.44,6.46-8.48,12.02-16.03,13.47-7.41,1.42-13.93-.12-20.97-2.6Z" style="fill: #fff; stroke: #000; stroke-linecap: round; stroke-linejoin: round; stroke-width: 5px;"/>
  <g>
    <path d="m156.71,70.93c10.95-3.23,20.93-9.91,28.27-18.93-5.85,18.75-11.71,37.5-17.56,56.26-4.66,14.92-11.84,32.25-26.74,35.03-8.96,1.67-18.3-3.05-24.03-10.38-5.74-7.33-8.28-16.86-8.98-26.27-1.51-20.3,5.15-40.92,17.29-56.93,12.14-16.01,29.53-27.44,48.4-33.15,14.54-4.4,32.68-4.39,42.08,7.92,7.95,10.42,6.09,26.45-1.83,36.9-7.92,10.45-20.53,16.03-33.12,18.51,8.74-6.29,18.4-11.19,28.55-14.51,3.9-1.27,8.53-2.19,11.76.4,2.08,1.67,3.04,4.42,3.71,7.05,4.56,17.98.01,38.16-11.77,52.18-11.78,14.02-30.45,21.48-48.27,19.27-3.62-.45-7.3-1.31-10.32-3.43-8.67-6.08-8.51-19.13-7.4-29.91" style="fill: none; stroke: #000; stroke-linecap: round; stroke-linejoin: round; stroke-width: 7px;"/>
    <path d="m220.26,146.53c14.56-12.35,26.54-27.95,34.87-45.43-5.14,12.18-10.39,25.33-7.93,38.38.47,2.52,1.9,5.5,4.37,5.39,1.12-.05,2.1-.77,2.95-1.52,2.12-1.86,3.92-4.11,5.3-6.62" style="fill: none; stroke: #000; stroke-linecap: round; stroke-linejoin: round; stroke-width: 7px;"/>
    <path d="m257.34,140.72c24.57-32.18,46.89-66.2,66.74-101.71,1.27-2.27,2.56-4.65,2.66-7.27.11-2.62-1.39-5.5-3.88-5.97-1.59-.3-3.18.41-4.58,1.24-9.07,5.39-13.95,15.87-18.3,25.72-11.75,26.63-23.63,53.69-27.92,82.64-.37,2.47-.62,5.22.77,7.26,3.05,4.5,9.87,1.33,13.86-2.29,27.13-24.65,45.9-57.46,64.21-89.68,3.32-5.85,6.74-12,7.08-18.78.19-3.75-1.73-8.52-5.35-8.24-1.41.11-2.64,1.02-3.73,1.95-8.58,7.39-13.27,18.42-17.68,29.04-9.63,23.21-19.33,46.62-24.11,71.4-.71,3.67-1.3,7.53-.22,11.1,1.08,3.57,4.33,6.72,7.93,6.32,2.21-.25,4.1-1.73,5.74-3.28,5.2-4.91,9.28-11.08,11.81-17.87" style="fill: none; stroke: #000; stroke-linecap: round; stroke-linejoin: round; stroke-width: 7px;"/>
    <path d="m263.3,86.28c3.66,0,7.17-3.22,7-7s-3.08-7-7-7c-3.66,0-7.17,3.22-7,7s3.08,7,7,7h0Z"/>
    <path d="m263.3,86.28c3.66,0,7.17-3.22,7-7s-3.08-7-7-7c-3.66,0-7.17,3.22-7,7s3.08,7,7,7h0Z"/>
  </g>
  <path d="m220.75,367.65c-4.92,11.85-9.85,23.69-14.77,35.54,5.75,2.4,11.5,4.8,17.25,7.21-8.04,13.32-15.81,26.81-23.29,40.46,4.65,1.9,9.09,4.28,13.24,7.11-6.08,12.14-12.15,24.29-18.23,36.43,16.42-12.2,32.15-25.33,47.07-39.32-3.62-3.53-7.23-7.05-11.26-10.23,7.93-14.43,15.2-29.21,21.8-44.3-5.2-2-10.17-4.58-14.79-7.69,8.44-14.3,18.83-4.04,24.04-19.8-9.55-3.06-19.2-5.84-28.91-8.34-1.28,10.65-7.88-4.4-12.66,5.2" style="fill: none; stroke: #000; stroke-linecap: round; stroke-linejoin: round; stroke-width: 7px;"/>
  <path d="m264.39,190.2c-18.53-6.12-39.35-10.42-57.1-2.3-8.09,3.7-14.94,9.79-20.36,16.84-8.82,11.47-14.09,26.06-12.65,40.47,1.44,14.4,10.2,28.31,23.43,34.19,6.37,2.83,13.41,3.76,20.36,4.43,15.7,1.5,32.25,1.66,46.35-5.4,16.35-8.19,27.28-26.19,26.99-44.48-.29-18.29-11.78-35.94-28.38-43.61" style="fill: none; stroke: #000; stroke-linecap: round; stroke-linejoin: round; stroke-width: 7px;"/>
  <path d="m371.38,240.05s-98.19-.15-143.17,0c-44.98.15-130.76,0-130.76,0,13.99,11.56,27.3,27.44,42.48,37.39,35.06,22.96,79.17,30.88,120.48,23.79,41.31-7.1,81.85-31.03,110.97-61.17Z" style="fill: #fff; stroke: #000; stroke-linecap: round; stroke-linejoin: round; stroke-width: 7px;"/>
  <g>
    <path d="m134.46,289.55c-.51-.22-.9-.37-1.21-.47-2.02,4.35-3.9,8.71-5.7,13.21.3.24.57.52.81.85.36.51,2.16.96,2.93,1.15,2.57.64,5.22,1.3,7.44.85,1.67-.34,3.22-1.6,4.17-3.39.94-1.77,1.11-3.76.46-5.32-1.37-3.26-5.47-5.39-8.89-6.88Z"/>
    <path d="m273.91,322.32c-.4-2.9-4.26-4.84-7.6-4.99-3.13-.15-6.35.69-9.78,1.56-.25.06-.5.13-.76.19.51,4.09.97,8.12,1.39,12.11,2.83.09,5.71-.23,8.43-.97,4.36-1.18,8.78-4.54,8.31-7.91Z"/>
    <path d="m216.86,321.04l-3.88,13.66c3.22.42,6.41,1.07,9.55,1.94.47-4.83,1.04-9.65,1.7-14.44l-7.37-1.15Z"/>
    <path d="m384.09,280.9c8.28-.63,12.14-19.99,10.62-28.15-1.52-8.16-10.91-13.89-18.86-11.5l-4.17,1.32c-46.15,48.11-119.77,67.85-183.8,49.26-33.05-9.59-62.8-28.3-89.69-49.78-11.41-3.22-20.31-2.81-27.45.75-7.14,3.55-12.62,9.93-16.18,17.06-3.14,6.28-4.87,13.86-2,20.26,2.52,5.59,9.63,9.16,15.09,7.1-11.57,7.39-15.29,25.28-6.93,36.39,4.45,5.91,11.73,9.69,19.14,9.59,4.98-.07,9.91-1.96,13.71-5.16-8.04,12.77-5.41,32.04,7.04,41.08,14.42,10.47,37.84,4.17,45.44-12.01-1.58,8.25-3.09,17.04.09,24.81,4.3,10.5,17.16,16.24,28.17,13.48,11.01-2.76,19.39-13.01,23.98-21.41-2.41,12.12,9,23.07,20.9,26.44,10.75,3.04,22.85,1.93,32.3-4.03,7.85-4.95,13.55-13.39,14.89-22.5,1.33,9.9,11.9,18.13,22.45,19.15,11.75,1.14,23.93-4.21,31.03-13.64,7.1-9.43,11.72-11.98,7.37-22.95,2.64,6.63,18.1,14.84,25.92,14.95,7.13.11,12.92-6.1,17.4-11.65,6.64-8.22,10.4-20.61,5.82-29.46,2.04,1.48,4.7,2.28,7.22,1.95,4.44-.59,8.22-3.53,11.28-6.81,5.17-5.56,9.02-12.74,9.04-20.34.02-7.6-12.61-21.79-19.81-24.2Zm-243.77,32.07c-3.99.81-7.86-.15-10.96-.93-1.29-.32-3.12-.78-4.83-1.81-2.01,5.54-3.93,11.37-5.84,17.69-.53,1.75-2.15,2.87-3.89,2.84-.36,0-.73-.06-1.1-.17-2.11-.64-3.31-2.87-2.67-4.99,4.85-16.07,9.78-29.05,15.99-42.1.39-.83,1.06-1.5,1.89-1.89,3.53-1.68,7.18-.09,8.74.59,4.79,2.09,10.61,5.24,13.08,11.13,1.59,3.8,1.31,8.22-.77,12.15-2.08,3.93-5.6,6.66-9.65,7.48Zm53.55-1.51c-.68,2.1-2.93,3.25-5.04,2.58-6.71-2.17-13.41-4.63-19.95-7.34-.25.7-.5,1.4-.76,2.11-1.07,2.96-2.17,6.04-3.29,9.21,6.33,1.43,12.48,4.03,17.88,7.59,1.84,1.22,2.35,3.7,1.14,5.54-.78,1.18-2.08,1.82-3.4,1.8-.74-.01-1.48-.23-2.14-.66-4.85-3.2-10.41-5.48-16.12-6.65-1.52,4.5-3.03,9.13-4.44,13.86l17.3,6.58c2.06.79,3.1,3.1,2.32,5.16-.62,1.62-2.16,2.6-3.8,2.58-.45,0-.91-.09-1.36-.26l-20.75-7.9c-1.94-.74-2.99-2.84-2.43-4.83,3.54-12.48,7.8-24.3,11.56-34.73.74-2.06,1.47-4.09,2.18-6.07.37-1.04,1.16-1.88,2.17-2.32,1.02-.44,2.17-.44,3.18,0,7.54,3.27,15.33,6.2,23.15,8.73,2.1.68,3.26,2.93,2.58,5.04Zm38.84,7.98c-2.14,14.3-3.42,28.88-3.81,43.34-.06,2.19-1.87,3.92-4.06,3.89-.02,0-.03,0-.05,0-2.21-.06-3.95-1.9-3.89-4.11.16-5.92.47-11.86.92-17.8-3.61-1.1-7.31-1.86-11.06-2.27l-4.76,16.77c-.6,2.13-2.81,3.36-4.94,2.76-2.13-.6-3.36-2.81-2.76-4.94l11.81-41.63c.55-1.95,2.47-3.17,4.46-2.86l14.78,2.3c2.17.34,3.67,2.37,3.34,4.54Zm47.34,43.52c-.32.07-.63.1-.94.1-1.8-.03-3.42-1.28-3.84-3.12-1.71-7.57-4.28-14.96-7.62-21.97-3.13.84-6.41,1.26-9.67,1.25.69,7.27,1.29,14.4,1.87,21.41.18,2.2-1.45,4.14-3.65,4.32-.13.01-.27.02-.4.01-2.03-.03-3.75-1.6-3.92-3.67h0c-1.2-14.36-2.44-29.22-4.48-44.75-.27-2.07,1.1-4.01,3.15-4.44,1.32-.28,2.63-.61,4.03-.97,3.84-.98,7.8-1.98,12.1-1.8,8.84.39,14.41,6.41,15.17,11.88.77,5.53-2.37,10.26-6.93,13.4,3.57,7.52,6.32,15.43,8.16,23.55.49,2.15-.87,4.3-3.02,4.78Zm42.33-14.82c-2.42,2.82-6.06,4.32-9.62,4.26-1.95-.03-3.87-.52-5.55-1.52-3.59-2.13-5.33-5.79-6.59-8.46-4.06-8.56-8.02-17.66-7.92-26.57.07-6.02,2.63-10.61,6.85-12.29,3.67-1.46,8.08-.46,11.8,2.66,1.18.99,2.18,2.06,3.13,3.08.94,1,1.82,1.95,2.75,2.67,1.75,1.35,2.06,3.87.71,5.61-1.35,1.75-3.87,2.06-5.61.71-1.43-1.11-2.58-2.34-3.69-3.53-.83-.89-1.62-1.73-2.43-2.41-1.34-1.13-2.87-1.68-3.7-1.35-1.02.4-1.77,2.48-1.8,4.95-.08,7.21,3.48,15.34,7.14,23.05,1.07,2.26,2.07,4.2,3.45,5.01,1.45.86,3.8.35,5.03-1.08,1.32-1.53,1.6-4.14.67-6.21-.91-2.01,0-4.38,2.01-5.29,2.01-.91,4.38,0,5.29,2.01,2.21,4.91,1.45,10.82-1.9,14.71Zm46.3-23.86c-2.29,1.22-5.29,3.24-8.19,5.18-3.53,2.37-6.87,4.61-9.55,5.91-.58.28-1.19.41-1.8.4-1.31-.02-2.57-.68-3.32-1.86-2.43-3.82-18.75-30.11-21.16-35.28-.93-2-.07-4.38,1.93-5.32.37-.17.74-.26,1.12-.32.3-.47.7-.88,1.2-1.2l13.57-8.62c1.87-1.18,4.34-.63,5.52,1.23,1.18,1.87.63,4.34-1.23,5.52l-13.21,8.39c1.53,2.69,3.83,6.57,6.33,10.71,1.92-1.31,3.91-2.52,5.84-3.7,2.64-1.61,5.13-3.12,7.39-4.82,1.77-1.33,4.27-.97,5.6.8,1.33,1.77.97,4.27-.8,5.6-2.57,1.93-5.35,3.62-8.03,5.26-2.05,1.25-4.01,2.44-5.84,3.71,2.44,3.99,4.78,7.77,6.5,10.52,1.7-1.05,3.61-2.34,5.48-3.59,3.07-2.06,6.24-4.18,8.88-5.59,1.95-1.04,4.37-.31,5.41,1.64,1.04,1.95.31,4.37-1.64,5.41Z"/>
  </g>
  <path d="m371.38,240.05H99.96c27.2-45.14,81.42-79.31,134.12-79.32,37.65,0,122.05,28.87,137.3,79.32Z" style="fill: #fff; stroke: #000; stroke-linecap: round; stroke-linejoin: round; stroke-width: 7px;"/>
  <path d="m88.2,384.56c-2.65,11.73-5.31,23.46-7.96,35.18-1.6,7.09-1.84,16.82,5.06,19.11,5,1.66,10.39-2.63,11.9-7.67,1.51-5.05.24-10.46-1.03-15.58-2.32-9.34-4.63-18.67-6.95-28.01" style="fill: none; stroke: #000; stroke-linecap: round; stroke-linejoin: round; stroke-width: 7px;"/>
  <path d="m308.81,418.56c-2.65,11.73-5.31,23.46-7.96,35.18-1.6,7.09-1.84,16.82,5.06,19.11,5,1.66,10.39-2.63,11.9-7.67,1.51-5.05.24-10.46-1.03-15.58-2.32-9.34-4.63-18.67-6.95-28.01" style="fill: none; stroke: #000; stroke-linecap: round; stroke-linejoin: round; stroke-width: 7px;"/>
  <path d="m152.83,418.56c-3.1,13.72-6.21,27.43-9.31,41.15-1.88,8.29-2.15,19.67,5.92,22.36,5.85,1.94,12.16-3.07,13.92-8.98,1.77-5.91.28-12.24-1.2-18.22-2.71-10.92-5.42-21.84-8.13-32.75" style="fill: none; stroke: #000; stroke-linecap: round; stroke-linejoin: round; stroke-width: 7px;"/>
  <path d="m388.83,367.29c-3.1,13.72-6.21,27.43-9.31,41.15-1.88,8.29-2.15,19.67,5.92,22.36,5.85,1.94,12.16-3.07,13.92-8.98,1.77-5.91.28-12.24-1.2-18.22-2.71-10.92-5.42-21.84-8.13-32.75" style="fill: none; stroke: #000; stroke-linecap: round; stroke-linejoin: round; stroke-width: 7px;"/>
</svg>