<?xml version="1.0" encoding="UTF-8"?>
<svg id="t" data-name="Layer 23" xmlns="http://www.w3.org/2000/svg" viewBox="0 0 314.24 82">
  <defs>
    <style>
      .u {
        fill: none;
        stroke: #000;
        stroke-linecap: round;
        stroke-linejoin: round;
        stroke-width: 5px;
      }
    </style>
  </defs>
  <g>
    <g>
      <path class="u" d="m179.77,34.24c-.4-8.86-.8-17.72-1.2-26.58,3.7-.68,8.03-1.18,10.76,1.41,2.45,2.32,2.4,6.63.18,9.16-2.23,2.54-6.15,3.24-9.29,2.01"/>
      <path class="u" d="m180.26,20.71c3.7-.68,8.03-1.18,10.76,1.41,2.45,2.32,2.4,6.63.18,9.16-2.23,2.54-6.15,3.24-9.29,2.01"/>
    </g>
    <path class="u" d="m114.53,8.97c3.13,7.78,5.84,15.73,8.12,23.81.43-4.54,1.25-9.04,2.45-13.44.97-3.56,2.7-6.67,3.02-10.35-.05.28.05-.28,0,0h0c3.13,7.78,7.01,15.72,9.28,23.8.43-4.54,1.25-9.04,2.45-13.44.97-3.56,2.19-7.09,2.51-10.77-.05.28-.1.56-.14.84"/>
    <g>
      <path class="u" d="m155.33,10.84c-1.48,6.74.48,13.79-.29,20.66,2.45-.07,4.91-.13,7.36-.2.15,0,.33-.02.41-.15s-.11-.34-.21-.23"/>
      <path class="u" d="m156.33,20.24c3.07.41,6.19.43,9.27.05"/>
      <path class="u" d="m156.33,20.24c3.07.41,6.19.43,9.27.05"/>
      <path class="u" d="m156.33,20.24c3.07.41,6.19.43,9.27.05"/>
      <path class="u" d="m155.77,10.48c2.83-.66,5.79-.8,8.67-.41"/>
    </g>
  </g>
  <g>
    <g>
      <path class="u" d="m289.94,49.79c3.72-1.3,7.66-1.91,11.58-1.81"/>
      <path class="u" d="m296.35,50.16c-1.1,7-1.35,14.13-.76,21.19"/>
    </g>
    <g>
      <path class="u" d="m262.41,71.91c.03-8.06.05-16.12.51-24.51,2.05,8.58,7.76,15.67,11.3,23.71"/>
      <path class="u" d="m274.28,48.59c.11,7.18.22,14.36.34,21.55,0,.2.04.44.22.51.18.07.31-.32.11-.3"/>
    </g>
    <path class="u" d="m156.29,48.25c-1.38-.56-3.02-.01-4.11,1-1.09,1.02-1.72,2.43-2.22,3.83-1.3,3.64-1.91,7.53-1.78,11.4.07,2.08.39,4.25,1.6,5.94,1.21,1.69,3.53,2.74,5.45,1.92,1.86-.8,2.69-2.94,3.23-4.89.8-2.88,1.4-5.82,1.8-8.78.28-2.14.45-4.37-.3-6.39-.75-2.02-2.69-3.63-3.65-4.02Z"/>
    <path class="u" d="m175.19,74.21c-.4-8.86-.8-17.72-1.2-26.58,3.7-.68,8.03-1.18,10.76,1.41,2.45,2.32,2.4,6.63.18,9.16-2.23,2.54-6.15,3.24-9.29,2.01"/>
    <path class="u" d="m123.61,48.62c-.09,7.81.13,15.62.65,23.41,3.46-1.12,7.17-1.41,10.75-.85"/>
    <path class="u" d="m63.57,48.62c3.13,7.78,5.84,15.73,8.12,23.81.43-4.54,1.25-9.04,2.45-13.44.97-3.56,2.19-7.09,2.51-10.77-.05.28-.1.56-.14.84"/>
    <g>
      <path class="u" d="m234.32,49.81c.49,7.25.99,14.5,1.48,21.75,3.43-.87,6.85-1.74,10.28-2.61"/>
      <path class="u" d="m236.73,60.66c2.19-.09,4.38-.32,6.54-.69"/>
      <path class="u" d="m234.71,50.2c2.95-.37,5.9-.74,8.85-1.11.2-.03.47-.01.53.18.06.2-.39.19-.26.03"/>
    </g>
    <g>
      <path class="u" d="m38.04,50.49c-1.48,6.74.48,13.79-.29,20.66,2.45-.07,4.91-.13,7.36-.2.15,0,.33-.02.41-.15s-.11-.34-.21-.23"/>
      <path class="u" d="m39.04,59.89c3.07.41,6.19.43,9.27.05"/>
      <path class="u" d="m39.04,59.89c3.07.41,6.19.43,9.27.05"/>
      <path class="u" d="m39.04,59.89c3.07.41,6.19.43,9.27.05"/>
      <path class="u" d="m38.48,50.13c2.83-.66,5.79-.8,8.67-.41"/>
    </g>
    <g>
      <path class="u" d="m94.75,50.49c-1.48,6.74.48,13.79-.29,20.66,2.45-.07,4.91-.13,7.36-.2.15,0,.33-.02.41-.15s-.11-.34-.21-.23"/>
      <path class="u" d="m95.76,59.89c3.07.41,6.19.43,9.27.05"/>
      <path class="u" d="m95.76,59.89c3.07.41,6.19.43,9.27.05"/>
      <path class="u" d="m95.76,59.89c3.07.41,6.19.43,9.27.05"/>
      <path class="u" d="m95.19,50.13c2.83-.66,5.79-.8,8.67-.41"/>
    </g>
    <path class="u" d="m8.81,72.54l-.93-24.42c1.48.11,2.95.23,4.43.34,1.47.11,3,.24,4.3.94,2.52,1.36,3.5,4.46,3.89,7.3.41,2.94.45,5.92.11,8.87-.11.93-.26,1.87-.68,2.7-.84,1.63-2.61,2.58-4.39,3.02-1.96.49-4.05.48-6.73,1.25Z"/>
    <g>
      <path class="u" d="m200.43,74.86c.16-9.14.32-18.28.47-27.42"/>
      <path class="u" d="m220.47,75.42c-.8-9.49-.84-19.05-.12-28.54l-10.31,21.09-9.56-20.39"/>
    </g>
  </g>
</svg>